<?xml version="1.0" standalone="no"?>
<!DOCTYPE svg PUBLIC "-//W3C//DTD SVG 1.1//EN" "http://www.w3.org/Graphics/SVG/1.1/DTD/svg11.dtd" >
<svg xmlns="http://www.w3.org/2000/svg" xmlns:xlink="http://www.w3.org/1999/xlink" version="1.1">
<metadata>
Created by FontForge 20190801 at Tue Jul 20 09:57:14 2021
 By Unknown
Copyright 2020 Dinamo (Johannes Breyer, Fabian Harb). All rights reserved.
</metadata>
<defs>
<font id="TKEType-Regular" horiz-adv-x="600" >
  <font-face 
    font-family="TKE Type"
    font-weight="400"
    font-stretch="normal"
    units-per-em="1000"
    panose-1="2 0 5 3 0 0 0 0 0 0"
    ascent="780"
    descent="-220"
    x-height="500"
    cap-height="700"
    bbox="-165 -285 2150 926"
    underline-thickness="50"
    underline-position="-100"
    unicode-range="U+0020-FB04"
  />
<missing-glyph horiz-adv-x="660" 
d="M580 0h-500v700h500v-700zM155 625v-550h350v550h-350z" />
    <glyph glyph-name=".notdef" horiz-adv-x="660" 
d="M580 0h-500v700h500v-700zM155 625v-550h350v550h-350z" />
    <glyph glyph-name="space" unicode=" " horiz-adv-x="244" 
 />
    <glyph glyph-name="A" unicode="A" horiz-adv-x="695" 
d="M687 0h-104l-70 180h-334l-70 -180h-102l277 700h128zM346 608l-132 -338h264z" />
    <glyph glyph-name="Aacute" unicode="&#xc1;" horiz-adv-x="695" 
d="M360 890h115l-92 -130h-70zM687 0h-104l-70 180h-334l-70 -180h-102l277 700h128zM346 608l-132 -338h264z" />
    <glyph glyph-name="Abreve" unicode="&#x102;" horiz-adv-x="695" 
d="M236 787c-28 25 -43 59 -43 103h75c1 -23 9 -41 24 -52c16 -12 35 -18 56 -18s40 6 56 18c15 11 23 29 24 52h75c0 -44 -15 -78 -43 -103c-30 -25 -67 -37 -112 -37s-82 12 -112 37zM687 0h-104l-70 180h-334l-70 -180h-102l277 700h128zM346 608l-132 -338h264z" />
    <glyph glyph-name="Acircumflex" unicode="&#xc2;" horiz-adv-x="695" 
d="M437 760l-89 69l-89 -69h-80l109 130h120l109 -130h-80zM687 0h-104l-70 180h-334l-70 -180h-102l277 700h128zM346 608l-132 -338h264z" />
    <glyph glyph-name="Adieresis" unicode="&#xc4;" horiz-adv-x="695" 
d="M203 880h100v-100h-100v100zM393 880h100v-100h-100v100zM687 0h-104l-70 180h-334l-70 -180h-102l277 700h128zM346 608l-132 -338h264z" />
    <glyph glyph-name="uni0226" unicode="&#x226;" horiz-adv-x="695" 
d="M295 890h105v-110h-105v110zM687 0h-104l-70 180h-334l-70 -180h-102l277 700h128zM346 608l-132 -338h264z" />
    <glyph glyph-name="Agrave" unicode="&#xc0;" horiz-adv-x="695" 
d="M344 890l47 -130h-70l-92 130h115zM687 0h-104l-70 180h-334l-70 -180h-102l277 700h128zM346 608l-132 -338h264z" />
    <glyph glyph-name="Amacron" unicode="&#x100;" horiz-adv-x="695" 
d="M200 855h296v-75h-296v75zM687 0h-104l-70 180h-334l-70 -180h-102l277 700h128zM346 608l-132 -338h264z" />
    <glyph glyph-name="Aogonek" unicode="&#x104;" horiz-adv-x="695" 
d="M667 -140h15v-65h-34c-35 0 -63 8 -82 24s-29 36 -29 61c0 27 8 50 25 70c17 21 37 37 60 50h-39l-70 180h-334l-70 -180h-102l277 700h128l275 -700c-27 -17 -47 -33 -63 -48c-14 -16 -22 -33 -22 -52c0 -27 22 -40 65 -40zM346 608l-132 -338h264z" />
    <glyph glyph-name="Aring" unicode="&#xc5;" horiz-adv-x="695" 
d="M285 776c-18 16 -27 37 -27 62s9 46 27 62c18 18 39 26 63 26s45 -8 63 -26c18 -16 27 -37 27 -62s-9 -46 -27 -62c-18 -18 -39 -26 -63 -26s-45 8 -63 26zM326 862c-8 -7 -11 -15 -11 -24s3 -16 11 -24c6 -6 14 -10 23 -10s16 3 23 10c6 7 9 15 9 24s-3 17 -9 24
c-7 7 -14 10 -23 10s-17 -3 -23 -10zM687 0h-104l-70 180h-334l-70 -180h-102l277 700h128zM346 608l-132 -338h264z" />
    <glyph glyph-name="Atilde" unicode="&#xc3;" horiz-adv-x="695" 
d="M238 765h-70v26c0 29 9 54 27 74s41 30 70 30c24 0 53 -11 88 -33l21 -13c21 -13 37 -19 49 -19c11 0 19 5 25 14s9 23 9 41h70v-26c0 -29 -9 -54 -27 -74c-17 -20 -40 -30 -68 -30c-14 0 -28 3 -40 9c-14 5 -29 14 -48 25l-25 15c-17 11 -33 16 -47 16
c-23 0 -34 -18 -34 -55zM687 0h-104l-70 180h-334l-70 -180h-102l277 700h128zM346 608l-132 -338h264z" />
    <glyph glyph-name="AE" unicode="&#xc6;" horiz-adv-x="1000" 
d="M105 0h-110l405 700h515v-90h-360l30 -205h300v-90h-291l32 -225h349v-90h-435l-25 180h-308zM455 615l-196 -345h244z" />
    <glyph glyph-name="AEacute" unicode="&#x1fc;" horiz-adv-x="1000" 
d="M660 760h-70l47 130h115zM105 0h-110l405 700h515v-90h-360l30 -205h300v-90h-291l32 -225h349v-90h-435l-25 180h-308zM455 615l-196 -345h244z" />
    <glyph glyph-name="B" unicode="B" horiz-adv-x="663" 
d="M90 0v700h305c37 0 70 -8 101 -22c31 -16 55 -37 72 -65c18 -28 27 -61 27 -98c0 -39 -10 -72 -31 -99s-48 -48 -83 -61c40 -7 71 -25 95 -53c22 -30 34 -67 34 -112c0 -37 -9 -70 -28 -100c-19 -28 -44 -51 -75 -66c-31 -16 -65 -24 -102 -24h-315zM380 400
c35 0 63 9 84 28s31 44 31 77s-10 58 -31 77s-49 28 -84 28h-190v-210h190zM385 90c38 0 68 10 91 29s34 46 34 81s-11 62 -34 81s-53 29 -91 29h-195v-220h195z" />
    <glyph glyph-name="C" unicode="C" horiz-adv-x="703" 
d="M203 37c-50 31 -88 74 -115 129c-27 54 -40 115 -40 184s13 130 40 184c27 55 65 98 115 129s108 47 175 47c50 0 96 -9 137 -28s75 -46 100 -80c25 -36 40 -76 43 -122h-100c-5 43 -23 77 -56 102c-32 25 -72 38 -119 38h-10c-47 0 -87 -12 -121 -36
c-34 -23 -60 -56 -78 -96c-17 -42 -26 -87 -26 -138s9 -96 26 -138c18 -40 44 -73 78 -96c34 -24 74 -36 121 -36h10c47 0 87 13 119 38c33 25 51 59 56 102h100c-3 -46 -18 -86 -43 -122c-25 -34 -59 -61 -100 -80s-87 -28 -137 -28c-67 0 -125 16 -175 47z" />
    <glyph glyph-name="Cacute" unicode="&#x106;" horiz-adv-x="703" 
d="M411 760h-70l47 130h115zM203 37c-50 31 -88 74 -115 129c-27 54 -40 115 -40 184s13 130 40 184c27 55 65 98 115 129s108 47 175 47c50 0 96 -9 137 -28s75 -46 100 -80c25 -36 40 -76 43 -122h-100c-5 43 -23 77 -56 102c-32 25 -72 38 -119 38h-10
c-47 0 -87 -12 -121 -36c-34 -23 -60 -56 -78 -96c-17 -42 -26 -87 -26 -138s9 -96 26 -138c18 -40 44 -73 78 -96c34 -24 74 -36 121 -36h10c47 0 87 13 119 38c33 25 51 59 56 102h100c-3 -46 -18 -86 -43 -122c-25 -34 -59 -61 -100 -80s-87 -28 -137 -28
c-67 0 -125 16 -175 47z" />
    <glyph glyph-name="Ccaron" unicode="&#x10c;" horiz-adv-x="703" 
d="M545 890l-109 -130h-120l-109 130h80l89 -69l89 69h80zM383 80c47 0 87 13 119 38c33 25 51 59 56 102h100c-3 -46 -18 -86 -43 -122c-25 -34 -59 -61 -100 -80s-87 -28 -137 -28c-67 0 -125 16 -175 47s-88 74 -115 129c-27 54 -40 115 -40 184s13 130 40 184
c27 55 65 98 115 129s108 47 175 47c50 0 96 -9 137 -28s75 -46 100 -80c25 -36 40 -76 43 -122h-100c-5 43 -23 77 -56 102c-32 25 -72 38 -119 38h-10c-47 0 -87 -12 -121 -36c-34 -23 -60 -56 -78 -96c-17 -42 -26 -87 -26 -138s9 -96 26 -138c18 -40 44 -73 78 -96
c34 -24 74 -36 121 -36h10z" />
    <glyph glyph-name="Ccedilla" unicode="&#xc7;" horiz-adv-x="703" 
d="M383 80c47 0 87 13 119 38c33 25 51 59 56 102h100c-3 -45 -17 -84 -40 -118c-23 -33 -54 -60 -93 -79s-82 -30 -129 -33v-35c27 -2 48 -11 64 -27c15 -16 23 -37 23 -63c0 -30 -11 -54 -33 -73c-22 -18 -49 -27 -82 -27h-62v65h62c33 0 50 12 50 37c0 12 -4 21 -12 28
s-19 10 -34 10h-31v87c-60 5 -112 24 -156 56c-44 33 -78 75 -101 128c-24 52 -36 110 -36 174c0 69 13 130 40 184c27 55 65 98 115 129s108 47 175 47c50 0 96 -9 137 -28s75 -46 100 -80c25 -36 40 -76 43 -122h-100c-5 43 -23 77 -56 102c-32 25 -72 38 -119 38h-10
c-47 0 -87 -12 -121 -36c-34 -23 -60 -56 -78 -96c-17 -42 -26 -87 -26 -138s9 -96 26 -138c18 -40 44 -73 78 -96c34 -24 74 -36 121 -36h10z" />
    <glyph glyph-name="Ccircumflex" unicode="&#x108;" horiz-adv-x="703" 
d="M465 760l-89 69l-89 -69h-80l109 130h120l109 -130h-80zM383 80c47 0 87 13 119 38c33 25 51 59 56 102h100c-3 -46 -18 -86 -43 -122c-25 -34 -59 -61 -100 -80s-87 -28 -137 -28c-67 0 -125 16 -175 47s-88 74 -115 129c-27 54 -40 115 -40 184s13 130 40 184
c27 55 65 98 115 129s108 47 175 47c50 0 96 -9 137 -28s75 -46 100 -80c25 -36 40 -76 43 -122h-100c-5 43 -23 77 -56 102c-32 25 -72 38 -119 38h-10c-47 0 -87 -12 -121 -36c-34 -23 -60 -56 -78 -96c-17 -42 -26 -87 -26 -138s9 -96 26 -138c18 -40 44 -73 78 -96
c34 -24 74 -36 121 -36h10z" />
    <glyph glyph-name="Cdotaccent" unicode="&#x10a;" horiz-adv-x="703" 
d="M428 780h-105v110h105v-110zM203 37c-50 31 -88 74 -115 129c-27 54 -40 115 -40 184s13 130 40 184c27 55 65 98 115 129s108 47 175 47c50 0 96 -9 137 -28s75 -46 100 -80c25 -36 40 -76 43 -122h-100c-5 43 -23 77 -56 102c-32 25 -72 38 -119 38h-10
c-47 0 -87 -12 -121 -36c-34 -23 -60 -56 -78 -96c-17 -42 -26 -87 -26 -138s9 -96 26 -138c18 -40 44 -73 78 -96c34 -24 74 -36 121 -36h10c47 0 87 13 119 38c33 25 51 59 56 102h100c-3 -46 -18 -86 -43 -122c-25 -34 -59 -61 -100 -80s-87 -28 -137 -28
c-67 0 -125 16 -175 47z" />
    <glyph glyph-name="D" unicode="D" horiz-adv-x="715" 
d="M90 0v700h250c65 0 122 -14 170 -42c50 -28 88 -68 114 -121c28 -53 41 -115 41 -187s-13 -134 -41 -187c-26 -53 -64 -93 -114 -121c-48 -28 -105 -42 -170 -42h-250zM330 90c75 0 133 22 174 66c41 45 61 109 61 194s-20 149 -61 194c-41 44 -99 66 -174 66h-140v-520
h140z" />
    <glyph glyph-name="Eth" unicode="&#xd0;" horiz-adv-x="739" 
d="M364 700c65 0 122 -14 170 -42c50 -28 88 -68 114 -121c28 -53 41 -115 41 -187s-13 -134 -41 -187c-26 -53 -64 -93 -114 -121c-48 -28 -105 -42 -170 -42h-250v305h-100v90h100v305h250zM354 90c75 0 133 22 174 66c41 45 61 109 61 194s-20 149 -61 194
c-41 44 -99 66 -174 66h-140v-215h139v-90h-139v-215h140z" />
    <glyph glyph-name="Dcaron" unicode="&#x10e;" horiz-adv-x="715" 
d="M514 890l-109 -130h-120l-109 130h80l89 -69l89 69h80zM340 700c65 0 122 -14 170 -42c50 -28 88 -68 114 -121c28 -53 41 -115 41 -187s-13 -134 -41 -187c-26 -53 -64 -93 -114 -121c-48 -28 -105 -42 -170 -42h-250v700h250zM330 90c75 0 133 22 174 66
c41 45 61 109 61 194s-20 149 -61 194c-41 44 -99 66 -174 66h-140v-520h140z" />
    <glyph glyph-name="Dcroat" unicode="&#x110;" horiz-adv-x="739" 
d="M364 700c65 0 122 -14 170 -42c50 -28 88 -68 114 -121c28 -53 41 -115 41 -187s-13 -134 -41 -187c-26 -53 -64 -93 -114 -121c-48 -28 -105 -42 -170 -42h-250v305h-100v90h100v305h250zM354 90c75 0 133 22 174 66c41 45 61 109 61 194s-20 149 -61 194
c-41 44 -99 66 -174 66h-140v-215h139v-90h-139v-215h140z" />
    <glyph glyph-name="E" unicode="E" horiz-adv-x="652" 
d="M610 0h-520v700h510v-90h-410v-205h350v-90h-350v-225h420v-90z" />
    <glyph glyph-name="Eacute" unicode="&#xc9;" horiz-adv-x="652" 
d="M384 760h-70l47 130h115zM610 0h-520v700h510v-90h-410v-205h350v-90h-350v-225h420v-90z" />
    <glyph glyph-name="Ebreve" unicode="&#x114;" horiz-adv-x="652" 
d="M238 787c-30 25 -44 59 -44 103h75c1 -23 9 -41 25 -52c15 -12 34 -18 55 -18s40 6 55 18c16 11 24 29 25 52h75c0 -44 -14 -78 -44 -103c-28 -25 -66 -37 -111 -37s-83 12 -111 37zM610 0h-520v700h510v-90h-410v-205h350v-90h-350v-225h420v-90z" />
    <glyph glyph-name="Ecaron" unicode="&#x11a;" horiz-adv-x="652" 
d="M518 890l-109 -130h-120l-109 130h80l89 -69l89 69h80zM190 315v-225h420v-90h-520v700h510v-90h-410v-205h350v-90h-350z" />
    <glyph glyph-name="Ecircumflex" unicode="&#xca;" horiz-adv-x="652" 
d="M438 760l-89 69l-89 -69h-80l109 130h120l109 -130h-80zM190 315v-225h420v-90h-520v700h510v-90h-410v-205h350v-90h-350z" />
    <glyph glyph-name="Edieresis" unicode="&#xcb;" horiz-adv-x="652" 
d="M304 780h-100v100h100v-100zM494 780h-100v100h100v-100zM610 0h-520v700h510v-90h-410v-205h350v-90h-350v-225h420v-90z" />
    <glyph glyph-name="Edotaccent" unicode="&#x116;" horiz-adv-x="652" 
d="M401 780h-105v110h105v-110zM610 0h-520v700h510v-90h-410v-205h350v-90h-350v-225h420v-90z" />
    <glyph glyph-name="Egrave" unicode="&#xc8;" horiz-adv-x="652" 
d="M392 760h-70l-92 130h115zM610 0h-520v700h510v-90h-410v-205h350v-90h-350v-225h420v-90z" />
    <glyph glyph-name="Emacron" unicode="&#x112;" horiz-adv-x="652" 
d="M497 780h-296v75h296v-75zM610 0h-520v700h510v-90h-410v-205h350v-90h-350v-225h420v-90z" />
    <glyph glyph-name="Eogonek" unicode="&#x118;" horiz-adv-x="652" 
d="M610 0c-27 -17 -48 -33 -62 -48c-16 -16 -23 -33 -23 -52c0 -27 22 -40 65 -40h15v-65h-34c-35 0 -63 8 -82 24s-29 36 -29 61c0 27 8 50 25 70c17 21 37 37 60 50h-455v700h510v-90h-410v-205h350v-90h-350v-225h420v-90z" />
    <glyph glyph-name="F" unicode="F" horiz-adv-x="606" 
d="M190 0h-100v700h490v-90h-390v-225h340v-90h-340v-295z" />
    <glyph glyph-name="G" unicode="G" horiz-adv-x="737" 
d="M205 36c-50 31 -89 73 -116 128s-41 117 -41 186c0 70 14 132 42 186c27 55 67 97 118 128s111 46 180 46c58 0 108 -10 150 -31c41 -21 73 -49 96 -85s36 -77 39 -124h-100c-5 48 -23 85 -54 111s-73 39 -126 39h-10c-47 0 -88 -11 -123 -32s-63 -52 -82 -93
c-20 -41 -30 -89 -30 -145s10 -104 30 -145c19 -41 47 -72 82 -93s76 -32 123 -32h10c40 0 75 8 105 22c29 16 52 36 67 61s23 53 23 84v19h-200v89h205c27 0 48 -7 63 -22s22 -36 22 -63v-270h-90v79c-8 -12 -21 -25 -40 -39c-18 -13 -42 -25 -71 -35s-62 -15 -99 -15
c-65 0 -123 15 -173 46z" />
    <glyph glyph-name="Gbreve" unicode="&#x11e;" horiz-adv-x="737" 
d="M266 787c-28 25 -43 59 -43 103h75c1 -23 9 -41 24 -52c16 -12 35 -18 56 -18s40 6 56 18c15 11 23 29 24 52h75c0 -44 -15 -78 -43 -103c-30 -25 -67 -37 -112 -37s-82 12 -112 37zM205 36c-50 31 -89 73 -116 128s-41 117 -41 186c0 70 14 132 42 186
c27 55 67 97 118 128s111 46 180 46c58 0 108 -10 150 -31c41 -21 73 -49 96 -85s36 -77 39 -124h-100c-5 48 -23 85 -54 111s-73 39 -126 39h-10c-47 0 -88 -11 -123 -32s-63 -52 -82 -93c-20 -41 -30 -89 -30 -145s10 -104 30 -145c19 -41 47 -72 82 -93s76 -32 123 -32
h10c40 0 75 8 105 22c29 16 52 36 67 61s23 53 23 84v19h-200v89h205c27 0 48 -7 63 -22s22 -36 22 -63v-270h-90v79c-8 -12 -21 -25 -40 -39c-18 -13 -42 -25 -71 -35s-62 -15 -99 -15c-65 0 -123 15 -173 46z" />
    <glyph glyph-name="Gcircumflex" unicode="&#x11c;" horiz-adv-x="737" 
d="M467 760l-89 69l-89 -69h-80l109 130h120l109 -130h-80zM593 355c27 0 48 -7 63 -22s22 -36 22 -63v-270h-90v79c-8 -12 -21 -25 -40 -39c-18 -13 -42 -25 -71 -35s-62 -15 -99 -15c-65 0 -123 15 -173 46s-89 73 -116 128s-41 117 -41 186c0 70 14 132 42 186
c27 55 67 97 118 128s111 46 180 46c58 0 108 -10 150 -31c41 -21 73 -49 96 -85s36 -77 39 -124h-100c-5 48 -23 85 -54 111s-73 39 -126 39h-10c-47 0 -88 -11 -123 -32s-63 -52 -82 -93c-20 -41 -30 -89 -30 -145s10 -104 30 -145c19 -41 47 -72 82 -93s76 -32 123 -32
h10c40 0 75 8 105 22c29 16 52 36 67 61s23 53 23 84v19h-200v89h205z" />
    <glyph glyph-name="uni0122" unicode="&#x122;" horiz-adv-x="737" 
d="M205 36c-50 31 -89 73 -116 128s-41 117 -41 186c0 70 14 132 42 186c27 55 67 97 118 128s111 46 180 46c58 0 108 -10 150 -31c41 -21 73 -49 96 -85s36 -77 39 -124h-100c-5 48 -23 85 -54 111s-73 39 -126 39h-10c-47 0 -88 -11 -123 -32s-63 -52 -82 -93
c-20 -41 -30 -89 -30 -145s10 -104 30 -145c19 -41 47 -72 82 -93s76 -32 123 -32h10c40 0 75 8 105 22c29 16 52 36 67 61s23 53 23 84v19h-200v89h205c27 0 48 -7 63 -22s22 -36 22 -63v-270h-90v79c-8 -12 -21 -25 -40 -39c-18 -13 -42 -25 -71 -35s-62 -15 -99 -15
c-65 0 -123 15 -173 46zM310 -285v50h10c37 0 55 13 55 40v5h-45v100h95v-105c0 -26 -9 -47 -27 -65c-17 -16 -42 -25 -73 -25h-15z" />
    <glyph glyph-name="Gdotaccent" unicode="&#x120;" horiz-adv-x="737" 
d="M430 780h-105v110h105v-110zM205 36c-50 31 -89 73 -116 128s-41 117 -41 186c0 70 14 132 42 186c27 55 67 97 118 128s111 46 180 46c58 0 108 -10 150 -31c41 -21 73 -49 96 -85s36 -77 39 -124h-100c-5 48 -23 85 -54 111s-73 39 -126 39h-10c-47 0 -88 -11 -123 -32
s-63 -52 -82 -93c-20 -41 -30 -89 -30 -145s10 -104 30 -145c19 -41 47 -72 82 -93s76 -32 123 -32h10c40 0 75 8 105 22c29 16 52 36 67 61s23 53 23 84v19h-200v89h205c27 0 48 -7 63 -22s22 -36 22 -63v-270h-90v79c-8 -12 -21 -25 -40 -39c-18 -13 -42 -25 -71 -35
s-62 -15 -99 -15c-65 0 -123 15 -173 46z" />
    <glyph glyph-name="G.ss02" horiz-adv-x="734" 
d="M209 36c-51 31 -91 73 -119 128c-27 54 -41 116 -41 186s14 132 41 186c28 55 68 97 119 128s111 46 180 46c58 0 108 -10 149 -31c42 -21 74 -49 97 -85s36 -77 39 -124h-100c-5 48 -23 85 -54 111s-73 39 -126 39h-9c-47 0 -88 -11 -123 -32c-36 -21 -64 -52 -84 -93
c-19 -41 -29 -89 -29 -145s10 -104 29 -145c20 -41 48 -72 84 -93c35 -21 76 -32 123 -32h9c62 0 109 15 142 46c32 30 48 69 48 116v23h-194v90h289v-119c0 -48 -12 -91 -36 -128s-58 -66 -102 -87s-95 -31 -152 -31c-69 0 -129 15 -180 46z" />
    <glyph glyph-name="Gbreve.ss02" horiz-adv-x="734" 
d="M278 787c-30 25 -44 59 -44 103h75c1 -23 9 -41 25 -52c15 -12 34 -18 55 -18s40 6 55 18c16 11 24 29 25 52h75c0 -44 -14 -78 -44 -103c-28 -25 -66 -37 -111 -37s-83 12 -111 37zM209 36c-51 31 -91 73 -119 128c-27 54 -41 116 -41 186s14 132 41 186
c28 55 68 97 119 128s111 46 180 46c58 0 108 -10 149 -31c42 -21 74 -49 97 -85s36 -77 39 -124h-100c-5 48 -23 85 -54 111s-73 39 -126 39h-9c-47 0 -88 -11 -123 -32c-36 -21 -64 -52 -84 -93c-19 -41 -29 -89 -29 -145s10 -104 29 -145c20 -41 48 -72 84 -93
c35 -21 76 -32 123 -32h9c62 0 109 15 142 46c32 30 48 69 48 116v23h-194v90h289v-119c0 -48 -12 -91 -36 -128s-58 -66 -102 -87s-95 -31 -152 -31c-69 0 -129 15 -180 46z" />
    <glyph glyph-name="Gcircumflex.ss02" horiz-adv-x="734" 
d="M478 760l-89 69l-89 -69h-80l109 130h120l109 -130h-80zM390 355h289v-119c0 -48 -12 -91 -36 -128s-58 -66 -102 -87s-95 -31 -152 -31c-69 0 -129 15 -180 46s-91 73 -119 128c-27 54 -41 116 -41 186s14 132 41 186c28 55 68 97 119 128s111 46 180 46
c58 0 108 -10 149 -31c42 -21 74 -49 97 -85s36 -77 39 -124h-100c-5 48 -23 85 -54 111s-73 39 -126 39h-9c-47 0 -88 -11 -123 -32c-36 -21 -64 -52 -84 -93c-19 -41 -29 -89 -29 -145s10 -104 29 -145c20 -41 48 -72 84 -93c35 -21 76 -32 123 -32h9c62 0 109 15 142 46
c32 30 48 69 48 116v23h-194v90z" />
    <glyph glyph-name="uni0122.ss02" horiz-adv-x="734" 
d="M209 36c-51 31 -91 73 -119 128c-27 54 -41 116 -41 186s14 132 41 186c28 55 68 97 119 128s111 46 180 46c58 0 108 -10 149 -31c42 -21 74 -49 97 -85s36 -77 39 -124h-100c-5 48 -23 85 -54 111s-73 39 -126 39h-9c-47 0 -88 -11 -123 -32c-36 -21 -64 -52 -84 -93
c-19 -41 -29 -89 -29 -145s10 -104 29 -145c20 -41 48 -72 84 -93c35 -21 76 -32 123 -32h9c62 0 109 15 142 46c32 30 48 69 48 116v23h-194v90h289v-119c0 -48 -12 -91 -36 -128s-58 -66 -102 -87s-95 -31 -152 -31c-69 0 -129 15 -180 46zM319 -285v50h10
c37 0 55 13 55 40v5h-45v100h95v-105c0 -26 -9 -47 -26 -65c-18 -16 -43 -25 -74 -25h-15z" />
    <glyph glyph-name="Gdotaccent.ss02" horiz-adv-x="734" 
d="M441 780h-105v110h105v-110zM209 36c-51 31 -91 73 -119 128c-27 54 -41 116 -41 186s14 132 41 186c28 55 68 97 119 128s111 46 180 46c58 0 108 -10 149 -31c42 -21 74 -49 97 -85s36 -77 39 -124h-100c-5 48 -23 85 -54 111s-73 39 -126 39h-9
c-47 0 -88 -11 -123 -32c-36 -21 -64 -52 -84 -93c-19 -41 -29 -89 -29 -145s10 -104 29 -145c20 -41 48 -72 84 -93c35 -21 76 -32 123 -32h9c62 0 109 15 142 46c32 30 48 69 48 116v23h-194v90h289v-119c0 -48 -12 -91 -36 -128s-58 -66 -102 -87s-95 -31 -152 -31
c-69 0 -129 15 -180 46z" />
    <glyph glyph-name="H" unicode="H" horiz-adv-x="735" 
d="M190 0h-100v700h100v-305h355v305h100v-700h-100v305h-355v-305z" />
    <glyph glyph-name="Hbar" unicode="&#x126;" horiz-adv-x="753" 
d="M654 590h70v-80h-70v-510h-100v305h-355v-305h-100v510h-70v80h70v110h100v-110h355v110h100v-110zM199 395h355v115h-355v-115z" />
    <glyph glyph-name="Hcircumflex" unicode="&#x124;" horiz-adv-x="735" 
d="M457 760l-89 69l-89 -69h-80l109 130h120l109 -130h-80zM545 395v305h100v-700h-100v305h-355v-305h-100v700h100v-305h355z" />
    <glyph glyph-name="I" unicode="I" horiz-adv-x="280" 
d="M190 0h-100v700h100v-700z" />
    <glyph glyph-name="IJ" unicode="&#x132;" horiz-adv-x="571" 
d="M80 0v95h215c33 0 56 7 69 21c14 13 21 36 21 69v515h100v-525c0 -60 -14 -104 -43 -133c-28 -28 -72 -42 -132 -42h-230zM180 195h-100v505h100v-505z" />
    <glyph glyph-name="Iacute" unicode="&#xcd;" horiz-adv-x="280" 
d="M175 760h-70l47 130h115zM190 0h-100v700h100v-700z" />
    <glyph glyph-name="Ibreve" unicode="&#x12c;" horiz-adv-x="280" 
d="M28 787c-28 25 -43 59 -43 103h75c1 -23 9 -41 24 -52c16 -12 35 -18 56 -18s40 6 56 18c15 11 23 29 24 52h75c0 -44 -15 -78 -43 -103c-30 -25 -67 -37 -112 -37s-82 12 -112 37zM190 0h-100v700h100v-700z" />
    <glyph glyph-name="Icircumflex" unicode="&#xce;" horiz-adv-x="280" 
d="M80 890h120l109 -130h-80l-89 69l-89 -69h-80zM190 0h-100v700h100v-700z" />
    <glyph glyph-name="Idieresis" unicode="&#xcf;" horiz-adv-x="280" 
d="M95 780h-100v100h100v-100zM285 780h-100v100h100v-100zM190 0h-100v700h100v-700z" />
    <glyph glyph-name="Idotaccent" unicode="&#x130;" horiz-adv-x="280" 
d="M192 780h-105v110h105v-110zM190 0h-100v700h100v-700z" />
    <glyph glyph-name="Igrave" unicode="&#xcc;" horiz-adv-x="280" 
d="M183 760h-70l-92 130h115zM190 0h-100v700h100v-700z" />
    <glyph glyph-name="Imacron" unicode="&#x12a;" horiz-adv-x="280" 
d="M288 780h-296v75h296v-75zM190 0h-100v700h100v-700z" />
    <glyph glyph-name="Iogonek" unicode="&#x12e;" horiz-adv-x="280" 
d="M171 -140h15v-65h-34c-35 0 -63 8 -82 24s-29 36 -29 61c0 27 8 50 25 70c17 21 37 37 60 50h-36v700h100v-700h1c-27 -17 -47 -33 -63 -48c-14 -16 -22 -33 -22 -52c0 -27 22 -40 65 -40z" />
    <glyph glyph-name="Itilde" unicode="&#x128;" horiz-adv-x="280" 
d="M184 764c-14 5 -29 14 -48 25l-25 15c-17 11 -33 16 -47 16c-23 0 -34 -18 -34 -55h-70v26c0 29 9 54 27 74s41 30 70 30c24 0 53 -11 88 -33l21 -13c21 -13 37 -19 49 -19c11 0 19 5 25 14s9 23 9 41h70v-26c0 -29 -9 -54 -27 -74c-17 -20 -40 -30 -68 -30
c-14 0 -28 3 -40 9zM190 0h-100v700h100v-700z" />
    <glyph glyph-name="J" unicode="J" horiz-adv-x="408" 
d="M27 0v95h105c33 0 56 7 70 21c13 13 20 36 20 69v515h100v-525c0 -60 -14 -104 -42 -133c-29 -28 -73 -42 -133 -42h-120z" />
    <glyph glyph-name="Jcircumflex" unicode="&#x134;" horiz-adv-x="408" 
d="M210 890h120l109 -130h-80l-89 69l-89 -69h-80zM222 700h100v-525c0 -60 -14 -104 -42 -133c-29 -28 -73 -42 -133 -42h-120v95h105c33 0 56 7 70 21c13 13 20 36 20 69v515z" />
    <glyph glyph-name="K" unicode="K" horiz-adv-x="676" 
d="M670 0h-125l-233 340l-122 -124v-216h-100v700h100v-347l345 347h130l-281 -286z" />
    <glyph glyph-name="uni0136" unicode="&#x136;" horiz-adv-x="676" 
d="M665 700l-281 -286l286 -414h-125l-233 340l-122 -124v-216h-100v700h100v-347l345 347h130zM288 -190v100h95v-105c0 -26 -9 -47 -27 -65c-17 -16 -42 -25 -73 -25h-15v50h10c37 0 55 13 55 40v5h-45z" />
    <glyph glyph-name="L" unicode="L" horiz-adv-x="617" 
d="M600 0h-510v700h100v-610h410v-90z" />
    <glyph glyph-name="Lacute" unicode="&#x139;" horiz-adv-x="617" 
d="M175 760h-70l47 130h115zM600 0h-510v700h100v-610h410v-90z" />
    <glyph glyph-name="Lcaron" unicode="&#x13d;" horiz-adv-x="617" 
d="M600 0h-510v700h100v-610h410v-90zM304 505v50h10c37 0 55 13 55 40v5h-45v100h95v-105c0 -26 -9 -47 -27 -65c-17 -16 -42 -25 -73 -25h-15z" />
    <glyph glyph-name="uni013B" unicode="&#x13b;" horiz-adv-x="617" 
d="M600 0h-510v700h100v-610h410v-90zM277 -285v50h10c37 0 55 13 55 40v5h-45v100h95v-105c0 -26 -9 -47 -26 -65c-18 -16 -43 -25 -74 -25h-15z" />
    <glyph glyph-name="Ldot" unicode="&#x13f;" horiz-adv-x="618" 
d="M600 0h-510v700h100v-610h410v-90zM494 307h-108v108h108v-108z" />
    <glyph glyph-name="Lslash" unicode="&#x141;" horiz-adv-x="652" 
d="M225 314v-224h410v-90h-510v258l-95 -54v100l95 54v342h100v-286l185 105v-100z" />
    <glyph glyph-name="M" unicode="M" horiz-adv-x="925" 
d="M465 94l205 606h165v-700h-100v615l-206 -615h-128l-211 612v-612h-100v700h166z" />
    <glyph glyph-name="N" unicode="N" horiz-adv-x="745" 
d="M555 121v579h100v-700h-140l-325 579v-579h-100v700h140z" />
    <glyph glyph-name="Nacute" unicode="&#x143;" horiz-adv-x="745" 
d="M385 890h115l-92 -130h-70zM555 121v579h100v-700h-140l-325 579v-579h-100v700h140z" />
    <glyph glyph-name="Ncaron" unicode="&#x147;" horiz-adv-x="745" 
d="M542 890l-109 -130h-120l-109 130h80l89 -69l89 69h80zM555 121v579h100v-700h-140l-325 579v-579h-100v700h140z" />
    <glyph glyph-name="uni0145" unicode="&#x145;" horiz-adv-x="745" 
d="M555 121v579h100v-700h-140l-325 579v-579h-100v700h140zM325 -190v100h95v-105c0 -26 -9 -47 -26 -65c-18 -16 -43 -25 -74 -25h-15v50h10c37 0 55 13 55 40v5h-45z" />
    <glyph glyph-name="Eng" unicode="&#x14a;" horiz-adv-x="745" 
d="M415 -190v90h85c37 0 56 19 56 56v44l-366 546v-546h-100v700h112l353 -527v527h100v-760c0 -38 -12 -69 -35 -94c-24 -24 -56 -36 -95 -36h-110z" />
    <glyph glyph-name="Ntilde" unicode="&#xd1;" horiz-adv-x="745" 
d="M263 765h-70v26c0 29 9 54 27 74s41 30 70 30c24 0 53 -11 88 -33l21 -13c21 -13 37 -19 49 -19c11 0 19 5 25 14s9 23 9 41h70v-26c0 -29 -9 -54 -26 -74c-18 -20 -41 -30 -69 -30c-14 0 -27 3 -41 9c-12 5 -28 14 -47 25l-25 15c-17 11 -33 16 -47 16
c-23 0 -34 -18 -34 -55zM555 121v579h100v-700h-140l-325 579v-579h-100v700h140z" />
    <glyph glyph-name="O" unicode="O" horiz-adv-x="758" 
d="M209 34c-50 28 -89 70 -117 124c-29 55 -43 119 -43 192s14 137 43 192c28 54 67 96 117 124c50 30 107 44 170 44s120 -14 170 -44c50 -28 89 -70 117 -124c29 -55 43 -119 43 -192s-14 -137 -43 -192c-28 -54 -67 -96 -117 -124c-50 -30 -107 -44 -170 -44
s-120 14 -170 44zM384 80c43 0 82 11 116 32c34 22 61 53 80 94s29 89 29 144s-10 103 -29 144s-46 72 -80 94c-34 21 -73 32 -116 32h-10c-43 0 -82 -11 -116 -32c-34 -22 -61 -53 -80 -94s-29 -89 -29 -144s10 -103 29 -144s46 -72 80 -94c34 -21 73 -32 116 -32h10z" />
    <glyph glyph-name="Oacute" unicode="&#xd3;" horiz-adv-x="758" 
d="M414 760h-70l47 130h115zM209 34c-50 28 -89 70 -117 124c-29 55 -43 119 -43 192s14 137 43 192c28 54 67 96 117 124c50 30 107 44 170 44s120 -14 170 -44c50 -28 89 -70 117 -124c29 -55 43 -119 43 -192s-14 -137 -43 -192c-28 -54 -67 -96 -117 -124
c-50 -30 -107 -44 -170 -44s-120 14 -170 44zM384 80c43 0 82 11 116 32c34 22 61 53 80 94s29 89 29 144s-10 103 -29 144s-46 72 -80 94c-34 21 -73 32 -116 32h-10c-43 0 -82 -11 -116 -32c-34 -22 -61 -53 -80 -94s-29 -89 -29 -144s10 -103 29 -144s46 -72 80 -94
c34 -21 73 -32 116 -32h10z" />
    <glyph glyph-name="Obreve" unicode="&#x14e;" horiz-adv-x="758" 
d="M268 787c-30 25 -44 59 -44 103h75c1 -23 9 -41 25 -52c15 -12 34 -18 55 -18s40 6 55 18c16 11 24 29 25 52h75c0 -44 -14 -78 -44 -103c-28 -25 -66 -37 -111 -37s-83 12 -111 37zM209 34c-50 28 -89 70 -117 124c-29 55 -43 119 -43 192s14 137 43 192
c28 54 67 96 117 124c50 30 107 44 170 44s120 -14 170 -44c50 -28 89 -70 117 -124c29 -55 43 -119 43 -192s-14 -137 -43 -192c-28 -54 -67 -96 -117 -124c-50 -30 -107 -44 -170 -44s-120 14 -170 44zM384 80c43 0 82 11 116 32c34 22 61 53 80 94s29 89 29 144
s-10 103 -29 144s-46 72 -80 94c-34 21 -73 32 -116 32h-10c-43 0 -82 -11 -116 -32c-34 -22 -61 -53 -80 -94s-29 -89 -29 -144s10 -103 29 -144s46 -72 80 -94c34 -21 73 -32 116 -32h10z" />
    <glyph glyph-name="Ocircumflex" unicode="&#xd4;" horiz-adv-x="758" 
d="M468 760l-89 69l-89 -69h-80l109 130h120l109 -130h-80zM549 666c50 -28 89 -70 117 -124c29 -55 43 -119 43 -192s-14 -137 -43 -192c-28 -54 -67 -96 -117 -124c-50 -30 -107 -44 -170 -44s-120 14 -170 44c-50 28 -89 70 -117 124c-29 55 -43 119 -43 192
s14 137 43 192c28 54 67 96 117 124c50 30 107 44 170 44s120 -14 170 -44zM384 80c43 0 82 11 116 32c34 22 61 53 80 94s29 89 29 144s-10 103 -29 144s-46 72 -80 94c-34 21 -73 32 -116 32h-10c-43 0 -82 -11 -116 -32c-34 -22 -61 -53 -80 -94s-29 -89 -29 -144
s10 -103 29 -144s46 -72 80 -94c34 -21 73 -32 116 -32h10z" />
    <glyph glyph-name="Odieresis" unicode="&#xd6;" horiz-adv-x="758" 
d="M334 780h-100v100h100v-100zM524 780h-100v100h100v-100zM209 34c-50 28 -89 70 -117 124c-29 55 -43 119 -43 192s14 137 43 192c28 54 67 96 117 124c50 30 107 44 170 44s120 -14 170 -44c50 -28 89 -70 117 -124c29 -55 43 -119 43 -192s-14 -137 -43 -192
c-28 -54 -67 -96 -117 -124c-50 -30 -107 -44 -170 -44s-120 14 -170 44zM384 80c43 0 82 11 116 32c34 22 61 53 80 94s29 89 29 144s-10 103 -29 144s-46 72 -80 94c-34 21 -73 32 -116 32h-10c-43 0 -82 -11 -116 -32c-34 -22 -61 -53 -80 -94s-29 -89 -29 -144
s10 -103 29 -144s46 -72 80 -94c34 -21 73 -32 116 -32h10z" />
    <glyph glyph-name="Ograve" unicode="&#xd2;" horiz-adv-x="758" 
d="M422 760h-70l-92 130h115zM209 34c-50 28 -89 70 -117 124c-29 55 -43 119 -43 192s14 137 43 192c28 54 67 96 117 124c50 30 107 44 170 44s120 -14 170 -44c50 -28 89 -70 117 -124c29 -55 43 -119 43 -192s-14 -137 -43 -192c-28 -54 -67 -96 -117 -124
c-50 -30 -107 -44 -170 -44s-120 14 -170 44zM384 80c43 0 82 11 116 32c34 22 61 53 80 94s29 89 29 144s-10 103 -29 144s-46 72 -80 94c-34 21 -73 32 -116 32h-10c-43 0 -82 -11 -116 -32c-34 -22 -61 -53 -80 -94s-29 -89 -29 -144s10 -103 29 -144s46 -72 80 -94
c34 -21 73 -32 116 -32h10z" />
    <glyph glyph-name="Ohungarumlaut" unicode="&#x150;" horiz-adv-x="758" 
d="M336 760h-70l47 130h115zM500 760h-70l47 130h115zM209 34c-50 28 -89 70 -117 124c-29 55 -43 119 -43 192s14 137 43 192c28 54 67 96 117 124c50 30 107 44 170 44s120 -14 170 -44c50 -28 89 -70 117 -124c29 -55 43 -119 43 -192s-14 -137 -43 -192
c-28 -54 -67 -96 -117 -124c-50 -30 -107 -44 -170 -44s-120 14 -170 44zM384 80c43 0 82 11 116 32c34 22 61 53 80 94s29 89 29 144s-10 103 -29 144s-46 72 -80 94c-34 21 -73 32 -116 32h-10c-43 0 -82 -11 -116 -32c-34 -22 -61 -53 -80 -94s-29 -89 -29 -144
s10 -103 29 -144s46 -72 80 -94c34 -21 73 -32 116 -32h10z" />
    <glyph glyph-name="Omacron" unicode="&#x14c;" horiz-adv-x="758" 
d="M527 780h-296v75h296v-75zM209 34c-50 28 -89 70 -117 124c-29 55 -43 119 -43 192s14 137 43 192c28 54 67 96 117 124c50 30 107 44 170 44s120 -14 170 -44c50 -28 89 -70 117 -124c29 -55 43 -119 43 -192s-14 -137 -43 -192c-28 -54 -67 -96 -117 -124
c-50 -30 -107 -44 -170 -44s-120 14 -170 44zM384 80c43 0 82 11 116 32c34 22 61 53 80 94s29 89 29 144s-10 103 -29 144s-46 72 -80 94c-34 21 -73 32 -116 32h-10c-43 0 -82 -11 -116 -32c-34 -22 -61 -53 -80 -94s-29 -89 -29 -144s10 -103 29 -144s46 -72 80 -94
c34 -21 73 -32 116 -32h10z" />
    <glyph glyph-name="Oslash" unicode="&#xd8;" horiz-adv-x="764" 
d="M633 597c25 -31 45 -68 59 -109c13 -42 20 -88 20 -138c0 -73 -14 -137 -42 -192c-29 -54 -68 -96 -118 -124c-50 -30 -107 -44 -170 -44c-70 0 -132 18 -186 53l-62 -78l-70 55l66 84c-25 31 -44 67 -58 108c-13 42 -20 88 -20 138c0 73 14 137 42 192
c29 54 68 96 118 124c50 30 107 44 170 44c71 0 132 -18 185 -53l62 78l70 -55zM193 183l316 401c-35 24 -76 36 -122 36h-10c-43 0 -82 -11 -116 -32c-34 -22 -61 -53 -80 -94s-29 -89 -29 -144c0 -65 14 -121 41 -167zM387 80c43 0 82 11 116 32c34 22 61 53 80 94
s29 89 29 144c0 66 -14 122 -41 168l-317 -401c36 -25 77 -37 123 -37h10z" />
    <glyph glyph-name="Oslashacute" unicode="&#x1fe;" horiz-adv-x="764" 
d="M394 890h115l-92 -130h-70zM633 597c25 -31 45 -68 59 -109c13 -42 20 -88 20 -138c0 -73 -14 -137 -42 -192c-29 -54 -68 -96 -118 -124c-50 -30 -107 -44 -170 -44c-70 0 -132 18 -186 53l-62 -78l-70 55l66 84c-25 31 -44 67 -58 108c-13 42 -20 88 -20 138
c0 73 14 137 42 192c29 54 68 96 118 124c50 30 107 44 170 44c71 0 132 -18 185 -53l62 78l70 -55zM193 183l316 401c-35 24 -76 36 -122 36h-10c-43 0 -82 -11 -116 -32c-34 -22 -61 -53 -80 -94s-29 -89 -29 -144c0 -65 14 -121 41 -167zM387 80c43 0 82 11 116 32
c34 22 61 53 80 94s29 89 29 144c0 66 -14 122 -41 168l-317 -401c36 -25 77 -37 123 -37h10z" />
    <glyph glyph-name="Otilde" unicode="&#xd5;" horiz-adv-x="758" 
d="M422 764c-12 5 -28 14 -47 25l-25 15c-17 11 -33 16 -47 16c-23 0 -34 -18 -34 -55h-70v26c0 29 9 54 27 74s41 30 70 30c24 0 53 -11 88 -33l21 -13c21 -13 37 -19 49 -19c11 0 19 5 25 14s9 23 9 41h70v-26c0 -29 -9 -54 -26 -74c-18 -20 -41 -30 -69 -30
c-14 0 -27 3 -41 9zM209 34c-50 28 -89 70 -117 124c-29 55 -43 119 -43 192s14 137 43 192c28 54 67 96 117 124c50 30 107 44 170 44s120 -14 170 -44c50 -28 89 -70 117 -124c29 -55 43 -119 43 -192s-14 -137 -43 -192c-28 -54 -67 -96 -117 -124
c-50 -30 -107 -44 -170 -44s-120 14 -170 44zM384 80c43 0 82 11 116 32c34 22 61 53 80 94s29 89 29 144s-10 103 -29 144s-46 72 -80 94c-34 21 -73 32 -116 32h-10c-43 0 -82 -11 -116 -32c-34 -22 -61 -53 -80 -94s-29 -89 -29 -144s10 -103 29 -144s46 -72 80 -94
c34 -21 73 -32 116 -32h10z" />
    <glyph glyph-name="OE" unicode="&#x152;" horiz-adv-x="1171" 
d="M209 34c-50 28 -89 70 -117 124c-29 55 -43 119 -43 192s14 137 43 192c28 54 67 96 117 124c50 30 107 44 170 44c46 0 89 -8 127 -22c40 -16 74 -38 103 -67v79h510v-90h-410v-205h350v-90h-350v-225h420v-90h-520v79c-29 -29 -63 -51 -103 -67
c-38 -14 -81 -22 -127 -22c-63 0 -120 14 -170 44zM384 80c43 0 82 11 116 32c34 22 61 53 80 94s29 89 29 144s-10 103 -29 144s-46 72 -80 94c-34 21 -73 32 -116 32h-10c-43 0 -82 -11 -116 -32c-34 -22 -61 -53 -80 -94s-29 -89 -29 -144s10 -103 29 -144s46 -72 80 -94
c34 -21 73 -32 116 -32h10z" />
    <glyph glyph-name="P" unicode="P" horiz-adv-x="644" 
d="M90 0v700h295c43 0 82 -8 116 -25s61 -41 80 -73s29 -70 29 -114s-10 -82 -29 -114s-46 -56 -80 -73s-73 -25 -116 -25h-195v-276h-100zM370 366c45 0 80 10 104 31s36 51 36 91s-12 70 -36 91s-59 31 -104 31h-180v-244h180z" />
    <glyph glyph-name="Thorn" unicode="&#xde;" horiz-adv-x="656" 
d="M90 0v700h100v-138h195c43 0 82 -8 116 -25s61 -41 80 -73s29 -70 29 -114s-10 -82 -29 -114s-46 -56 -80 -73s-73 -25 -116 -25h-195v-138h-100zM370 228c45 0 80 10 104 31s36 51 36 91s-12 70 -36 91s-59 31 -104 31h-180v-244h180z" />
    <glyph glyph-name="Q" unicode="Q" horiz-adv-x="758" 
d="M428 -60c0 -15 3 -26 9 -32c6 -5 16 -8 31 -8h155v-90h-200c-28 0 -50 7 -66 22s-24 36 -24 63v98c-55 7 -105 25 -147 56c-44 31 -77 72 -101 123s-36 111 -36 178c0 73 14 137 43 192c28 54 67 96 117 124c50 30 107 44 170 44s120 -14 170 -44c50 -28 89 -70 117 -124
c29 -55 43 -119 43 -192c0 -67 -12 -126 -35 -177c-24 -51 -57 -92 -100 -123c-42 -31 -91 -50 -146 -57v-53zM178 206c19 -41 46 -72 80 -94c34 -21 73 -32 116 -32h10c43 0 82 11 116 32c34 22 61 53 80 94s29 89 29 144s-10 103 -29 144s-46 72 -80 94
c-34 21 -73 32 -116 32h-10c-43 0 -82 -11 -116 -32c-34 -22 -61 -53 -80 -94s-29 -89 -29 -144s10 -103 29 -144z" />
    <glyph glyph-name="R" unicode="R" horiz-adv-x="680" 
d="M90 0v700h300c43 0 81 -8 114 -24c33 -17 59 -40 78 -68c19 -30 28 -62 28 -98c0 -44 -11 -82 -32 -114c-22 -32 -50 -53 -83 -63c39 0 67 -7 82 -23c15 -14 23 -40 23 -75v-235h-100v210c0 27 -5 46 -14 56c-10 9 -29 14 -56 14h-240v-280h-100zM375 370
c41 0 74 12 99 36c24 23 36 53 36 89c0 37 -12 66 -36 85c-23 20 -56 30 -99 30h-185v-240h185z" />
    <glyph glyph-name="Racute" unicode="&#x154;" horiz-adv-x="680" 
d="M361 760h-70l47 130h115zM90 0v700h300c43 0 81 -8 114 -24c33 -17 59 -40 78 -68c19 -30 28 -62 28 -98c0 -44 -11 -82 -32 -114c-22 -32 -50 -53 -83 -63c39 0 67 -7 82 -23c15 -14 23 -40 23 -75v-235h-100v210c0 27 -5 46 -14 56c-10 9 -29 14 -56 14h-240v-280h-100
zM375 370c41 0 74 12 99 36c24 23 36 53 36 89c0 37 -12 66 -36 85c-23 20 -56 30 -99 30h-185v-240h185z" />
    <glyph glyph-name="Rcaron" unicode="&#x158;" horiz-adv-x="680" 
d="M495 890l-109 -130h-120l-109 130h80l89 -69l89 69h80zM577 310c15 -14 23 -40 23 -75v-235h-100v210c0 27 -5 46 -14 56c-10 9 -29 14 -56 14h-240v-280h-100v700h300c43 0 81 -8 114 -24c33 -17 59 -40 78 -68c19 -30 28 -62 28 -98c0 -44 -11 -82 -32 -114
c-22 -32 -50 -53 -83 -63c39 0 67 -7 82 -23zM375 370c41 0 74 12 99 36c24 23 36 53 36 89c0 37 -12 66 -36 85c-23 20 -56 30 -99 30h-185v-240h185z" />
    <glyph glyph-name="uni0156" unicode="&#x156;" horiz-adv-x="680" 
d="M90 0v700h300c43 0 81 -8 114 -24c33 -17 59 -40 78 -68c19 -30 28 -62 28 -98c0 -44 -11 -82 -32 -114c-22 -32 -50 -53 -83 -63c39 0 67 -7 82 -23c15 -14 23 -40 23 -75v-235h-100v210c0 27 -5 46 -14 56c-10 9 -29 14 -56 14h-240v-280h-100zM375 370
c41 0 74 12 99 36c24 23 36 53 36 89c0 37 -12 66 -36 85c-23 20 -56 30 -99 30h-185v-240h185zM284 -285v50h10c37 0 55 13 55 40v5h-45v100h95v-105c0 -26 -9 -47 -27 -65c-17 -16 -42 -25 -73 -25h-15z" />
    <glyph glyph-name="R.ss03" horiz-adv-x="678" 
d="M90 0v700h300c43 0 81 -8 114 -24c33 -17 59 -40 78 -68c19 -30 28 -62 28 -98c0 -34 -7 -64 -20 -89c-14 -25 -31 -45 -51 -60s-39 -24 -58 -28c19 0 33 -3 43 -9c9 -7 17 -16 22 -28c6 -12 14 -32 23 -61l76 -235h-105l-69 207c-7 23 -13 39 -19 48c-4 9 -12 16 -20 19
c-10 4 -23 6 -42 6h-200v-280h-100zM375 370c41 0 74 12 99 36c24 23 36 53 36 89c0 37 -12 66 -36 85c-23 20 -56 30 -99 30h-185v-240h185z" />
    <glyph glyph-name="Racute.ss03" horiz-adv-x="678" 
d="M371 760h-70l47 130h115zM90 0v700h300c43 0 81 -8 114 -24c33 -17 59 -40 78 -68c19 -30 28 -62 28 -98c0 -34 -7 -64 -20 -89c-14 -25 -31 -45 -51 -60s-39 -24 -58 -28c19 0 33 -3 43 -9c9 -7 17 -16 22 -28c6 -12 14 -32 23 -61l76 -235h-105l-69 207
c-7 23 -13 39 -19 48c-4 9 -12 16 -20 19c-10 4 -23 6 -42 6h-200v-280h-100zM375 370c41 0 74 12 99 36c24 23 36 53 36 89c0 37 -12 66 -36 85c-23 20 -56 30 -99 30h-185v-240h185z" />
    <glyph glyph-name="Rcaron.ss03" horiz-adv-x="678" 
d="M505 890l-109 -130h-120l-109 130h80l89 -69l89 69h80zM645 0h-105l-69 207c-7 23 -13 39 -19 48c-4 9 -12 16 -20 19c-10 4 -23 6 -42 6h-200v-280h-100v700h300c43 0 81 -8 114 -24c33 -17 59 -40 78 -68c19 -30 28 -62 28 -98c0 -34 -7 -64 -20 -89
c-14 -25 -31 -45 -51 -60s-39 -24 -58 -28c19 0 33 -3 43 -9c9 -7 17 -16 22 -28c6 -12 14 -32 23 -61zM375 370c41 0 74 12 99 36c24 23 36 53 36 89c0 37 -12 66 -36 85c-23 20 -56 30 -99 30h-185v-240h185z" />
    <glyph glyph-name="uni0156.ss03" horiz-adv-x="678" 
d="M90 0v700h300c43 0 81 -8 114 -24c33 -17 59 -40 78 -68c19 -30 28 -62 28 -98c0 -34 -7 -64 -20 -89c-14 -25 -31 -45 -51 -60s-39 -24 -58 -28c19 0 33 -3 43 -9c9 -7 17 -16 22 -28c6 -12 14 -32 23 -61l76 -235h-105l-69 207c-7 23 -13 39 -19 48c-4 9 -12 16 -20 19
c-10 4 -23 6 -42 6h-200v-280h-100zM375 370c41 0 74 12 99 36c24 23 36 53 36 89c0 37 -12 66 -36 85c-23 20 -56 30 -99 30h-185v-240h185zM283 -285v50h10c37 0 55 13 55 40v5h-45v100h95v-105c0 -26 -9 -47 -26 -65c-18 -16 -43 -25 -74 -25h-15z" />
    <glyph glyph-name="S" unicode="S" horiz-adv-x="626" 
d="M112 50c-48 41 -73 99 -76 175h100c0 -46 16 -82 49 -107s76 -38 130 -38h10c45 0 81 10 107 30c25 20 38 45 38 75c0 28 -9 51 -27 68s-46 30 -83 37l-112 23c-118 24 -177 90 -177 197c0 37 11 70 31 100c22 31 51 55 88 73c38 18 82 27 131 27c77 0 139 -20 185 -60
c47 -39 71 -93 74 -160h-100c-3 39 -18 71 -46 94c-29 24 -65 36 -108 36h-10c-43 0 -78 -10 -104 -31c-28 -21 -41 -47 -41 -78c0 -26 8 -47 25 -64s40 -28 71 -34l112 -22c127 -25 191 -93 191 -202c0 -41 -11 -76 -32 -106c-22 -30 -52 -53 -92 -69
c-38 -16 -84 -24 -135 -24c-84 0 -150 20 -199 60z" />
    <glyph glyph-name="Sacute" unicode="&#x15a;" horiz-adv-x="626" 
d="M349 760h-70l47 130h115zM112 50c-48 41 -73 99 -76 175h100c0 -46 16 -82 49 -107s76 -38 130 -38h10c45 0 81 10 107 30c25 20 38 45 38 75c0 28 -9 51 -27 68s-46 30 -83 37l-112 23c-118 24 -177 90 -177 197c0 37 11 70 31 100c22 31 51 55 88 73
c38 18 82 27 131 27c77 0 139 -20 185 -60c47 -39 71 -93 74 -160h-100c-3 39 -18 71 -46 94c-29 24 -65 36 -108 36h-10c-43 0 -78 -10 -104 -31c-28 -21 -41 -47 -41 -78c0 -26 8 -47 25 -64s40 -28 71 -34l112 -22c127 -25 191 -93 191 -202c0 -41 -11 -76 -32 -106
c-22 -30 -52 -53 -92 -69c-38 -16 -84 -24 -135 -24c-84 0 -150 20 -199 60z" />
    <glyph glyph-name="Scaron" unicode="&#x160;" horiz-adv-x="626" 
d="M483 890l-109 -130h-120l-109 130h80l89 -69l89 69h80zM379 391c127 -25 191 -93 191 -202c0 -41 -11 -76 -32 -106c-22 -30 -52 -53 -92 -69c-38 -16 -84 -24 -135 -24c-84 0 -150 20 -199 60c-48 41 -73 99 -76 175h100c0 -46 16 -82 49 -107s76 -38 130 -38h10
c45 0 81 10 107 30c25 20 38 45 38 75c0 28 -9 51 -27 68s-46 30 -83 37l-112 23c-118 24 -177 90 -177 197c0 37 11 70 31 100c22 31 51 55 88 73c38 18 82 27 131 27c77 0 139 -20 185 -60c47 -39 71 -93 74 -160h-100c-3 39 -18 71 -46 94c-29 24 -65 36 -108 36h-10
c-43 0 -78 -10 -104 -31c-28 -21 -41 -47 -41 -78c0 -26 8 -47 25 -64s40 -28 71 -34z" />
    <glyph glyph-name="Scedilla" unicode="&#x15e;" horiz-adv-x="626" 
d="M379 391c127 -25 191 -93 191 -202c0 -58 -21 -105 -64 -140c-42 -35 -99 -55 -171 -58v-36c27 -2 48 -11 63 -27c16 -16 24 -37 24 -63c0 -30 -11 -54 -33 -73c-22 -18 -49 -27 -82 -27h-62v65h62c33 0 50 12 50 37c0 12 -4 21 -12 28s-19 10 -34 10h-31v86
c-75 5 -133 28 -176 67c-43 40 -65 96 -68 167h100c0 -46 16 -82 49 -107s76 -38 130 -38h10c45 0 81 10 107 30c25 20 38 45 38 75c0 28 -9 51 -27 68s-46 30 -83 37l-112 23c-118 24 -177 90 -177 197c0 37 11 70 31 100c22 31 51 55 88 73c38 18 82 27 131 27
c77 0 139 -20 185 -60c47 -39 71 -93 74 -160h-100c-3 39 -18 71 -46 94c-29 24 -65 36 -108 36h-10c-43 0 -78 -10 -104 -31c-28 -21 -41 -47 -41 -78c0 -26 8 -47 25 -64s40 -28 71 -34z" />
    <glyph glyph-name="Scircumflex" unicode="&#x15c;" horiz-adv-x="626" 
d="M403 760l-89 69l-89 -69h-80l109 130h120l109 -130h-80zM379 391c127 -25 191 -93 191 -202c0 -41 -11 -76 -32 -106c-22 -30 -52 -53 -92 -69c-38 -16 -84 -24 -135 -24c-84 0 -150 20 -199 60c-48 41 -73 99 -76 175h100c0 -46 16 -82 49 -107s76 -38 130 -38h10
c45 0 81 10 107 30c25 20 38 45 38 75c0 28 -9 51 -27 68s-46 30 -83 37l-112 23c-118 24 -177 90 -177 197c0 37 11 70 31 100c22 31 51 55 88 73c38 18 82 27 131 27c77 0 139 -20 185 -60c47 -39 71 -93 74 -160h-100c-3 39 -18 71 -46 94c-29 24 -65 36 -108 36h-10
c-43 0 -78 -10 -104 -31c-28 -21 -41 -47 -41 -78c0 -26 8 -47 25 -64s40 -28 71 -34z" />
    <glyph glyph-name="uni0218" unicode="&#x218;" horiz-adv-x="626" 
d="M112 50c-48 41 -73 99 -76 175h100c0 -46 16 -82 49 -107s76 -38 130 -38h10c45 0 81 10 107 30c25 20 38 45 38 75c0 28 -9 51 -27 68s-46 30 -83 37l-112 23c-118 24 -177 90 -177 197c0 37 11 70 31 100c22 31 51 55 88 73c38 18 82 27 131 27c77 0 139 -20 185 -60
c47 -39 71 -93 74 -160h-100c-3 39 -18 71 -46 94c-29 24 -65 36 -108 36h-10c-43 0 -78 -10 -104 -31c-28 -21 -41 -47 -41 -78c0 -26 8 -47 25 -64s40 -28 71 -34l112 -22c127 -25 191 -93 191 -202c0 -41 -11 -76 -32 -106c-22 -30 -52 -53 -92 -69
c-38 -16 -84 -24 -135 -24c-84 0 -150 20 -199 60zM240 -285v50h10c37 0 55 13 55 40v5h-45v100h95v-105c0 -26 -9 -47 -27 -65c-17 -16 -42 -25 -73 -25h-15z" />
    <glyph glyph-name="uni1E9E" unicode="&#x1e9e;" horiz-adv-x="651" 
d="M90 0v700h272c37 0 70 -7 100 -22c30 -14 54 -35 72 -62c17 -27 26 -59 26 -96c0 -35 -9 -66 -28 -92s-44 -46 -75 -61c45 -11 81 -32 108 -65c27 -32 40 -71 40 -117c0 -37 -9 -70 -28 -98s-44 -49 -77 -65c-32 -14 -67 -22 -106 -22h-109v90h94c38 0 69 10 91 28
c24 20 35 47 35 82c0 34 -12 61 -35 80c-23 20 -53 30 -90 30h-95v90h55c35 0 63 10 86 30s34 47 34 80c0 31 -10 56 -31 74c-21 17 -47 26 -79 26h-160v-610h-100z" />
    <glyph glyph-name="T" unicode="T" horiz-adv-x="634" 
d="M367 0h-100v610h-250v90h600v-90h-250v-610z" />
    <glyph glyph-name="Tbar" unicode="&#x166;" horiz-adv-x="660" 
d="M630 700v-90h-250v-186h185v-90h-185v-334h-100v334h-185v90h185v186h-250v90h600z" />
    <glyph glyph-name="Tcaron" unicode="&#x164;" horiz-adv-x="634" 
d="M486 890l-109 -130h-120l-109 130h80l89 -69l89 69h80zM17 610v90h600v-90h-250v-610h-100v610h-250z" />
    <glyph glyph-name="uni0162" unicode="&#x162;" horiz-adv-x="634" 
d="M367 0h-23v-45c27 -2 48 -11 64 -27c15 -16 23 -37 23 -63c0 -30 -11 -54 -33 -73c-22 -18 -49 -27 -82 -27h-62v65h62c33 0 50 12 50 37c0 12 -4 21 -12 28s-19 10 -34 10h-31v95h-22v610h-250v90h600v-90h-250v-610z" />
    <glyph glyph-name="uni021A" unicode="&#x21a;" horiz-adv-x="634" 
d="M367 0h-100v610h-250v90h600v-90h-250v-610zM249 -285v50h10c37 0 55 13 55 40v5h-45v100h95v-105c0 -26 -9 -47 -26 -65c-18 -16 -43 -25 -74 -25h-15z" />
    <glyph glyph-name="U" unicode="U" horiz-adv-x="698" 
d="M151 60c-45 47 -67 110 -67 190v450h100v-440c0 -58 14 -102 41 -134c27 -30 67 -46 119 -46h10c52 0 92 16 119 46c27 32 41 76 41 134v440h100v-450c0 -79 -23 -142 -68 -190c-46 -46 -112 -70 -197 -70c-87 0 -153 23 -198 70z" />
    <glyph glyph-name="Uacute" unicode="&#xda;" horiz-adv-x="698" 
d="M384 760h-70l47 130h115zM151 60c-45 47 -67 110 -67 190v450h100v-440c0 -58 14 -102 41 -134c27 -30 67 -46 119 -46h10c52 0 92 16 119 46c27 32 41 76 41 134v440h100v-450c0 -79 -23 -142 -68 -190c-46 -46 -112 -70 -197 -70c-87 0 -153 23 -198 70z" />
    <glyph glyph-name="Ubreve" unicode="&#x16c;" horiz-adv-x="698" 
d="M238 787c-30 25 -44 59 -44 103h75c1 -23 9 -41 25 -52c15 -12 34 -18 55 -18s40 6 55 18c16 11 24 29 25 52h75c0 -44 -14 -78 -44 -103c-28 -25 -66 -37 -111 -37s-83 12 -111 37zM151 60c-45 47 -67 110 -67 190v450h100v-440c0 -58 14 -102 41 -134
c27 -30 67 -46 119 -46h10c52 0 92 16 119 46c27 32 41 76 41 134v440h100v-450c0 -79 -23 -142 -68 -190c-46 -46 -112 -70 -197 -70c-87 0 -153 23 -198 70z" />
    <glyph glyph-name="Ucircumflex" unicode="&#xdb;" horiz-adv-x="698" 
d="M438 760l-89 69l-89 -69h-80l109 130h120l109 -130h-80zM514 700h100v-450c0 -79 -23 -142 -68 -190c-46 -46 -112 -70 -197 -70c-87 0 -153 23 -198 70s-67 110 -67 190v450h100v-440c0 -58 14 -102 41 -134c27 -30 67 -46 119 -46h10c52 0 92 16 119 46
c27 32 41 76 41 134v440z" />
    <glyph glyph-name="Udieresis" unicode="&#xdc;" horiz-adv-x="698" 
d="M304 780h-100v100h100v-100zM494 780h-100v100h100v-100zM151 60c-45 47 -67 110 -67 190v450h100v-440c0 -58 14 -102 41 -134c27 -30 67 -46 119 -46h10c52 0 92 16 119 46c27 32 41 76 41 134v440h100v-450c0 -79 -23 -142 -68 -190c-46 -46 -112 -70 -197 -70
c-87 0 -153 23 -198 70z" />
    <glyph glyph-name="Ugrave" unicode="&#xd9;" horiz-adv-x="698" 
d="M392 760h-70l-92 130h115zM151 60c-45 47 -67 110 -67 190v450h100v-440c0 -58 14 -102 41 -134c27 -30 67 -46 119 -46h10c52 0 92 16 119 46c27 32 41 76 41 134v440h100v-450c0 -79 -23 -142 -68 -190c-46 -46 -112 -70 -197 -70c-87 0 -153 23 -198 70z" />
    <glyph glyph-name="Uhungarumlaut" unicode="&#x170;" horiz-adv-x="698" 
d="M306 760h-70l47 130h115zM470 760h-70l47 130h115zM151 60c-45 47 -67 110 -67 190v450h100v-440c0 -58 14 -102 41 -134c27 -30 67 -46 119 -46h10c52 0 92 16 119 46c27 32 41 76 41 134v440h100v-450c0 -79 -23 -142 -68 -190c-46 -46 -112 -70 -197 -70
c-87 0 -153 23 -198 70z" />
    <glyph glyph-name="Umacron" unicode="&#x16a;" horiz-adv-x="698" 
d="M497 780h-296v75h296v-75zM151 60c-45 47 -67 110 -67 190v450h100v-440c0 -58 14 -102 41 -134c27 -30 67 -46 119 -46h10c52 0 92 16 119 46c27 32 41 76 41 134v440h100v-450c0 -79 -23 -142 -68 -190c-46 -46 -112 -70 -197 -70c-87 0 -153 23 -198 70z" />
    <glyph glyph-name="Uogonek" unicode="&#x172;" horiz-adv-x="698" 
d="M514 700h100v-450c0 -65 -15 -119 -46 -163s-75 -73 -133 -87c-27 -17 -47 -33 -63 -48c-14 -16 -22 -33 -22 -52c0 -27 22 -40 65 -40h15v-65h-34c-35 0 -63 8 -82 24s-29 36 -29 61c0 42 23 79 69 110h-5c-87 0 -153 23 -198 70s-67 110 -67 190v450h100v-440
c0 -58 14 -102 41 -134c27 -30 67 -46 119 -46h10c52 0 92 16 119 46c27 32 41 76 41 134v440z" />
    <glyph glyph-name="Uring" unicode="&#x16e;" horiz-adv-x="698" 
d="M286 776c-18 16 -27 37 -27 62s9 46 27 62c18 18 39 26 63 26s45 -8 63 -26c18 -16 27 -37 27 -62s-9 -46 -27 -62c-18 -18 -39 -26 -63 -26s-45 8 -63 26zM372 814c7 7 10 15 10 24s-3 17 -10 24c-6 7 -13 10 -22 10s-16 -3 -24 -10c-6 -7 -10 -15 -10 -24s4 -16 10 -24
c8 -6 15 -10 24 -10s16 3 22 10zM151 60c-45 47 -67 110 -67 190v450h100v-440c0 -58 14 -102 41 -134c27 -30 67 -46 119 -46h10c52 0 92 16 119 46c27 32 41 76 41 134v440h100v-450c0 -79 -23 -142 -68 -190c-46 -46 -112 -70 -197 -70c-87 0 -153 23 -198 70z" />
    <glyph glyph-name="Utilde" unicode="&#x168;" horiz-adv-x="698" 
d="M392 764c-12 5 -28 14 -47 25l-25 15c-17 11 -33 16 -47 16c-23 0 -34 -18 -34 -55h-70v26c0 29 9 54 27 74s41 30 70 30c24 0 53 -11 88 -33l21 -13c21 -13 37 -19 49 -19c11 0 19 5 25 14s9 23 9 41h70v-26c0 -29 -9 -54 -26 -74c-18 -20 -41 -30 -69 -30
c-14 0 -27 3 -41 9zM151 60c-45 47 -67 110 -67 190v450h100v-440c0 -58 14 -102 41 -134c27 -30 67 -46 119 -46h10c52 0 92 16 119 46c27 32 41 76 41 134v440h100v-450c0 -79 -23 -142 -68 -190c-46 -46 -112 -70 -197 -70c-87 0 -153 23 -198 70z" />
    <glyph glyph-name="V" unicode="V" horiz-adv-x="699" 
d="M354 91l232 609h105l-275 -700h-130l-280 700h106z" />
    <glyph glyph-name="W" unicode="W" horiz-adv-x="936" 
d="M677 104l132 596h104l-170 -700h-135l-140 585l-140 -585h-135l-170 700h104l137 -591l143 591h131z" />
    <glyph glyph-name="Wacute" unicode="&#x1e82;" horiz-adv-x="936" 
d="M485 890h115l-92 -130h-70zM677 104l132 596h104l-170 -700h-135l-140 585l-140 -585h-135l-170 700h104l137 -591l143 591h131z" />
    <glyph glyph-name="Wcircumflex" unicode="&#x174;" horiz-adv-x="936" 
d="M562 760l-89 69l-89 -69h-80l109 130h120l109 -130h-80zM677 104l132 596h104l-170 -700h-135l-140 585l-140 -585h-135l-170 700h104l137 -591l143 591h131z" />
    <glyph glyph-name="Wdieresis" unicode="&#x1e84;" horiz-adv-x="936" 
d="M328 880h100v-100h-100v100zM518 880h100v-100h-100v100zM677 104l132 596h104l-170 -700h-135l-140 585l-140 -585h-135l-170 700h104l137 -591l143 591h131z" />
    <glyph glyph-name="Wgrave" unicode="&#x1e80;" horiz-adv-x="936" 
d="M469 890l47 -130h-70l-92 130h115zM677 104l132 596h104l-170 -700h-135l-140 585l-140 -585h-135l-170 700h104l137 -591l143 591h131z" />
    <glyph glyph-name="X" unicode="X" horiz-adv-x="635" 
d="M376 360l252 -360h-117l-194 277l-196 -277h-115l254 359l-239 341h117l181 -258l182 258h115z" />
    <glyph glyph-name="Y" unicode="Y" horiz-adv-x="612" 
d="M356 0h-100v290l-250 410h116l187 -309l185 309h112l-250 -410v-290z" />
    <glyph glyph-name="Yacute" unicode="&#xdd;" horiz-adv-x="612" 
d="M341 760h-70l47 130h115zM356 0h-100v290l-250 410h116l187 -309l185 309h112l-250 -410v-290z" />
    <glyph glyph-name="Ycircumflex" unicode="&#x176;" horiz-adv-x="612" 
d="M395 760l-89 69l-89 -69h-80l109 130h120l109 -130h-80zM309 391l185 309h112l-250 -410v-290h-100v290l-250 410h116z" />
    <glyph glyph-name="Ydieresis" unicode="&#x178;" horiz-adv-x="612" 
d="M261 780h-100v100h100v-100zM451 780h-100v100h100v-100zM356 0h-100v290l-250 410h116l187 -309l185 309h112l-250 -410v-290z" />
    <glyph glyph-name="Ygrave" unicode="&#x1ef2;" horiz-adv-x="612" 
d="M349 760h-70l-92 130h115zM356 0h-100v290l-250 410h116l187 -309l185 309h112l-250 -410v-290z" />
    <glyph glyph-name="uni0232" unicode="&#x232;" horiz-adv-x="612" 
d="M454 780h-296v75h296v-75zM356 0h-100v290l-250 410h116l187 -309l185 309h112l-250 -410v-290z" />
    <glyph glyph-name="Z" unicode="Z" horiz-adv-x="615" 
d="M575 0h-535v89l410 521h-400v90h515v-89l-410 -521h420v-90z" />
    <glyph glyph-name="Zacute" unicode="&#x179;" horiz-adv-x="615" 
d="M343 760h-70l47 130h115zM575 0h-535v89l410 521h-400v90h515v-89l-410 -521h420v-90z" />
    <glyph glyph-name="Zcaron" unicode="&#x17d;" horiz-adv-x="615" 
d="M477 890l-109 -130h-120l-109 130h80l89 -69l89 69h80zM565 611l-410 -521h420v-90h-535v89l410 521h-400v90h515v-89z" />
    <glyph glyph-name="Zdotaccent" unicode="&#x17b;" horiz-adv-x="615" 
d="M360 780h-105v110h105v-110zM575 0h-535v89l410 521h-400v90h515v-89l-410 -521h420v-90z" />
    <glyph glyph-name="a" unicode="a" horiz-adv-x="530" 
d="M126 9c-26 13 -45 30 -60 53c-14 23 -21 48 -21 76c0 51 18 89 53 113c36 24 79 38 129 42l138 11v16c0 35 -9 62 -28 81s-44 29 -76 29h-8c-27 0 -51 -6 -70 -20c-19 -12 -30 -31 -33 -55h-95c3 46 23 83 61 112c37 29 84 43 141 43c43 0 79 -8 110 -26
c31 -16 54 -40 69 -68c16 -30 24 -61 24 -96v-210c0 -50 2 -87 5 -110h-90c-3 17 -5 43 -5 80c-11 -25 -30 -46 -60 -64c-28 -17 -62 -26 -100 -26c-31 0 -60 6 -84 19zM229 70c21 0 41 5 63 15c20 10 38 23 52 41c14 16 21 35 21 54v51l-125 -10c-30 -3 -54 -11 -72 -25
c-19 -13 -28 -31 -28 -54c0 -21 8 -38 23 -52c15 -13 35 -20 58 -20h8z" />
    <glyph glyph-name="aacute" unicode="&#xe1;" horiz-adv-x="530" 
d="M291 565h-65l55 135h100zM126 9c-26 13 -45 30 -60 53c-14 23 -21 48 -21 76c0 51 18 89 53 113c36 24 79 38 129 42l138 11v16c0 35 -9 62 -28 81s-44 29 -76 29h-8c-27 0 -51 -6 -70 -20c-19 -12 -30 -31 -33 -55h-95c3 46 23 83 61 112c37 29 84 43 141 43
c43 0 79 -8 110 -26c31 -16 54 -40 69 -68c16 -30 24 -61 24 -96v-210c0 -50 2 -87 5 -110h-90c-3 17 -5 43 -5 80c-11 -25 -30 -46 -60 -64c-28 -17 -62 -26 -100 -26c-31 0 -60 6 -84 19zM229 70c21 0 41 5 63 15c20 10 38 23 52 41c14 16 21 35 21 54v51l-125 -10
c-30 -3 -54 -11 -72 -25c-19 -13 -28 -31 -28 -54c0 -21 8 -38 23 -52c15 -13 35 -20 58 -20h8z" />
    <glyph glyph-name="abreve" unicode="&#x103;" horiz-adv-x="530" 
d="M154 592c-27 25 -42 61 -45 108h70c3 -28 11 -48 25 -61c15 -13 33 -19 55 -19s40 6 55 19c14 13 22 33 25 61h70c-3 -47 -18 -82 -47 -108c-29 -24 -63 -37 -103 -37c-42 0 -77 12 -105 37zM126 9c-26 13 -45 30 -60 53c-14 23 -21 48 -21 76c0 51 18 89 53 113
c36 24 79 38 129 42l138 11v16c0 35 -9 62 -28 81s-44 29 -76 29h-8c-27 0 -51 -6 -70 -20c-19 -12 -30 -31 -33 -55h-95c3 46 23 83 61 112c37 29 84 43 141 43c43 0 79 -8 110 -26c31 -16 54 -40 69 -68c16 -30 24 -61 24 -96v-210c0 -50 2 -87 5 -110h-90
c-3 17 -5 43 -5 80c-11 -25 -30 -46 -60 -64c-28 -17 -62 -26 -100 -26c-31 0 -60 6 -84 19zM229 70c21 0 41 5 63 15c20 10 38 23 52 41c14 16 21 35 21 54v51l-125 -10c-30 -3 -54 -11 -72 -25c-19 -13 -28 -31 -28 -54c0 -21 8 -38 23 -52c15 -13 35 -20 58 -20h8z" />
    <glyph glyph-name="acircumflex" unicode="&#xe2;" horiz-adv-x="530" 
d="M359 565l-99 75l-101 -75h-70l120 135h100l120 -135h-70zM375 0c-3 17 -5 43 -5 80c-11 -25 -30 -46 -60 -64c-28 -17 -62 -26 -100 -26c-31 0 -60 6 -84 19c-26 13 -45 30 -60 53c-14 23 -21 48 -21 76c0 51 18 89 53 113c36 24 79 38 129 42l138 11v16
c0 35 -9 62 -28 81s-44 29 -76 29h-8c-27 0 -51 -6 -70 -20c-19 -12 -30 -31 -33 -55h-95c3 46 23 83 61 112c37 29 84 43 141 43c43 0 79 -8 110 -26c31 -16 54 -40 69 -68c16 -30 24 -61 24 -96v-210c0 -50 2 -87 5 -110h-90zM365 231l-125 -10c-30 -3 -54 -11 -72 -25
c-19 -13 -28 -31 -28 -54c0 -21 8 -38 23 -52c15 -13 35 -20 58 -20h8c21 0 41 5 63 15c20 10 38 23 52 41c14 16 21 35 21 54v51z" />
    <glyph glyph-name="adieresis" unicode="&#xe4;" horiz-adv-x="530" 
d="M214 590h-100v105h100v-105zM404 590h-100v105h100v-105zM126 9c-26 13 -45 30 -60 53c-14 23 -21 48 -21 76c0 51 18 89 53 113c36 24 79 38 129 42l138 11v16c0 35 -9 62 -28 81s-44 29 -76 29h-8c-27 0 -51 -6 -70 -20c-19 -12 -30 -31 -33 -55h-95c3 46 23 83 61 112
c37 29 84 43 141 43c43 0 79 -8 110 -26c31 -16 54 -40 69 -68c16 -30 24 -61 24 -96v-210c0 -50 2 -87 5 -110h-90c-3 17 -5 43 -5 80c-11 -25 -30 -46 -60 -64c-28 -17 -62 -26 -100 -26c-31 0 -60 6 -84 19zM229 70c21 0 41 5 63 15c20 10 38 23 52 41c14 16 21 35 21 54
v51l-125 -10c-30 -3 -54 -11 -72 -25c-19 -13 -28 -31 -28 -54c0 -21 8 -38 23 -52c15 -13 35 -20 58 -20h8z" />
    <glyph glyph-name="uni0227" unicode="&#x227;" horiz-adv-x="530" 
d="M311 590h-105v110h105v-110zM126 9c-26 13 -45 30 -60 53c-14 23 -21 48 -21 76c0 51 18 89 53 113c36 24 79 38 129 42l138 11v16c0 35 -9 62 -28 81s-44 29 -76 29h-8c-27 0 -51 -6 -70 -20c-19 -12 -30 -31 -33 -55h-95c3 46 23 83 61 112c37 29 84 43 141 43
c43 0 79 -8 110 -26c31 -16 54 -40 69 -68c16 -30 24 -61 24 -96v-210c0 -50 2 -87 5 -110h-90c-3 17 -5 43 -5 80c-11 -25 -30 -46 -60 -64c-28 -17 -62 -26 -100 -26c-31 0 -60 6 -84 19zM229 70c21 0 41 5 63 15c20 10 38 23 52 41c14 16 21 35 21 54v51l-125 -10
c-30 -3 -54 -11 -72 -25c-19 -13 -28 -31 -28 -54c0 -21 8 -38 23 -52c15 -13 35 -20 58 -20h8z" />
    <glyph glyph-name="agrave" unicode="&#xe0;" horiz-adv-x="530" 
d="M291 565h-65l-90 135h100zM126 9c-26 13 -45 30 -60 53c-14 23 -21 48 -21 76c0 51 18 89 53 113c36 24 79 38 129 42l138 11v16c0 35 -9 62 -28 81s-44 29 -76 29h-8c-27 0 -51 -6 -70 -20c-19 -12 -30 -31 -33 -55h-95c3 46 23 83 61 112c37 29 84 43 141 43
c43 0 79 -8 110 -26c31 -16 54 -40 69 -68c16 -30 24 -61 24 -96v-210c0 -50 2 -87 5 -110h-90c-3 17 -5 43 -5 80c-11 -25 -30 -46 -60 -64c-28 -17 -62 -26 -100 -26c-31 0 -60 6 -84 19zM229 70c21 0 41 5 63 15c20 10 38 23 52 41c14 16 21 35 21 54v51l-125 -10
c-30 -3 -54 -11 -72 -25c-19 -13 -28 -31 -28 -54c0 -21 8 -38 23 -52c15 -13 35 -20 58 -20h8z" />
    <glyph glyph-name="amacron" unicode="&#x101;" horiz-adv-x="530" 
d="M401 590h-285v75h285v-75zM126 9c-26 13 -45 30 -60 53c-14 23 -21 48 -21 76c0 51 18 89 53 113c36 24 79 38 129 42l138 11v16c0 35 -9 62 -28 81s-44 29 -76 29h-8c-27 0 -51 -6 -70 -20c-19 -12 -30 -31 -33 -55h-95c3 46 23 83 61 112c37 29 84 43 141 43
c43 0 79 -8 110 -26c31 -16 54 -40 69 -68c16 -30 24 -61 24 -96v-210c0 -50 2 -87 5 -110h-90c-3 17 -5 43 -5 80c-11 -25 -30 -46 -60 -64c-28 -17 -62 -26 -100 -26c-31 0 -60 6 -84 19zM229 70c21 0 41 5 63 15c20 10 38 23 52 41c14 16 21 35 21 54v51l-125 -10
c-30 -3 -54 -11 -72 -25c-19 -13 -28 -31 -28 -54c0 -21 8 -38 23 -52c15 -13 35 -20 58 -20h8z" />
    <glyph glyph-name="aogonek" unicode="&#x105;" horiz-adv-x="530" 
d="M445 -140h15v-65h-34c-35 0 -63 8 -82 24s-29 36 -29 61c0 27 8 50 25 70c17 21 37 37 60 50h-25c-3 17 -5 43 -5 80c-11 -25 -30 -46 -60 -64c-28 -17 -62 -26 -100 -26c-31 0 -60 6 -84 19c-26 13 -45 30 -60 53c-14 23 -21 48 -21 76c0 51 18 89 53 113
c36 24 79 38 129 42l138 11v16c0 35 -9 62 -28 81s-44 29 -76 29h-8c-27 0 -51 -6 -70 -20c-19 -12 -30 -31 -33 -55h-95c3 46 23 83 61 112c37 29 84 43 141 43c43 0 79 -8 110 -26c31 -16 54 -40 69 -68c16 -30 24 -61 24 -96v-210c0 -50 2 -87 5 -110
c-27 -17 -47 -33 -63 -48c-14 -16 -22 -33 -22 -52c0 -27 22 -40 65 -40zM365 231l-125 -10c-30 -3 -54 -11 -72 -25c-19 -13 -28 -31 -28 -54c0 -21 8 -38 23 -52c15 -13 35 -20 58 -20h8c21 0 41 5 63 15c20 10 38 23 52 41c14 16 21 35 21 54v51z" />
    <glyph glyph-name="aring" unicode="&#xe5;" horiz-adv-x="530" 
d="M192 582c-20 18 -29 40 -29 67s9 49 29 67c18 18 41 27 66 27s48 -9 67 -27s29 -40 29 -67s-10 -49 -29 -67s-42 -27 -67 -27s-48 9 -66 27zM290 618c8 9 12 19 12 31s-4 22 -12 31c-9 9 -19 13 -31 13s-22 -4 -31 -13s-13 -19 -13 -31s4 -22 13 -31s19 -13 31 -13
s22 4 31 13zM126 9c-26 13 -45 30 -60 53c-14 23 -21 48 -21 76c0 51 18 89 53 113c36 24 79 38 129 42l138 11v16c0 35 -9 62 -28 81s-44 29 -76 29h-8c-27 0 -51 -6 -70 -20c-19 -12 -30 -31 -33 -55h-95c3 46 23 83 61 112c37 29 84 43 141 43c43 0 79 -8 110 -26
c31 -16 54 -40 69 -68c16 -30 24 -61 24 -96v-210c0 -50 2 -87 5 -110h-90c-3 17 -5 43 -5 80c-11 -25 -30 -46 -60 -64c-28 -17 -62 -26 -100 -26c-31 0 -60 6 -84 19zM229 70c21 0 41 5 63 15c20 10 38 23 52 41c14 16 21 35 21 54v51l-125 -10c-30 -3 -54 -11 -72 -25
c-19 -13 -28 -31 -28 -54c0 -21 8 -38 23 -52c15 -13 35 -20 58 -20h8z" />
    <glyph glyph-name="atilde" unicode="&#xe3;" horiz-adv-x="530" 
d="M302 564c-12 5 -28 14 -47 25l-25 15c-17 11 -33 16 -47 16c-23 0 -34 -18 -34 -55h-70v26c0 29 9 54 27 74s41 30 70 30c24 0 53 -11 88 -33l21 -13c21 -13 37 -19 49 -19c11 0 19 5 25 14s9 23 9 41h70v-26c0 -29 -9 -54 -26 -74c-18 -20 -41 -30 -69 -30
c-14 0 -27 3 -41 9zM126 9c-26 13 -45 30 -60 53c-14 23 -21 48 -21 76c0 51 18 89 53 113c36 24 79 38 129 42l138 11v16c0 35 -9 62 -28 81s-44 29 -76 29h-8c-27 0 -51 -6 -70 -20c-19 -12 -30 -31 -33 -55h-95c3 46 23 83 61 112c37 29 84 43 141 43c43 0 79 -8 110 -26
c31 -16 54 -40 69 -68c16 -30 24 -61 24 -96v-210c0 -50 2 -87 5 -110h-90c-3 17 -5 43 -5 80c-11 -25 -30 -46 -60 -64c-28 -17 -62 -26 -100 -26c-31 0 -60 6 -84 19zM229 70c21 0 41 5 63 15c20 10 38 23 52 41c14 16 21 35 21 54v51l-125 -10c-30 -3 -54 -11 -72 -25
c-19 -13 -28 -31 -28 -54c0 -21 8 -38 23 -52c15 -13 35 -20 58 -20h8z" />
    <glyph glyph-name="a.ss01" horiz-adv-x="596" 
d="M153 21c-33 21 -59 51 -79 90c-18 39 -28 86 -28 139s10 100 28 139c20 39 46 69 79 90s71 31 113 31c39 0 72 -7 97 -21s46 -34 63 -59v70h95v-500h-95v70c-17 -25 -38 -45 -63 -59s-58 -21 -97 -21c-42 0 -80 10 -113 31zM286 70c24 0 47 7 68 20c21 14 39 35 52 62
s20 60 20 98s-7 71 -20 98s-31 48 -52 62c-21 13 -44 20 -68 20h-10c-39 0 -72 -16 -97 -46c-25 -32 -38 -76 -38 -134s13 -102 38 -134c25 -30 58 -46 97 -46h10z" />
    <glyph glyph-name="aacute.ss01" horiz-adv-x="596" 
d="M328 565h-65l55 135h100zM153 21c-33 21 -59 51 -79 90c-18 39 -28 86 -28 139s10 100 28 139c20 39 46 69 79 90s71 31 113 31c39 0 72 -7 97 -21s46 -34 63 -59v70h95v-500h-95v70c-17 -25 -38 -45 -63 -59s-58 -21 -97 -21c-42 0 -80 10 -113 31zM286 70
c24 0 47 7 68 20c21 14 39 35 52 62s20 60 20 98s-7 71 -20 98s-31 48 -52 62c-21 13 -44 20 -68 20h-10c-39 0 -72 -16 -97 -46c-25 -32 -38 -76 -38 -134s13 -102 38 -134c25 -30 58 -46 97 -46h10z" />
    <glyph glyph-name="abreve.ss01" horiz-adv-x="596" 
d="M192 592c-28 25 -43 61 -46 108h70c3 -28 11 -48 26 -61c14 -13 32 -19 54 -19s40 6 54 19c15 13 23 33 26 61h70c-3 -47 -18 -82 -47 -108c-29 -24 -63 -37 -103 -37c-42 0 -77 12 -104 37zM153 21c-33 21 -59 51 -79 90c-18 39 -28 86 -28 139s10 100 28 139
c20 39 46 69 79 90s71 31 113 31c39 0 72 -7 97 -21s46 -34 63 -59v70h95v-500h-95v70c-17 -25 -38 -45 -63 -59s-58 -21 -97 -21c-42 0 -80 10 -113 31zM286 70c24 0 47 7 68 20c21 14 39 35 52 62s20 60 20 98s-7 71 -20 98s-31 48 -52 62c-21 13 -44 20 -68 20h-10
c-39 0 -72 -16 -97 -46c-25 -32 -38 -76 -38 -134s13 -102 38 -134c25 -30 58 -46 97 -46h10z" />
    <glyph glyph-name="acircumflex.ss01" horiz-adv-x="596" 
d="M396 565l-99 75l-101 -75h-70l120 135h100l120 -135h-70zM426 500h95v-500h-95v70c-17 -25 -38 -45 -63 -59s-58 -21 -97 -21c-42 0 -80 10 -113 31s-59 51 -79 90c-18 39 -28 86 -28 139s10 100 28 139c20 39 46 69 79 90s71 31 113 31c39 0 72 -7 97 -21s46 -34 63 -59
v70zM286 70c24 0 47 7 68 20c21 14 39 35 52 62s20 60 20 98s-7 71 -20 98s-31 48 -52 62c-21 13 -44 20 -68 20h-10c-39 0 -72 -16 -97 -46c-25 -32 -38 -76 -38 -134s13 -102 38 -134c25 -30 58 -46 97 -46h10z" />
    <glyph glyph-name="adieresis.ss01" horiz-adv-x="596" 
d="M251 590h-100v105h100v-105zM441 590h-100v105h100v-105zM153 21c-33 21 -59 51 -79 90c-18 39 -28 86 -28 139s10 100 28 139c20 39 46 69 79 90s71 31 113 31c39 0 72 -7 97 -21s46 -34 63 -59v70h95v-500h-95v70c-17 -25 -38 -45 -63 -59s-58 -21 -97 -21
c-42 0 -80 10 -113 31zM286 70c24 0 47 7 68 20c21 14 39 35 52 62s20 60 20 98s-7 71 -20 98s-31 48 -52 62c-21 13 -44 20 -68 20h-10c-39 0 -72 -16 -97 -46c-25 -32 -38 -76 -38 -134s13 -102 38 -134c25 -30 58 -46 97 -46h10z" />
    <glyph glyph-name="uni0227.ss01" horiz-adv-x="596" 
d="M348 590h-105v110h105v-110zM153 21c-33 21 -59 51 -79 90c-18 39 -28 86 -28 139s10 100 28 139c20 39 46 69 79 90s71 31 113 31c39 0 72 -7 97 -21s46 -34 63 -59v70h95v-500h-95v70c-17 -25 -38 -45 -63 -59s-58 -21 -97 -21c-42 0 -80 10 -113 31zM286 70
c24 0 47 7 68 20c21 14 39 35 52 62s20 60 20 98s-7 71 -20 98s-31 48 -52 62c-21 13 -44 20 -68 20h-10c-39 0 -72 -16 -97 -46c-25 -32 -38 -76 -38 -134s13 -102 38 -134c25 -30 58 -46 97 -46h10z" />
    <glyph glyph-name="agrave.ss01" horiz-adv-x="596" 
d="M328 565h-65l-90 135h100zM153 21c-33 21 -59 51 -79 90c-18 39 -28 86 -28 139s10 100 28 139c20 39 46 69 79 90s71 31 113 31c39 0 72 -7 97 -21s46 -34 63 -59v70h95v-500h-95v70c-17 -25 -38 -45 -63 -59s-58 -21 -97 -21c-42 0 -80 10 -113 31zM286 70
c24 0 47 7 68 20c21 14 39 35 52 62s20 60 20 98s-7 71 -20 98s-31 48 -52 62c-21 13 -44 20 -68 20h-10c-39 0 -72 -16 -97 -46c-25 -32 -38 -76 -38 -134s13 -102 38 -134c25 -30 58 -46 97 -46h10z" />
    <glyph glyph-name="amacron.ss01" horiz-adv-x="596" 
d="M438 590h-285v75h285v-75zM153 21c-33 21 -59 51 -79 90c-18 39 -28 86 -28 139s10 100 28 139c20 39 46 69 79 90s71 31 113 31c39 0 72 -7 97 -21s46 -34 63 -59v70h95v-500h-95v70c-17 -25 -38 -45 -63 -59s-58 -21 -97 -21c-42 0 -80 10 -113 31zM286 70
c24 0 47 7 68 20c21 14 39 35 52 62s20 60 20 98s-7 71 -20 98s-31 48 -52 62c-21 13 -44 20 -68 20h-10c-39 0 -72 -16 -97 -46c-25 -32 -38 -76 -38 -134s13 -102 38 -134c25 -30 58 -46 97 -46h10z" />
    <glyph glyph-name="aogonek.ss01" horiz-adv-x="596" 
d="M521 0c-27 -17 -47 -33 -63 -48c-14 -16 -22 -33 -22 -52c0 -27 22 -40 65 -40h15v-65h-34c-35 0 -63 8 -82 24s-29 36 -29 61c0 27 8 50 25 70c17 21 37 37 60 50h-30v70c-17 -25 -38 -45 -63 -59s-58 -21 -97 -21c-42 0 -80 10 -113 31s-59 51 -79 90
c-18 39 -28 86 -28 139s10 100 28 139c20 39 46 69 79 90s71 31 113 31c39 0 72 -7 97 -21s46 -34 63 -59v70h95v-500zM286 70c24 0 47 7 68 20c21 14 39 35 52 62s20 60 20 98s-7 71 -20 98s-31 48 -52 62c-21 13 -44 20 -68 20h-10c-39 0 -72 -16 -97 -46
c-25 -32 -38 -76 -38 -134s13 -102 38 -134c25 -30 58 -46 97 -46h10z" />
    <glyph glyph-name="aring.ss01" horiz-adv-x="596" 
d="M228 582c-18 18 -28 40 -28 67s10 49 28 67c20 18 42 27 67 27s48 -9 67 -27s29 -40 29 -67s-10 -49 -29 -67s-42 -27 -67 -27s-47 9 -67 27zM326 618c9 9 13 19 13 31s-4 22 -13 31c-8 9 -18 13 -30 13s-22 -4 -31 -13s-13 -19 -13 -31s4 -22 13 -31s19 -13 31 -13
s22 4 30 13zM153 21c-33 21 -59 51 -79 90c-18 39 -28 86 -28 139s10 100 28 139c20 39 46 69 79 90s71 31 113 31c39 0 72 -7 97 -21s46 -34 63 -59v70h95v-500h-95v70c-17 -25 -38 -45 -63 -59s-58 -21 -97 -21c-42 0 -80 10 -113 31zM286 70c24 0 47 7 68 20
c21 14 39 35 52 62s20 60 20 98s-7 71 -20 98s-31 48 -52 62c-21 13 -44 20 -68 20h-10c-39 0 -72 -16 -97 -46c-25 -32 -38 -76 -38 -134s13 -102 38 -134c25 -30 58 -46 97 -46h10z" />
    <glyph glyph-name="atilde.ss01" horiz-adv-x="596" 
d="M340 564c-14 5 -29 14 -48 25l-25 15c-17 11 -33 16 -47 16c-23 0 -34 -18 -34 -55h-70v26c0 29 9 54 27 74s41 30 70 30c24 0 53 -11 88 -33l21 -13c21 -13 37 -19 49 -19c11 0 19 5 25 14s9 23 9 41h70v-26c0 -29 -9 -54 -27 -74c-17 -20 -40 -30 -68 -30
c-14 0 -28 3 -40 9zM153 21c-33 21 -59 51 -79 90c-18 39 -28 86 -28 139s10 100 28 139c20 39 46 69 79 90s71 31 113 31c39 0 72 -7 97 -21s46 -34 63 -59v70h95v-500h-95v70c-17 -25 -38 -45 -63 -59s-58 -21 -97 -21c-42 0 -80 10 -113 31zM286 70c24 0 47 7 68 20
c21 14 39 35 52 62s20 60 20 98s-7 71 -20 98s-31 48 -52 62c-21 13 -44 20 -68 20h-10c-39 0 -72 -16 -97 -46c-25 -32 -38 -76 -38 -134s13 -102 38 -134c25 -30 58 -46 97 -46h10z" />
    <glyph glyph-name="ae" unicode="&#xe6;" horiz-adv-x="858" 
d="M126 9c-26 13 -45 30 -60 53c-14 23 -21 48 -21 76c0 51 18 89 54 112c36 24 79 38 129 43l137 11v16c0 35 -9 62 -28 81s-44 29 -77 29h-5c-28 0 -52 -6 -71 -20c-20 -12 -31 -31 -34 -55h-95c3 46 23 83 61 112c37 29 84 43 141 43c37 0 70 -7 99 -20s53 -32 70 -57
c21 25 47 45 77 57c30 14 62 20 95 20c43 0 80 -9 112 -28c32 -18 57 -44 74 -77s26 -72 26 -115v-55h-350c2 -36 10 -66 24 -91s32 -43 52 -56c22 -12 43 -18 64 -18h8c26 0 49 7 69 20s32 33 37 58h95c-8 -50 -31 -89 -69 -116c-39 -28 -85 -42 -139 -42
c-41 0 -79 9 -115 28c-34 18 -62 45 -83 80c-20 -35 -47 -61 -81 -80c-33 -19 -71 -28 -112 -28c-31 0 -60 6 -84 19zM715 310c-2 41 -13 71 -35 90c-20 20 -47 30 -78 30h-8c-29 0 -56 -10 -80 -29c-23 -19 -39 -50 -48 -91h249zM230 70c20 0 40 5 62 15c20 10 38 23 52 41
c14 16 21 35 21 54v51l-124 -10c-30 -3 -54 -11 -73 -25c-19 -13 -28 -31 -28 -54c0 -21 8 -38 23 -52c15 -13 34 -20 57 -20h10z" />
    <glyph glyph-name="aeacute" unicode="&#x1fd;" horiz-adv-x="858" 
d="M461 565h-65l55 135h100zM126 9c-26 13 -45 30 -60 53c-14 23 -21 48 -21 76c0 51 18 89 54 112c36 24 79 38 129 43l137 11v16c0 35 -9 62 -28 81s-44 29 -77 29h-5c-28 0 -52 -6 -71 -20c-20 -12 -31 -31 -34 -55h-95c3 46 23 83 61 112c37 29 84 43 141 43
c37 0 70 -7 99 -20s53 -32 70 -57c21 25 47 45 77 57c30 14 62 20 95 20c43 0 80 -9 112 -28c32 -18 57 -44 74 -77s26 -72 26 -115v-55h-350c2 -36 10 -66 24 -91s32 -43 52 -56c22 -12 43 -18 64 -18h8c26 0 49 7 69 20s32 33 37 58h95c-8 -50 -31 -89 -69 -116
c-39 -28 -85 -42 -139 -42c-41 0 -79 9 -115 28c-34 18 -62 45 -83 80c-20 -35 -47 -61 -81 -80c-33 -19 -71 -28 -112 -28c-31 0 -60 6 -84 19zM715 310c-2 41 -13 71 -35 90c-20 20 -47 30 -78 30h-8c-29 0 -56 -10 -80 -29c-23 -19 -39 -50 -48 -91h249zM230 70
c20 0 40 5 62 15c20 10 38 23 52 41c14 16 21 35 21 54v51l-124 -10c-30 -3 -54 -11 -73 -25c-19 -13 -28 -31 -28 -54c0 -21 8 -38 23 -52c15 -13 34 -20 57 -20h10z" />
    <glyph glyph-name="b" unicode="b" horiz-adv-x="596" 
d="M236 13c-31 15 -53 34 -66 57v-70h-95v700h95v-270c13 23 33 42 62 58c28 14 59 22 93 22c42 0 80 -10 115 -31c34 -21 61 -51 80 -90c20 -39 30 -86 30 -139c0 -54 -9 -100 -28 -140c-18 -38 -43 -68 -76 -89c-32 -21 -69 -31 -111 -31c-35 0 -68 8 -99 23zM319 70
c40 0 73 16 98 46c25 32 38 76 38 134s-13 102 -38 134c-25 30 -58 46 -98 46h-8c-25 0 -48 -7 -69 -20c-21 -14 -39 -35 -52 -62s-20 -60 -20 -98s7 -71 20 -98s31 -48 52 -62c21 -13 44 -20 69 -20h8z" />
    <glyph glyph-name="c" unicode="c" horiz-adv-x="532" 
d="M156 24c-36 23 -64 54 -82 93c-20 39 -29 84 -29 133s9 94 29 133c18 39 46 70 82 93s79 34 129 34c57 0 105 -16 142 -47s58 -74 63 -128h-95c-5 28 -17 51 -35 69c-20 17 -43 26 -71 26h-8c-45 0 -80 -17 -105 -52c-24 -35 -36 -77 -36 -128s12 -93 36 -128
c25 -35 60 -52 105 -52h8c28 0 51 9 71 26c18 18 30 41 35 69h95c-5 -54 -26 -97 -63 -128s-85 -47 -142 -47c-50 0 -93 11 -129 34z" />
    <glyph glyph-name="cacute" unicode="&#x107;" horiz-adv-x="532" 
d="M316 565h-65l55 135h100zM156 24c-36 23 -64 54 -82 93c-20 39 -29 84 -29 133s9 94 29 133c18 39 46 70 82 93s79 34 129 34c57 0 105 -16 142 -47s58 -74 63 -128h-95c-5 28 -17 51 -35 69c-20 17 -43 26 -71 26h-8c-45 0 -80 -17 -105 -52c-24 -35 -36 -77 -36 -128
s12 -93 36 -128c25 -35 60 -52 105 -52h8c28 0 51 9 71 26c18 18 30 41 35 69h95c-5 -54 -26 -97 -63 -128s-85 -47 -142 -47c-50 0 -93 11 -129 34z" />
    <glyph glyph-name="ccaron" unicode="&#x10d;" horiz-adv-x="532" 
d="M454 700l-120 -135h-100l-120 135h70l101 -75l99 75h70zM289 70c28 0 51 9 71 26c18 18 30 41 35 69h95c-5 -54 -26 -97 -63 -128s-85 -47 -142 -47c-50 0 -93 11 -129 34s-64 54 -82 93c-20 39 -29 84 -29 133s9 94 29 133c18 39 46 70 82 93s79 34 129 34
c57 0 105 -16 142 -47s58 -74 63 -128h-95c-5 28 -17 51 -35 69c-20 17 -43 26 -71 26h-8c-45 0 -80 -17 -105 -52c-24 -35 -36 -77 -36 -128s12 -93 36 -128c25 -35 60 -52 105 -52h8z" />
    <glyph glyph-name="ccedilla" unicode="&#xe7;" horiz-adv-x="532" 
d="M289 70c28 0 51 9 71 26c18 18 30 41 35 69h95c-5 -51 -24 -91 -58 -123c-33 -30 -76 -48 -129 -51v-36c27 -2 48 -11 63 -27c16 -16 24 -37 24 -63c0 -30 -11 -54 -33 -73c-22 -18 -49 -27 -82 -27h-62v65h62c33 0 50 12 50 37c0 12 -4 21 -12 28s-19 10 -34 10h-31v87
c-64 8 -114 36 -150 83c-35 47 -53 106 -53 175c0 49 9 94 29 133c18 39 46 70 82 93s79 34 129 34c57 0 105 -16 142 -47s58 -74 63 -128h-95c-5 28 -17 51 -35 69c-20 17 -43 26 -71 26h-8c-45 0 -80 -17 -105 -52c-24 -35 -36 -77 -36 -128s12 -93 36 -128
c25 -35 60 -52 105 -52h8z" />
    <glyph glyph-name="ccircumflex" unicode="&#x109;" horiz-adv-x="532" 
d="M384 565l-99 75l-101 -75h-70l120 135h100l120 -135h-70zM289 70c28 0 51 9 71 26c18 18 30 41 35 69h95c-5 -54 -26 -97 -63 -128s-85 -47 -142 -47c-50 0 -93 11 -129 34s-64 54 -82 93c-20 39 -29 84 -29 133s9 94 29 133c18 39 46 70 82 93s79 34 129 34
c57 0 105 -16 142 -47s58 -74 63 -128h-95c-5 28 -17 51 -35 69c-20 17 -43 26 -71 26h-8c-45 0 -80 -17 -105 -52c-24 -35 -36 -77 -36 -128s12 -93 36 -128c25 -35 60 -52 105 -52h8z" />
    <glyph glyph-name="cdotaccent" unicode="&#x10b;" horiz-adv-x="532" 
d="M336 590h-105v110h105v-110zM156 24c-36 23 -64 54 -82 93c-20 39 -29 84 -29 133s9 94 29 133c18 39 46 70 82 93s79 34 129 34c57 0 105 -16 142 -47s58 -74 63 -128h-95c-5 28 -17 51 -35 69c-20 17 -43 26 -71 26h-8c-45 0 -80 -17 -105 -52
c-24 -35 -36 -77 -36 -128s12 -93 36 -128c25 -35 60 -52 105 -52h8c28 0 51 9 71 26c18 18 30 41 35 69h95c-5 -54 -26 -97 -63 -128s-85 -47 -142 -47c-50 0 -93 11 -129 34z" />
    <glyph glyph-name="d" unicode="d" horiz-adv-x="596" 
d="M150 21c-33 21 -58 51 -76 89c-19 40 -28 86 -28 140c0 53 10 100 30 139c19 39 46 69 80 90c35 21 73 31 115 31c34 0 65 -8 93 -22c29 -16 49 -35 62 -58v270h95v-700h-95v70c-13 -23 -35 -42 -66 -57s-64 -23 -99 -23c-42 0 -79 10 -111 31zM285 70c25 0 48 7 69 20
c21 14 39 35 52 62s20 60 20 98s-7 71 -20 98s-31 48 -52 62c-21 13 -44 20 -69 20h-8c-40 0 -73 -16 -98 -46c-25 -32 -38 -76 -38 -134s13 -102 38 -134c25 -30 58 -46 98 -46h8z" />
    <glyph glyph-name="eth" unicode="&#xf0;" horiz-adv-x="573" 
d="M429 593c30 -37 53 -81 68 -133c15 -51 23 -107 23 -168c0 -55 -9 -106 -27 -152s-45 -82 -81 -110c-36 -26 -80 -40 -132 -40c-47 0 -88 11 -124 32c-35 22 -63 52 -82 90c-19 39 -29 82 -29 129c0 43 9 83 27 119c18 35 44 63 77 84s72 31 116 31c28 0 54 -4 79 -13
c25 -8 48 -23 71 -44l-2 17c-5 45 -21 82 -50 113l-80 -54l-46 64l57 39c-36 15 -77 23 -122 23v80c79 0 144 -18 197 -53l75 51l46 -64zM285 70c24 0 47 6 68 20c21 12 39 32 52 58c13 25 20 56 20 92c0 33 -7 61 -20 84s-31 41 -52 53s-44 18 -68 18h-10
c-39 0 -72 -13 -97 -41c-25 -26 -38 -65 -38 -114c0 -55 13 -97 38 -126s58 -44 97 -44h10z" />
    <glyph glyph-name="dcaron" unicode="&#x10f;" horiz-adv-x="614" 
d="M150 21c-33 21 -58 51 -76 89c-19 40 -28 86 -28 140c0 53 10 100 30 139c19 39 46 69 80 90c35 21 73 31 115 31c34 0 65 -8 93 -22c29 -16 49 -35 62 -58v270h95v-700h-95v70c-13 -23 -35 -42 -66 -57s-64 -23 -99 -23c-42 0 -79 10 -111 31zM566 505v50h10
c37 0 55 13 55 40v5h-45v100h95v-105c0 -26 -9 -47 -27 -65c-17 -16 -42 -25 -73 -25h-15zM285 70c25 0 48 7 69 20c21 14 39 35 52 62s20 60 20 98s-7 71 -20 98s-31 48 -52 62c-21 13 -44 20 -69 20h-8c-40 0 -73 -16 -98 -46c-25 -32 -38 -76 -38 -134s13 -102 38 -134
c25 -30 58 -46 98 -46h8z" />
    <glyph glyph-name="dcroat" unicode="&#x111;" horiz-adv-x="596" 
d="M597 640v-77h-76v-563h-95v70c-13 -23 -35 -42 -66 -57s-64 -23 -99 -23c-42 0 -79 10 -111 31c-33 21 -58 51 -76 89c-19 40 -28 86 -28 140c0 53 10 100 30 139c19 39 46 69 80 90c35 21 73 31 115 31c34 0 65 -8 93 -22c29 -16 49 -35 62 -58v133h-154v77h154v60h95
v-60h76zM285 70c25 0 48 7 69 20c21 14 39 35 52 62s20 60 20 98s-7 71 -20 98s-31 48 -52 62c-21 13 -44 20 -69 20h-8c-40 0 -73 -16 -98 -46c-25 -32 -38 -76 -38 -134s13 -102 38 -134c25 -30 58 -46 98 -46h8z" />
    <glyph glyph-name="e" unicode="e" horiz-adv-x="538" 
d="M164 20c-36 19 -65 49 -86 88c-22 39 -33 87 -33 143c0 55 11 103 33 141c21 40 50 69 86 88c35 20 73 30 114 30c43 0 80 -9 112 -28c32 -18 57 -44 74 -77s26 -72 26 -115v-55h-350c2 -36 10 -66 24 -91s32 -43 52 -56c22 -12 43 -18 64 -18h8c26 0 49 7 69 20
s32 33 37 58h95c-9 -49 -32 -88 -71 -116s-84 -42 -137 -42c-43 0 -82 10 -117 30zM395 310c-2 41 -13 71 -35 90c-20 20 -47 30 -78 30h-8c-29 0 -56 -10 -80 -29c-23 -19 -39 -50 -48 -91h249z" />
    <glyph glyph-name="eacute" unicode="&#xe9;" horiz-adv-x="538" 
d="M314 565h-65l55 135h100zM164 20c-36 19 -65 49 -86 88c-22 39 -33 87 -33 143c0 55 11 103 33 141c21 40 50 69 86 88c35 20 73 30 114 30c43 0 80 -9 112 -28c32 -18 57 -44 74 -77s26 -72 26 -115v-55h-350c2 -36 10 -66 24 -91s32 -43 52 -56c22 -12 43 -18 64 -18h8
c26 0 49 7 69 20s32 33 37 58h95c-9 -49 -32 -88 -71 -116s-84 -42 -137 -42c-43 0 -82 10 -117 30zM395 310c-2 41 -13 71 -35 90c-20 20 -47 30 -78 30h-8c-29 0 -56 -10 -80 -29c-23 -19 -39 -50 -48 -91h249z" />
    <glyph glyph-name="ebreve" unicode="&#x115;" horiz-adv-x="538" 
d="M178 592c-28 25 -43 61 -46 108h70c3 -28 11 -48 26 -61c14 -13 32 -19 54 -19s40 6 54 19c15 13 23 33 26 61h70c-3 -47 -18 -82 -47 -108c-29 -24 -63 -37 -103 -37c-42 0 -77 12 -104 37zM164 20c-36 19 -65 49 -86 88c-22 39 -33 87 -33 143c0 55 11 103 33 141
c21 40 50 69 86 88c35 20 73 30 114 30c43 0 80 -9 112 -28c32 -18 57 -44 74 -77s26 -72 26 -115v-55h-350c2 -36 10 -66 24 -91s32 -43 52 -56c22 -12 43 -18 64 -18h8c26 0 49 7 69 20s32 33 37 58h95c-9 -49 -32 -88 -71 -116s-84 -42 -137 -42c-43 0 -82 10 -117 30z
M395 310c-2 41 -13 71 -35 90c-20 20 -47 30 -78 30h-8c-29 0 -56 -10 -80 -29c-23 -19 -39 -50 -48 -91h249z" />
    <glyph glyph-name="ecaron" unicode="&#x11b;" horiz-adv-x="538" 
d="M452 700l-120 -135h-100l-120 135h70l101 -75l99 75h70zM490 235h-350c2 -36 10 -66 24 -91s32 -43 52 -56c22 -12 43 -18 64 -18h8c26 0 49 7 69 20s32 33 37 58h95c-9 -49 -32 -88 -71 -116s-84 -42 -137 -42c-43 0 -82 10 -117 30c-36 19 -65 49 -86 88
c-22 39 -33 87 -33 143c0 55 11 103 33 141c21 40 50 69 86 88c35 20 73 30 114 30c43 0 80 -9 112 -28c32 -18 57 -44 74 -77s26 -72 26 -115v-55zM395 310c-2 41 -13 71 -35 90c-20 20 -47 30 -78 30h-8c-29 0 -56 -10 -80 -29c-23 -19 -39 -50 -48 -91h249z" />
    <glyph glyph-name="ecircumflex" unicode="&#xea;" horiz-adv-x="538" 
d="M382 565l-99 75l-101 -75h-70l120 135h100l120 -135h-70zM490 235h-350c2 -36 10 -66 24 -91s32 -43 52 -56c22 -12 43 -18 64 -18h8c26 0 49 7 69 20s32 33 37 58h95c-9 -49 -32 -88 -71 -116s-84 -42 -137 -42c-43 0 -82 10 -117 30c-36 19 -65 49 -86 88
c-22 39 -33 87 -33 143c0 55 11 103 33 141c21 40 50 69 86 88c35 20 73 30 114 30c43 0 80 -9 112 -28c32 -18 57 -44 74 -77s26 -72 26 -115v-55zM395 310c-2 41 -13 71 -35 90c-20 20 -47 30 -78 30h-8c-29 0 -56 -10 -80 -29c-23 -19 -39 -50 -48 -91h249z" />
    <glyph glyph-name="edieresis" unicode="&#xeb;" horiz-adv-x="538" 
d="M237 590h-100v105h100v-105zM427 590h-100v105h100v-105zM164 20c-36 19 -65 49 -86 88c-22 39 -33 87 -33 143c0 55 11 103 33 141c21 40 50 69 86 88c35 20 73 30 114 30c43 0 80 -9 112 -28c32 -18 57 -44 74 -77s26 -72 26 -115v-55h-350c2 -36 10 -66 24 -91
s32 -43 52 -56c22 -12 43 -18 64 -18h8c26 0 49 7 69 20s32 33 37 58h95c-9 -49 -32 -88 -71 -116s-84 -42 -137 -42c-43 0 -82 10 -117 30zM395 310c-2 41 -13 71 -35 90c-20 20 -47 30 -78 30h-8c-29 0 -56 -10 -80 -29c-23 -19 -39 -50 -48 -91h249z" />
    <glyph glyph-name="edotaccent" unicode="&#x117;" horiz-adv-x="538" 
d="M334 590h-105v110h105v-110zM164 20c-36 19 -65 49 -86 88c-22 39 -33 87 -33 143c0 55 11 103 33 141c21 40 50 69 86 88c35 20 73 30 114 30c43 0 80 -9 112 -28c32 -18 57 -44 74 -77s26 -72 26 -115v-55h-350c2 -36 10 -66 24 -91s32 -43 52 -56
c22 -12 43 -18 64 -18h8c26 0 49 7 69 20s32 33 37 58h95c-9 -49 -32 -88 -71 -116s-84 -42 -137 -42c-43 0 -82 10 -117 30zM395 310c-2 41 -13 71 -35 90c-20 20 -47 30 -78 30h-8c-29 0 -56 -10 -80 -29c-23 -19 -39 -50 -48 -91h249z" />
    <glyph glyph-name="egrave" unicode="&#xe8;" horiz-adv-x="538" 
d="M314 565h-65l-90 135h100zM164 20c-36 19 -65 49 -86 88c-22 39 -33 87 -33 143c0 55 11 103 33 141c21 40 50 69 86 88c35 20 73 30 114 30c43 0 80 -9 112 -28c32 -18 57 -44 74 -77s26 -72 26 -115v-55h-350c2 -36 10 -66 24 -91s32 -43 52 -56c22 -12 43 -18 64 -18
h8c26 0 49 7 69 20s32 33 37 58h95c-9 -49 -32 -88 -71 -116s-84 -42 -137 -42c-43 0 -82 10 -117 30zM395 310c-2 41 -13 71 -35 90c-20 20 -47 30 -78 30h-8c-29 0 -56 -10 -80 -29c-23 -19 -39 -50 -48 -91h249z" />
    <glyph glyph-name="emacron" unicode="&#x113;" horiz-adv-x="538" 
d="M424 590h-285v75h285v-75zM164 20c-36 19 -65 49 -86 88c-22 39 -33 87 -33 143c0 55 11 103 33 141c21 40 50 69 86 88c35 20 73 30 114 30c43 0 80 -9 112 -28c32 -18 57 -44 74 -77s26 -72 26 -115v-55h-350c2 -36 10 -66 24 -91s32 -43 52 -56c22 -12 43 -18 64 -18
h8c26 0 49 7 69 20s32 33 37 58h95c-9 -49 -32 -88 -71 -116s-84 -42 -137 -42c-43 0 -82 10 -117 30zM395 310c-2 41 -13 71 -35 90c-20 20 -47 30 -78 30h-8c-29 0 -56 -10 -80 -29c-23 -19 -39 -50 -48 -91h249z" />
    <glyph glyph-name="eogonek" unicode="&#x119;" horiz-adv-x="538" 
d="M490 235h-350c2 -36 10 -66 24 -91s32 -43 52 -56c22 -12 43 -18 64 -18h8c26 0 49 7 69 20s32 33 37 58h95c-7 -37 -22 -69 -47 -94c-24 -26 -54 -44 -89 -54c-27 -17 -47 -33 -63 -48c-14 -16 -22 -33 -22 -52c0 -27 22 -40 65 -40h15v-65h-34c-35 0 -63 8 -82 24
s-29 36 -29 61c0 42 23 79 69 110c-41 1 -79 12 -114 32c-34 20 -61 50 -82 88c-21 40 -31 86 -31 141s11 103 33 141c21 40 50 69 86 88c35 20 73 30 114 30c43 0 80 -9 112 -28c32 -18 57 -44 74 -77s26 -72 26 -115v-55zM395 310c-2 41 -13 71 -35 90
c-20 20 -47 30 -78 30h-8c-29 0 -56 -10 -80 -29c-23 -19 -39 -50 -48 -91h249z" />
    <glyph glyph-name="f" unicode="f" horiz-adv-x="377" 
d="M133 0v418h-110v82h110v95c0 70 35 105 105 105h140v-83h-110c-15 0 -25 -3 -31 -9c-6 -5 -9 -16 -9 -31v-77h125v-82h-125v-418h-95z" />
    <glyph glyph-name="g" unicode="g" horiz-adv-x="588" 
d="M105 -178c-41 29 -64 66 -69 113h95c5 -24 19 -43 43 -55c24 -14 54 -20 89 -20h10c45 0 80 12 106 37s39 62 39 113v70c-14 -23 -34 -42 -60 -57c-25 -15 -55 -23 -90 -23c-40 0 -77 9 -110 28c-34 19 -61 47 -82 86c-20 38 -30 85 -30 141s10 103 30 141
c20 39 47 67 80 86c34 19 71 28 112 28c35 0 66 -8 94 -24c26 -15 45 -34 56 -56v70h95v-500c0 -42 -10 -80 -29 -113s-48 -59 -84 -79c-38 -18 -81 -28 -132 -28c-68 0 -122 14 -163 42zM280 80c23 0 46 7 67 22c21 14 39 34 51 60c14 27 20 58 20 93s-6 66 -18 93
c-13 27 -29 47 -50 61c-20 14 -42 21 -65 21h-8c-39 0 -71 -14 -97 -44c-26 -28 -39 -72 -39 -131s12 -103 37 -132c24 -29 55 -43 94 -43h8z" />
    <glyph glyph-name="gbreve" unicode="&#x11f;" horiz-adv-x="588" 
d="M176 592c-27 25 -42 61 -45 108h70c3 -28 11 -48 25 -61c15 -13 33 -19 55 -19s40 6 55 19c14 13 22 33 25 61h70c-3 -47 -18 -82 -47 -108c-29 -24 -63 -37 -103 -37c-42 0 -77 12 -105 37zM105 -178c-41 29 -64 66 -69 113h95c5 -24 19 -43 43 -55
c24 -14 54 -20 89 -20h10c45 0 80 12 106 37s39 62 39 113v70c-14 -23 -34 -42 -60 -57c-25 -15 -55 -23 -90 -23c-40 0 -77 9 -110 28c-34 19 -61 47 -82 86c-20 38 -30 85 -30 141s10 103 30 141c20 39 47 67 80 86c34 19 71 28 112 28c35 0 66 -8 94 -24
c26 -15 45 -34 56 -56v70h95v-500c0 -42 -10 -80 -29 -113s-48 -59 -84 -79c-38 -18 -81 -28 -132 -28c-68 0 -122 14 -163 42zM280 80c23 0 46 7 67 22c21 14 39 34 51 60c14 27 20 58 20 93s-6 66 -18 93c-13 27 -29 47 -50 61c-20 14 -42 21 -65 21h-8
c-39 0 -71 -14 -97 -44c-26 -28 -39 -72 -39 -131s12 -103 37 -132c24 -29 55 -43 94 -43h8z" />
    <glyph glyph-name="gcircumflex" unicode="&#x11d;" horiz-adv-x="588" 
d="M381 565l-99 75l-101 -75h-70l120 135h100l120 -135h-70zM418 500h95v-500c0 -42 -10 -80 -29 -113s-48 -59 -84 -79c-38 -18 -81 -28 -132 -28c-68 0 -122 14 -163 42c-41 29 -64 66 -69 113h95c5 -24 19 -43 43 -55c24 -14 54 -20 89 -20h10c45 0 80 12 106 37
s39 62 39 113v70c-14 -23 -34 -42 -60 -57c-25 -15 -55 -23 -90 -23c-40 0 -77 9 -110 28c-34 19 -61 47 -82 86c-20 38 -30 85 -30 141s10 103 30 141c20 39 47 67 80 86c34 19 71 28 112 28c35 0 66 -8 94 -24c26 -15 45 -34 56 -56v70zM280 80c23 0 46 7 67 22
c21 14 39 34 51 60c14 27 20 58 20 93s-6 66 -18 93c-13 27 -29 47 -50 61c-20 14 -42 21 -65 21h-8c-39 0 -71 -14 -97 -44c-26 -28 -39 -72 -39 -131s12 -103 37 -132c24 -29 55 -43 94 -43h8z" />
    <glyph glyph-name="uni0123" unicode="&#x123;" horiz-adv-x="588" 
d="M348 792v-50h-10c-37 0 -55 -13 -55 -40v-5h45v-100h-95v105c0 26 9 48 27 64c17 18 42 26 73 26h15zM105 -178c-41 29 -64 66 -69 113h95c5 -24 19 -43 43 -55c24 -14 54 -20 89 -20h10c45 0 80 12 106 37s39 62 39 113v70c-14 -23 -34 -42 -60 -57
c-25 -15 -55 -23 -90 -23c-40 0 -77 9 -110 28c-34 19 -61 47 -82 86c-20 38 -30 85 -30 141s10 103 30 141c20 39 47 67 80 86c34 19 71 28 112 28c35 0 66 -8 94 -24c26 -15 45 -34 56 -56v70h95v-500c0 -42 -10 -80 -29 -113s-48 -59 -84 -79c-38 -18 -81 -28 -132 -28
c-68 0 -122 14 -163 42zM280 80c23 0 46 7 67 22c21 14 39 34 51 60c14 27 20 58 20 93s-6 66 -18 93c-13 27 -29 47 -50 61c-20 14 -42 21 -65 21h-8c-39 0 -71 -14 -97 -44c-26 -28 -39 -72 -39 -131s12 -103 37 -132c24 -29 55 -43 94 -43h8z" />
    <glyph glyph-name="gdotaccent" unicode="&#x121;" horiz-adv-x="588" 
d="M333 590h-105v110h105v-110zM105 -178c-41 29 -64 66 -69 113h95c5 -24 19 -43 43 -55c24 -14 54 -20 89 -20h10c45 0 80 12 106 37s39 62 39 113v70c-14 -23 -34 -42 -60 -57c-25 -15 -55 -23 -90 -23c-40 0 -77 9 -110 28c-34 19 -61 47 -82 86c-20 38 -30 85 -30 141
s10 103 30 141c20 39 47 67 80 86c34 19 71 28 112 28c35 0 66 -8 94 -24c26 -15 45 -34 56 -56v70h95v-500c0 -42 -10 -80 -29 -113s-48 -59 -84 -79c-38 -18 -81 -28 -132 -28c-68 0 -122 14 -163 42zM280 80c23 0 46 7 67 22c21 14 39 34 51 60c14 27 20 58 20 93
s-6 66 -18 93c-13 27 -29 47 -50 61c-20 14 -42 21 -65 21h-8c-39 0 -71 -14 -97 -44c-26 -28 -39 -72 -39 -131s12 -103 37 -132c24 -29 55 -43 94 -43h8z" />
    <glyph glyph-name="h" unicode="h" horiz-adv-x="580" 
d="M75 0v700h95v-270c35 53 89 80 160 80c57 0 101 -16 132 -48c32 -31 48 -74 48 -127v-335h-95v315c0 37 -8 65 -25 85c-16 20 -41 30 -76 30h-8c-24 0 -46 -6 -67 -18s-37 -29 -50 -52s-19 -49 -19 -80v-280h-95z" />
    <glyph glyph-name="hbar" unicode="&#x127;" horiz-adv-x="580" 
d="M462 462c32 -31 48 -74 48 -127v-335h-95v315c0 37 -8 65 -25 85c-16 20 -41 30 -76 30h-8c-24 0 -46 -6 -67 -18s-37 -29 -50 -52s-19 -49 -19 -80v-280h-95v563h-70v77h70v60h95v-60h160v-77h-160v-133c35 53 89 80 160 80c57 0 101 -16 132 -48z" />
    <glyph glyph-name="hcircumflex" unicode="&#x125;" horiz-adv-x="580" 
d="M406 755l-99 75l-101 -75h-70l120 135h100l120 -135h-70zM462 462c32 -31 48 -74 48 -127v-335h-95v315c0 37 -8 65 -25 85c-16 20 -41 30 -76 30h-8c-24 0 -46 -6 -67 -18s-37 -29 -50 -52s-19 -49 -19 -80v-280h-95v700h95v-270c35 53 89 80 160 80
c57 0 101 -16 132 -48z" />
    <glyph glyph-name="i" unicode="i" horiz-adv-x="245" 
d="M175 590h-105v110h105v-110zM170 0h-95v500h95v-500z" />
    <glyph glyph-name="dotlessi" unicode="&#x131;" horiz-adv-x="245" 
d="M170 0h-95v500h95v-500z" />
    <glyph glyph-name="iacute" unicode="&#xed;" horiz-adv-x="245" 
d="M155 565h-65l55 135h100zM170 0h-95v500h95v-500z" />
    <glyph glyph-name="ibreve" unicode="&#x12d;" horiz-adv-x="245" 
d="M18 592c-27 25 -42 61 -45 108h70c3 -28 11 -48 25 -61c15 -13 33 -19 55 -19s40 6 55 19c14 13 22 33 25 61h70c-3 -47 -18 -82 -47 -108c-29 -24 -63 -37 -103 -37c-42 0 -77 12 -105 37zM170 0h-95v500h95v-500z" />
    <glyph glyph-name="icircumflex" unicode="&#xee;" horiz-adv-x="245" 
d="M73 700h100l120 -135h-70l-99 75l-101 -75h-70zM170 0h-95v500h95v-500z" />
    <glyph glyph-name="idieresis" unicode="&#xef;" horiz-adv-x="245" 
d="M78 590h-100v105h100v-105zM268 590h-100v105h100v-105zM170 0h-95v500h95v-500z" />
    <glyph glyph-name="i.loclTRK" horiz-adv-x="245" 
d="M175 590h-105v110h105v-110zM170 0h-95v500h95v-500z" />
    <glyph glyph-name="igrave" unicode="&#xec;" horiz-adv-x="245" 
d="M155 565h-65l-90 135h100zM170 0h-95v500h95v-500z" />
    <glyph glyph-name="ij" unicode="&#x133;" horiz-adv-x="495" 
d="M175 590h-105v110h105v-110zM425 590h-105v110h105v-110zM75 -185v85h210c15 0 26 3 31 8c6 6 9 17 9 32v560h95v-580c0 -70 -35 -105 -105 -105h-240zM170 0h-95v500h95v-500z" />
    <glyph glyph-name="imacron" unicode="&#x12b;" horiz-adv-x="245" 
d="M265 590h-285v75h285v-75zM170 0h-95v500h95v-500z" />
    <glyph glyph-name="iogonek" unicode="&#x12f;" horiz-adv-x="245" 
d="M70 590v110h105v-110h-105zM75 0v500h95v-500c-27 -17 -48 -33 -62 -48c-16 -16 -23 -33 -23 -52c0 -27 22 -40 65 -40h15v-65h-34c-35 0 -63 8 -82 24s-29 36 -29 61c0 27 8 50 25 70c17 21 37 37 60 50h-30z" />
    <glyph glyph-name="itilde" unicode="&#x129;" horiz-adv-x="245" 
d="M166 564c-12 5 -28 14 -47 25l-25 15c-17 11 -33 16 -47 16c-23 0 -34 -18 -34 -55h-70v26c0 29 9 54 27 74s41 30 70 30c24 0 53 -11 88 -33l21 -13c21 -13 37 -19 49 -19c11 0 19 5 25 14s9 23 9 41h70v-26c0 -29 -9 -54 -26 -74c-18 -20 -41 -30 -69 -30
c-14 0 -27 3 -41 9zM170 0h-95v500h95v-500z" />
    <glyph glyph-name="j" unicode="j" horiz-adv-x="253" 
d="M183 590h-105v110h105v-110zM-82 -185v85h125c15 0 26 3 31 8c6 6 9 17 9 32v560h95v-580c0 -70 -35 -105 -105 -105h-155z" />
    <glyph glyph-name="uni0237" unicode="&#x237;" horiz-adv-x="253" 
d="M-82 -185v85h125c15 0 26 3 31 8c6 6 9 17 9 32v560h95v-580c0 -70 -35 -105 -105 -105h-155z" />
    <glyph glyph-name="jcircumflex" unicode="&#x135;" horiz-adv-x="253" 
d="M79 700h100l120 -135h-70l-99 75l-101 -75h-70zM83 500h95v-580c0 -70 -35 -105 -105 -105h-155v85h125c15 0 26 3 31 8c6 6 9 17 9 32v560z" />
    <glyph glyph-name="k" unicode="k" horiz-adv-x="533" 
d="M170 0h-95v700h95v-416l220 216h125l-208 -199l218 -301h-117l-169 236l-69 -67v-169z" />
    <glyph glyph-name="uni0137" unicode="&#x137;" horiz-adv-x="533" 
d="M170 0h-95v700h95v-416l220 216h125l-208 -199l218 -301h-117l-169 236l-69 -67v-169zM224 -285v50h10c37 0 55 13 55 40v5h-45v100h95v-105c0 -26 -9 -47 -27 -65c-17 -16 -42 -25 -73 -25h-15z" />
    <glyph glyph-name="l" unicode="l" horiz-adv-x="245" 
d="M170 0h-95v700h95v-700z" />
    <glyph glyph-name="lacute" unicode="&#x13a;" horiz-adv-x="245" 
d="M155 755h-65l55 135h100zM170 0h-95v700h95v-700z" />
    <glyph glyph-name="lcaron" unicode="&#x13e;" horiz-adv-x="263" 
d="M170 0h-95v700h95v-700zM214 505v50h10c37 0 55 13 55 40v5h-45v100h95v-105c0 -26 -9 -47 -27 -65c-17 -16 -42 -25 -73 -25h-15z" />
    <glyph glyph-name="uni013C" unicode="&#x13c;" horiz-adv-x="245" 
d="M170 0h-95v700h95v-700zM55 -285v50h10c37 0 55 13 55 40v5h-45v100h95v-105c0 -26 -9 -47 -26 -65c-18 -16 -43 -25 -74 -25h-15z" />
    <glyph glyph-name="ldot" unicode="&#x140;" horiz-adv-x="315" 
d="M170 0h-95v700h95v-700zM334 296h-108v108h108v-108z" />
    <glyph glyph-name="lslash" unicode="&#x142;" horiz-adv-x="311" 
d="M208 475l80 45v-95l-80 -45v-380h-95v326l-80 -45v95l80 45v279h95v-225z" />
    <glyph glyph-name="m" unicode="m" horiz-adv-x="900" 
d="M75 0v500h95v-70c16 24 37 43 62 58s55 22 88 22c37 0 70 -8 98 -23c29 -15 51 -39 67 -70c18 33 42 56 71 71s61 22 94 22c57 0 101 -16 132 -48c32 -31 48 -74 48 -127v-335h-95v315c0 37 -8 65 -25 85c-16 20 -41 30 -76 30h-8c-21 0 -41 -6 -60 -18s-35 -30 -48 -52
c-12 -24 -18 -50 -18 -80v-280h-95v315c0 37 -8 65 -25 85c-16 20 -41 30 -76 30h-8c-21 0 -41 -6 -60 -18s-35 -30 -48 -52c-12 -24 -18 -50 -18 -80v-280h-95z" />
    <glyph glyph-name="n" unicode="n" horiz-adv-x="580" 
d="M75 0v500h95v-70c35 53 89 80 160 80c57 0 101 -16 132 -48c32 -31 48 -74 48 -127v-335h-95v315c0 37 -8 65 -25 85c-16 20 -41 30 -76 30h-8c-24 0 -46 -6 -67 -18s-37 -29 -50 -52s-19 -49 -19 -80v-280h-95z" />
    <glyph glyph-name="nacute" unicode="&#x144;" horiz-adv-x="580" 
d="M328 565h-65l55 135h100zM75 0v500h95v-70c35 53 89 80 160 80c57 0 101 -16 132 -48c32 -31 48 -74 48 -127v-335h-95v315c0 37 -8 65 -25 85c-16 20 -41 30 -76 30h-8c-24 0 -46 -6 -67 -18s-37 -29 -50 -52s-19 -49 -19 -80v-280h-95z" />
    <glyph glyph-name="ncaron" unicode="&#x148;" horiz-adv-x="580" 
d="M466 700l-120 -135h-100l-120 135h70l101 -75l99 75h70zM462 462c32 -31 48 -74 48 -127v-335h-95v315c0 37 -8 65 -25 85c-16 20 -41 30 -76 30h-8c-24 0 -46 -6 -67 -18s-37 -29 -50 -52s-19 -49 -19 -80v-280h-95v500h95v-70c35 53 89 80 160 80c57 0 101 -16 132 -48
z" />
    <glyph glyph-name="uni0146" unicode="&#x146;" horiz-adv-x="580" 
d="M75 0v500h95v-70c35 53 89 80 160 80c57 0 101 -16 132 -48c32 -31 48 -74 48 -127v-335h-95v315c0 37 -8 65 -25 85c-16 20 -41 30 -76 30h-8c-24 0 -46 -6 -67 -18s-37 -29 -50 -52s-19 -49 -19 -80v-280h-95zM228 -285v50h10c37 0 55 13 55 40v5h-45v100h95v-105
c0 -26 -9 -47 -27 -65c-17 -16 -42 -25 -73 -25h-15z" />
    <glyph glyph-name="eng" unicode="&#x14b;" horiz-adv-x="580" 
d="M462 462c32 -31 48 -74 48 -127v-415c0 -70 -35 -105 -105 -105h-110v85h80c16 0 27 3 32 8c5 6 8 17 8 32v375c0 37 -8 65 -25 85c-16 20 -41 30 -76 30h-8c-24 0 -46 -6 -67 -18s-37 -29 -50 -52s-19 -49 -19 -80v-280h-95v500h95v-70c35 53 89 80 160 80
c57 0 101 -16 132 -48z" />
    <glyph glyph-name="ntilde" unicode="&#xf1;" horiz-adv-x="580" 
d="M340 564c-14 5 -29 14 -48 25l-25 15c-17 11 -33 16 -47 16c-23 0 -34 -18 -34 -55h-70v26c0 29 9 54 27 74s41 30 70 30c24 0 53 -11 88 -33l21 -13c21 -13 37 -19 49 -19c11 0 19 5 25 14s9 23 9 41h70v-26c0 -29 -9 -54 -27 -74c-17 -20 -40 -30 -68 -30
c-14 0 -28 3 -40 9zM75 0v500h95v-70c35 53 89 80 160 80c57 0 101 -16 132 -48c32 -31 48 -74 48 -127v-335h-95v315c0 37 -8 65 -25 85c-16 20 -41 30 -76 30h-8c-24 0 -46 -6 -67 -18s-37 -29 -50 -52s-19 -49 -19 -80v-280h-95z" />
    <glyph glyph-name="o" unicode="o" horiz-adv-x="568" 
d="M162 23c-37 22 -66 53 -86 92c-22 39 -32 84 -32 135s10 96 32 135c20 39 49 70 86 92s77 33 122 33s85 -11 122 -33s66 -53 86 -92c22 -39 32 -84 32 -135s-10 -96 -32 -135c-20 -39 -49 -70 -86 -92s-77 -33 -122 -33s-85 11 -122 33zM288 70c41 0 75 16 102 48
c26 32 39 76 39 132s-13 100 -39 132c-27 32 -61 48 -102 48h-8c-41 0 -75 -16 -102 -48c-26 -32 -39 -76 -39 -132s13 -100 39 -132c27 -32 61 -48 102 -48h8z" />
    <glyph glyph-name="oacute" unicode="&#xf3;" horiz-adv-x="568" 
d="M316 565h-65l55 135h100zM162 23c-37 22 -66 53 -86 92c-22 39 -32 84 -32 135s10 96 32 135c20 39 49 70 86 92s77 33 122 33s85 -11 122 -33s66 -53 86 -92c22 -39 32 -84 32 -135s-10 -96 -32 -135c-20 -39 -49 -70 -86 -92s-77 -33 -122 -33s-85 11 -122 33zM288 70
c41 0 75 16 102 48c26 32 39 76 39 132s-13 100 -39 132c-27 32 -61 48 -102 48h-8c-41 0 -75 -16 -102 -48c-26 -32 -39 -76 -39 -132s13 -100 39 -132c27 -32 61 -48 102 -48h8z" />
    <glyph glyph-name="obreve" unicode="&#x14f;" horiz-adv-x="568" 
d="M180 592c-28 25 -43 61 -46 108h70c3 -28 11 -48 26 -61c14 -13 32 -19 54 -19s40 6 54 19c15 13 23 33 26 61h70c-3 -47 -18 -82 -47 -108c-29 -24 -63 -37 -103 -37c-42 0 -77 12 -104 37zM162 23c-37 22 -66 53 -86 92c-22 39 -32 84 -32 135s10 96 32 135
c20 39 49 70 86 92s77 33 122 33s85 -11 122 -33s66 -53 86 -92c22 -39 32 -84 32 -135s-10 -96 -32 -135c-20 -39 -49 -70 -86 -92s-77 -33 -122 -33s-85 11 -122 33zM288 70c41 0 75 16 102 48c26 32 39 76 39 132s-13 100 -39 132c-27 32 -61 48 -102 48h-8
c-41 0 -75 -16 -102 -48c-26 -32 -39 -76 -39 -132s13 -100 39 -132c27 -32 61 -48 102 -48h8z" />
    <glyph glyph-name="ocircumflex" unicode="&#xf4;" horiz-adv-x="568" 
d="M384 565l-99 75l-101 -75h-70l120 135h100l120 -135h-70zM406 477c37 -22 66 -53 86 -92c22 -39 32 -84 32 -135s-10 -96 -32 -135c-20 -39 -49 -70 -86 -92s-77 -33 -122 -33s-85 11 -122 33s-66 53 -86 92c-22 39 -32 84 -32 135s10 96 32 135c20 39 49 70 86 92
s77 33 122 33s85 -11 122 -33zM288 70c41 0 75 16 102 48c26 32 39 76 39 132s-13 100 -39 132c-27 32 -61 48 -102 48h-8c-41 0 -75 -16 -102 -48c-26 -32 -39 -76 -39 -132s13 -100 39 -132c27 -32 61 -48 102 -48h8z" />
    <glyph glyph-name="odieresis" unicode="&#xf6;" horiz-adv-x="568" 
d="M239 590h-100v105h100v-105zM429 590h-100v105h100v-105zM162 23c-37 22 -66 53 -86 92c-22 39 -32 84 -32 135s10 96 32 135c20 39 49 70 86 92s77 33 122 33s85 -11 122 -33s66 -53 86 -92c22 -39 32 -84 32 -135s-10 -96 -32 -135c-20 -39 -49 -70 -86 -92
s-77 -33 -122 -33s-85 11 -122 33zM288 70c41 0 75 16 102 48c26 32 39 76 39 132s-13 100 -39 132c-27 32 -61 48 -102 48h-8c-41 0 -75 -16 -102 -48c-26 -32 -39 -76 -39 -132s13 -100 39 -132c27 -32 61 -48 102 -48h8z" />
    <glyph glyph-name="ograve" unicode="&#xf2;" horiz-adv-x="568" 
d="M316 565h-65l-90 135h100zM162 23c-37 22 -66 53 -86 92c-22 39 -32 84 -32 135s10 96 32 135c20 39 49 70 86 92s77 33 122 33s85 -11 122 -33s66 -53 86 -92c22 -39 32 -84 32 -135s-10 -96 -32 -135c-20 -39 -49 -70 -86 -92s-77 -33 -122 -33s-85 11 -122 33zM288 70
c41 0 75 16 102 48c26 32 39 76 39 132s-13 100 -39 132c-27 32 -61 48 -102 48h-8c-41 0 -75 -16 -102 -48c-26 -32 -39 -76 -39 -132s13 -100 39 -132c27 -32 61 -48 102 -48h8z" />
    <glyph glyph-name="ohungarumlaut" unicode="&#x151;" horiz-adv-x="568" 
d="M231 565h-65l55 135h100zM390 565h-65l55 135h100zM162 23c-37 22 -66 53 -86 92c-22 39 -32 84 -32 135s10 96 32 135c20 39 49 70 86 92s77 33 122 33s85 -11 122 -33s66 -53 86 -92c22 -39 32 -84 32 -135s-10 -96 -32 -135c-20 -39 -49 -70 -86 -92s-77 -33 -122 -33
s-85 11 -122 33zM288 70c41 0 75 16 102 48c26 32 39 76 39 132s-13 100 -39 132c-27 32 -61 48 -102 48h-8c-41 0 -75 -16 -102 -48c-26 -32 -39 -76 -39 -132s13 -100 39 -132c27 -32 61 -48 102 -48h8z" />
    <glyph glyph-name="omacron" unicode="&#x14d;" horiz-adv-x="568" 
d="M426 590h-285v75h285v-75zM162 23c-37 22 -66 53 -86 92c-22 39 -32 84 -32 135s10 96 32 135c20 39 49 70 86 92s77 33 122 33s85 -11 122 -33s66 -53 86 -92c22 -39 32 -84 32 -135s-10 -96 -32 -135c-20 -39 -49 -70 -86 -92s-77 -33 -122 -33s-85 11 -122 33zM288 70
c41 0 75 16 102 48c26 32 39 76 39 132s-13 100 -39 132c-27 32 -61 48 -102 48h-8c-41 0 -75 -16 -102 -48c-26 -32 -39 -76 -39 -132s13 -100 39 -132c27 -32 61 -48 102 -48h8z" />
    <glyph glyph-name="oslash" unicode="&#xf8;" horiz-adv-x="573" 
d="M469 426c39 -48 58 -107 58 -176c0 -51 -11 -96 -31 -135c-22 -39 -50 -70 -87 -92s-77 -33 -122 -33c-47 0 -89 12 -126 35l-50 -65l-60 50l52 68c-37 47 -56 104 -56 172c0 51 11 96 31 135c22 39 50 70 87 92s77 33 122 33c43 0 84 -11 122 -33l48 63l65 -45zM160 153
l199 259c-20 12 -43 18 -68 18h-8c-41 0 -75 -16 -101 -48c-27 -32 -40 -76 -40 -132c0 -36 6 -68 18 -97zM291 70c41 0 75 16 101 48c27 32 40 76 40 132c0 39 -7 73 -20 101l-201 -260c21 -14 45 -21 72 -21h8z" />
    <glyph glyph-name="oslashacute" unicode="&#x1ff;" horiz-adv-x="573" 
d="M308 700h100l-90 -135h-65zM469 426c39 -48 58 -107 58 -176c0 -51 -11 -96 -31 -135c-22 -39 -50 -70 -87 -92s-77 -33 -122 -33c-47 0 -89 12 -126 35l-50 -65l-60 50l52 68c-37 47 -56 104 -56 172c0 51 11 96 31 135c22 39 50 70 87 92s77 33 122 33
c43 0 84 -11 122 -33l48 63l65 -45zM160 153l199 259c-20 12 -43 18 -68 18h-8c-41 0 -75 -16 -101 -48c-27 -32 -40 -76 -40 -132c0 -36 6 -68 18 -97zM291 70c41 0 75 16 101 48c27 32 40 76 40 132c0 39 -7 73 -20 101l-201 -260c21 -14 45 -21 72 -21h8z" />
    <glyph glyph-name="otilde" unicode="&#xf5;" horiz-adv-x="568" 
d="M328 564c-14 5 -29 14 -48 25l-25 15c-17 11 -33 16 -47 16c-23 0 -34 -18 -34 -55h-70v26c0 29 9 54 27 74s41 30 70 30c24 0 53 -11 88 -33l21 -13c21 -13 37 -19 49 -19c11 0 19 5 25 14s9 23 9 41h70v-26c0 -29 -9 -54 -27 -74c-17 -20 -40 -30 -68 -30
c-14 0 -28 3 -40 9zM162 23c-37 22 -66 53 -86 92c-22 39 -32 84 -32 135s10 96 32 135c20 39 49 70 86 92s77 33 122 33s85 -11 122 -33s66 -53 86 -92c22 -39 32 -84 32 -135s-10 -96 -32 -135c-20 -39 -49 -70 -86 -92s-77 -33 -122 -33s-85 11 -122 33zM288 70
c41 0 75 16 102 48c26 32 39 76 39 132s-13 100 -39 132c-27 32 -61 48 -102 48h-8c-41 0 -75 -16 -102 -48c-26 -32 -39 -76 -39 -132s13 -100 39 -132c27 -32 61 -48 102 -48h8z" />
    <glyph glyph-name="oe" unicode="&#x153;" horiz-adv-x="922" 
d="M162 23c-37 22 -66 53 -86 92c-22 39 -32 84 -32 135s10 96 32 135c20 39 49 70 86 92s77 33 122 33c39 0 76 -8 108 -25c34 -17 61 -40 83 -71c21 31 49 55 81 72c34 16 69 24 106 24c43 0 80 -9 112 -28c32 -18 57 -44 74 -77s26 -72 26 -115v-55h-350
c2 -36 10 -66 24 -91s32 -43 52 -56c22 -12 43 -18 64 -18h8c26 0 49 7 69 20s32 33 37 58h95c-8 -50 -31 -89 -69 -116c-39 -28 -85 -42 -139 -42c-39 0 -75 8 -108 24c-33 17 -61 41 -82 72c-22 -31 -49 -54 -83 -71c-32 -17 -69 -25 -108 -25c-45 0 -85 11 -122 33z
M288 70c41 0 75 16 102 48c26 32 39 76 39 132s-13 100 -39 132c-27 32 -61 48 -102 48h-8c-41 0 -75 -16 -102 -48c-26 -32 -39 -76 -39 -132s13 -100 39 -132c27 -32 61 -48 102 -48h8zM779 310c-2 41 -13 71 -35 90c-20 20 -47 30 -78 30h-8c-29 0 -56 -10 -80 -29
c-23 -19 -39 -50 -48 -91h249z" />
    <glyph glyph-name="p" unicode="p" horiz-adv-x="596" 
d="M75 -200v700h95v-70c13 23 35 42 66 57s64 23 99 23c42 0 79 -10 111 -31c33 -21 58 -51 76 -89c19 -40 28 -86 28 -140c0 -53 -10 -100 -30 -139c-19 -39 -46 -69 -80 -90c-35 -21 -73 -31 -115 -31c-34 0 -65 8 -93 22c-29 16 -49 35 -62 58v-270h-95zM319 70
c40 0 73 16 98 46c25 32 38 76 38 134s-13 102 -38 134c-25 30 -58 46 -98 46h-8c-25 0 -48 -7 -69 -20c-21 -14 -39 -35 -52 -62s-20 -60 -20 -98s7 -71 20 -98s31 -48 52 -62c21 -13 44 -20 69 -20h8z" />
    <glyph glyph-name="thorn" unicode="&#xfe;" horiz-adv-x="596" 
d="M75 -200v900h95v-270c13 23 35 42 66 57s64 23 99 23c42 0 79 -10 111 -31c33 -21 58 -51 76 -89c19 -40 28 -86 28 -140c0 -53 -10 -100 -30 -139c-19 -39 -46 -69 -80 -90c-35 -21 -73 -31 -115 -31c-34 0 -65 8 -93 22c-29 16 -49 35 -62 58v-270h-95zM319 70
c40 0 73 16 98 46c25 32 38 76 38 134s-13 102 -38 134c-25 30 -58 46 -98 46h-8c-25 0 -48 -7 -69 -20c-21 -14 -39 -35 -52 -62s-20 -60 -20 -98s7 -71 20 -98s31 -48 52 -62c21 -13 44 -20 69 -20h8z" />
    <glyph glyph-name="q" unicode="q" horiz-adv-x="596" 
d="M426 70c-13 -23 -33 -42 -62 -58c-28 -14 -59 -22 -93 -22c-42 0 -80 10 -115 31c-34 21 -61 51 -80 90c-20 39 -30 86 -30 139c0 54 9 100 28 140c18 38 43 68 76 89c32 21 69 31 111 31c35 0 68 -8 99 -23s53 -34 66 -57v70h95v-700h-95v270zM285 70c25 0 48 7 69 20
c21 14 39 35 52 62s20 60 20 98s-7 71 -20 98s-31 48 -52 62c-21 13 -44 20 -69 20h-8c-40 0 -73 -16 -98 -46c-25 -32 -38 -76 -38 -134s13 -102 38 -134c25 -30 58 -46 98 -46h8z" />
    <glyph glyph-name="r" unicode="r" horiz-adv-x="376" 
d="M75 0v500h90v-110c10 37 28 65 55 85c26 20 56 30 90 30h45v-92h-40c-45 0 -81 -14 -107 -43c-25 -28 -38 -67 -38 -117v-253h-95z" />
    <glyph glyph-name="racute" unicode="&#x155;" horiz-adv-x="376" 
d="M225 565h-65l55 135h100zM75 0v500h90v-110c10 37 28 65 55 85c26 20 56 30 90 30h45v-92h-40c-45 0 -81 -14 -107 -43c-25 -28 -38 -67 -38 -117v-253h-95z" />
    <glyph glyph-name="rcaron" unicode="&#x159;" horiz-adv-x="376" 
d="M363 700l-120 -135h-100l-120 135h70l101 -75l99 75h70zM165 390c10 37 28 65 55 85c26 20 56 30 90 30h45v-92h-40c-45 0 -81 -14 -107 -43c-25 -28 -38 -67 -38 -117v-253h-95v500h90v-110z" />
    <glyph glyph-name="uni0157" unicode="&#x157;" horiz-adv-x="376" 
d="M75 0v500h90v-110c10 37 28 65 55 85c26 20 56 30 90 30h45v-92h-40c-45 0 -81 -14 -107 -43c-25 -28 -38 -67 -38 -117v-253h-95zM54 -285v50h10c37 0 55 13 55 40v5h-45v100h95v-105c0 -26 -9 -47 -27 -65c-17 -16 -42 -25 -73 -25h-15z" />
    <glyph glyph-name="s" unicode="s" horiz-adv-x="488" 
d="M91 36c-36 31 -54 70 -54 119h95c3 -29 14 -50 34 -64s46 -21 77 -21h8c27 0 49 6 67 18c17 12 26 28 26 47c0 17 -5 30 -16 41s-28 18 -52 23l-73 14c-44 9 -79 25 -106 48s-40 55 -40 95c0 32 9 60 26 83s40 41 69 53s60 18 94 18c63 0 112 -15 146 -46
c35 -30 52 -70 52 -119h-95c-3 25 -12 45 -28 61s-39 24 -70 24h-8c-27 0 -49 -6 -66 -18c-17 -13 -25 -28 -25 -46c0 -17 6 -31 16 -42c12 -10 29 -17 54 -22l79 -16c42 -8 75 -24 101 -48c24 -23 37 -56 37 -98c0 -45 -18 -81 -55 -108c-37 -28 -84 -42 -142 -42
c-65 0 -115 15 -151 46z" />
    <glyph glyph-name="sacute" unicode="&#x15b;" horiz-adv-x="488" 
d="M275 565h-65l55 135h100zM91 36c-36 31 -54 70 -54 119h95c3 -29 14 -50 34 -64s46 -21 77 -21h8c27 0 49 6 67 18c17 12 26 28 26 47c0 17 -5 30 -16 41s-28 18 -52 23l-73 14c-44 9 -79 25 -106 48s-40 55 -40 95c0 32 9 60 26 83s40 41 69 53s60 18 94 18
c63 0 112 -15 146 -46c35 -30 52 -70 52 -119h-95c-3 25 -12 45 -28 61s-39 24 -70 24h-8c-27 0 -49 -6 -66 -18c-17 -13 -25 -28 -25 -46c0 -17 6 -31 16 -42c12 -10 29 -17 54 -22l79 -16c42 -8 75 -24 101 -48c24 -23 37 -56 37 -98c0 -45 -18 -81 -55 -108
c-37 -28 -84 -42 -142 -42c-65 0 -115 15 -151 46z" />
    <glyph glyph-name="scaron" unicode="&#x161;" horiz-adv-x="488" 
d="M413 700l-120 -135h-100l-120 135h70l101 -75l99 75h70zM301 286c42 -8 75 -24 101 -48c24 -23 37 -56 37 -98c0 -45 -18 -81 -55 -108c-37 -28 -84 -42 -142 -42c-65 0 -115 15 -151 46s-54 70 -54 119h95c3 -29 14 -50 34 -64s46 -21 77 -21h8c27 0 49 6 67 18
c17 12 26 28 26 47c0 17 -5 30 -16 41s-28 18 -52 23l-73 14c-44 9 -79 25 -106 48s-40 55 -40 95c0 32 9 60 26 83s40 41 69 53s60 18 94 18c63 0 112 -15 146 -46c35 -30 52 -70 52 -119h-95c-3 25 -12 45 -28 61s-39 24 -70 24h-8c-27 0 -49 -6 -66 -18
c-17 -13 -25 -28 -25 -46c0 -17 6 -31 16 -42c12 -10 29 -17 54 -22z" />
    <glyph glyph-name="scedilla" unicode="&#x15f;" horiz-adv-x="488" 
d="M301 286c42 -8 75 -24 101 -48c24 -23 37 -56 37 -98c0 -41 -15 -74 -45 -101c-31 -27 -71 -43 -121 -48v-36c27 -2 48 -11 63 -27c16 -16 24 -37 24 -63c0 -30 -11 -54 -33 -73c-22 -18 -49 -27 -82 -27h-62v65h62c33 0 50 12 50 37c0 12 -4 21 -12 28s-19 10 -34 10
h-31v86c-57 4 -102 21 -134 51c-31 29 -47 67 -47 113h95c3 -29 14 -50 34 -64s46 -21 77 -21h8c27 0 49 6 67 18c17 12 26 28 26 47c0 17 -5 30 -16 41s-28 18 -52 23l-73 14c-44 9 -79 25 -106 48s-40 55 -40 95c0 32 9 60 26 83s40 41 69 53s60 18 94 18
c63 0 112 -15 146 -46c35 -30 52 -70 52 -119h-95c-3 25 -12 45 -28 61s-39 24 -70 24h-8c-27 0 -49 -6 -66 -18c-17 -13 -25 -28 -25 -46c0 -17 6 -31 16 -42c12 -10 29 -17 54 -22z" />
    <glyph glyph-name="scircumflex" unicode="&#x15d;" horiz-adv-x="488" 
d="M343 565l-99 75l-101 -75h-70l120 135h100l120 -135h-70zM301 286c42 -8 75 -24 101 -48c24 -23 37 -56 37 -98c0 -45 -18 -81 -55 -108c-37 -28 -84 -42 -142 -42c-65 0 -115 15 -151 46s-54 70 -54 119h95c3 -29 14 -50 34 -64s46 -21 77 -21h8c27 0 49 6 67 18
c17 12 26 28 26 47c0 17 -5 30 -16 41s-28 18 -52 23l-73 14c-44 9 -79 25 -106 48s-40 55 -40 95c0 32 9 60 26 83s40 41 69 53s60 18 94 18c63 0 112 -15 146 -46c35 -30 52 -70 52 -119h-95c-3 25 -12 45 -28 61s-39 24 -70 24h-8c-27 0 -49 -6 -66 -18
c-17 -13 -25 -28 -25 -46c0 -17 6 -31 16 -42c12 -10 29 -17 54 -22z" />
    <glyph glyph-name="uni0219" unicode="&#x219;" horiz-adv-x="488" 
d="M91 36c-36 31 -54 70 -54 119h95c3 -29 14 -50 34 -64s46 -21 77 -21h8c27 0 49 6 67 18c17 12 26 28 26 47c0 17 -5 30 -16 41s-28 18 -52 23l-73 14c-44 9 -79 25 -106 48s-40 55 -40 95c0 32 9 60 26 83s40 41 69 53s60 18 94 18c63 0 112 -15 146 -46
c35 -30 52 -70 52 -119h-95c-3 25 -12 45 -28 61s-39 24 -70 24h-8c-27 0 -49 -6 -66 -18c-17 -13 -25 -28 -25 -46c0 -17 6 -31 16 -42c12 -10 29 -17 54 -22l79 -16c42 -8 75 -24 101 -48c24 -23 37 -56 37 -98c0 -45 -18 -81 -55 -108c-37 -28 -84 -42 -142 -42
c-65 0 -115 15 -151 46zM178 -285v50h10c37 0 55 13 55 40v5h-45v100h95v-105c0 -26 -9 -47 -27 -65c-17 -16 -42 -25 -73 -25h-15z" />
    <glyph glyph-name="germandbls" unicode="&#xdf;" horiz-adv-x="549" 
d="M75 503c0 39 8 74 25 105s41 56 72 74c32 19 69 28 111 28s78 -8 107 -24c30 -17 52 -38 68 -66c14 -26 22 -56 22 -89c0 -39 -11 -73 -34 -101s-48 -46 -76 -55c19 -2 40 -10 60 -25c22 -14 39 -34 54 -60c14 -25 21 -54 21 -87c0 -40 -9 -75 -27 -106
c-19 -31 -45 -55 -78 -71c-33 -18 -72 -26 -117 -26h-53v85h39c44 0 79 11 103 33c26 23 38 52 38 88c0 38 -13 68 -40 90c-26 23 -58 34 -95 34h-45v80h40c23 0 43 5 62 16c18 11 32 25 42 42c11 18 16 37 16 57c0 30 -10 55 -28 75c-20 20 -44 30 -74 30h-10
c-32 0 -58 -11 -78 -34c-20 -22 -30 -55 -30 -98v-683h-95v688z" />
    <glyph glyph-name="t" unicode="t" horiz-adv-x="385" 
d="M237 0c-35 0 -62 10 -81 29s-29 46 -29 81v308h-110v82h110v162h95v-162h120v-82h-120v-293c0 -15 3 -25 9 -31s16 -9 31 -9h95v-85h-120z" />
    <glyph glyph-name="tbar" unicode="&#x167;" horiz-adv-x="398" 
d="M367 85v-85h-120c-35 0 -62 10 -81 29s-29 46 -29 81v128h-110v77h110v103h-110v82h110v162h95v-162h120v-82h-120v-103h120v-77h-120v-113c0 -15 3 -25 9 -31s16 -9 31 -9h95z" />
    <glyph glyph-name="tcaron" unicode="&#x165;" horiz-adv-x="385" 
d="M311 545v50h10c37 0 55 13 55 40v5h-45v100h95v-105c0 -26 -9 -47 -26 -65c-18 -16 -43 -25 -74 -25h-15zM237 0c-35 0 -62 10 -81 29s-29 46 -29 81v308h-110v82h110v162h95v-162h120v-82h-120v-293c0 -15 3 -25 9 -31s16 -9 31 -9h95v-85h-120z" />
    <glyph glyph-name="uni0163" unicode="&#x163;" horiz-adv-x="385" 
d="M357 0h-110v-45c27 -2 48 -11 63 -27c16 -16 24 -37 24 -63c0 -30 -11 -54 -33 -73c-22 -18 -49 -27 -82 -27h-62v65h62c33 0 50 12 50 37c0 12 -4 21 -12 28s-19 10 -34 10h-31v102c-21 7 -38 20 -48 37c-12 17 -17 39 -17 66v308h-110v82h110v162h95v-162h120v-82h-120
v-293c0 -15 3 -25 9 -31s16 -9 31 -9h95v-85z" />
    <glyph glyph-name="uni021B" unicode="&#x21b;" horiz-adv-x="385" 
d="M237 0c-35 0 -62 10 -81 29s-29 46 -29 81v308h-110v82h110v162h95v-162h120v-82h-120v-293c0 -15 3 -25 9 -31s16 -9 31 -9h95v-85h-120zM152 -285v50h10c37 0 55 13 55 40v5h-45v100h95v-105c0 -26 -9 -47 -27 -65c-17 -16 -42 -25 -73 -25h-15z" />
    <glyph glyph-name="u" unicode="u" horiz-adv-x="570" 
d="M114 40c-29 32 -44 76 -44 130v330h95v-310c0 -80 34 -120 101 -120h8c22 0 42 6 62 20c18 12 34 31 46 56c12 24 18 52 18 84v270h95v-500h-95v95c-11 -30 -30 -55 -58 -75c-27 -20 -61 -30 -102 -30c-55 0 -97 16 -126 50z" />
    <glyph glyph-name="uacute" unicode="&#xfa;" horiz-adv-x="570" 
d="M315 565h-65l55 135h100zM114 40c-29 32 -44 76 -44 130v330h95v-310c0 -80 34 -120 101 -120h8c22 0 42 6 62 20c18 12 34 31 46 56c12 24 18 52 18 84v270h95v-500h-95v95c-11 -30 -30 -55 -58 -75c-27 -20 -61 -30 -102 -30c-55 0 -97 16 -126 50z" />
    <glyph glyph-name="ubreve" unicode="&#x16d;" horiz-adv-x="570" 
d="M178 592c-27 25 -42 61 -45 108h70c3 -28 11 -48 25 -61c15 -13 33 -19 55 -19s40 6 55 19c14 13 22 33 25 61h70c-3 -47 -18 -82 -47 -108c-29 -24 -63 -37 -103 -37c-42 0 -77 12 -105 37zM114 40c-29 32 -44 76 -44 130v330h95v-310c0 -80 34 -120 101 -120h8
c22 0 42 6 62 20c18 12 34 31 46 56c12 24 18 52 18 84v270h95v-500h-95v95c-11 -30 -30 -55 -58 -75c-27 -20 -61 -30 -102 -30c-55 0 -97 16 -126 50z" />
    <glyph glyph-name="ucircumflex" unicode="&#xfb;" horiz-adv-x="570" 
d="M383 565l-99 75l-101 -75h-70l120 135h100l120 -135h-70zM400 500h95v-500h-95v95c-11 -30 -30 -55 -58 -75c-27 -20 -61 -30 -102 -30c-55 0 -97 16 -126 50c-29 32 -44 76 -44 130v330h95v-310c0 -80 34 -120 101 -120h8c22 0 42 6 62 20c18 12 34 31 46 56
c12 24 18 52 18 84v270z" />
    <glyph glyph-name="udieresis" unicode="&#xfc;" horiz-adv-x="570" 
d="M238 590h-100v105h100v-105zM428 590h-100v105h100v-105zM114 40c-29 32 -44 76 -44 130v330h95v-310c0 -80 34 -120 101 -120h8c22 0 42 6 62 20c18 12 34 31 46 56c12 24 18 52 18 84v270h95v-500h-95v95c-11 -30 -30 -55 -58 -75c-27 -20 -61 -30 -102 -30
c-55 0 -97 16 -126 50z" />
    <glyph glyph-name="ugrave" unicode="&#xf9;" horiz-adv-x="570" 
d="M315 565h-65l-90 135h100zM114 40c-29 32 -44 76 -44 130v330h95v-310c0 -80 34 -120 101 -120h8c22 0 42 6 62 20c18 12 34 31 46 56c12 24 18 52 18 84v270h95v-500h-95v95c-11 -30 -30 -55 -58 -75c-27 -20 -61 -30 -102 -30c-55 0 -97 16 -126 50z" />
    <glyph glyph-name="uhungarumlaut" unicode="&#x171;" horiz-adv-x="570" 
d="M230 565h-65l55 135h100zM389 565h-65l55 135h100zM114 40c-29 32 -44 76 -44 130v330h95v-310c0 -80 34 -120 101 -120h8c22 0 42 6 62 20c18 12 34 31 46 56c12 24 18 52 18 84v270h95v-500h-95v95c-11 -30 -30 -55 -58 -75c-27 -20 -61 -30 -102 -30
c-55 0 -97 16 -126 50z" />
    <glyph glyph-name="umacron" unicode="&#x16b;" horiz-adv-x="570" 
d="M425 590h-285v75h285v-75zM114 40c-29 32 -44 76 -44 130v330h95v-310c0 -80 34 -120 101 -120h8c22 0 42 6 62 20c18 12 34 31 46 56c12 24 18 52 18 84v270h95v-500h-95v95c-11 -30 -30 -55 -58 -75c-27 -20 -61 -30 -102 -30c-55 0 -97 16 -126 50z" />
    <glyph glyph-name="uogonek" unicode="&#x173;" horiz-adv-x="570" 
d="M495 0c-27 -17 -47 -33 -63 -48c-14 -16 -22 -33 -22 -52c0 -27 22 -40 65 -40h15v-65h-34c-35 0 -63 8 -82 24s-29 36 -29 61c0 27 8 50 25 70c17 21 37 37 60 50h-30v95c-11 -30 -30 -55 -58 -75c-27 -20 -61 -30 -102 -30c-55 0 -97 16 -126 50c-29 32 -44 76 -44 130
v330h95v-310c0 -80 34 -120 101 -120h8c22 0 42 6 62 20c18 12 34 31 46 56c12 24 18 52 18 84v270h95v-500z" />
    <glyph glyph-name="uring" unicode="&#x16f;" horiz-adv-x="570" 
d="M216 582c-20 18 -29 40 -29 67s9 49 29 67c18 18 41 27 66 27s48 -9 67 -27s29 -40 29 -67s-10 -49 -29 -67s-42 -27 -67 -27s-48 9 -66 27zM314 618c8 9 12 19 12 31s-4 22 -12 31c-9 9 -19 13 -31 13s-22 -4 -31 -13s-13 -19 -13 -31s4 -22 13 -31s19 -13 31 -13
s22 4 31 13zM114 40c-29 32 -44 76 -44 130v330h95v-310c0 -80 34 -120 101 -120h8c22 0 42 6 62 20c18 12 34 31 46 56c12 24 18 52 18 84v270h95v-500h-95v95c-11 -30 -30 -55 -58 -75c-27 -20 -61 -30 -102 -30c-55 0 -97 16 -126 50z" />
    <glyph glyph-name="utilde" unicode="&#x169;" horiz-adv-x="570" 
d="M326 564c-12 5 -28 14 -47 25l-25 15c-17 11 -33 16 -47 16c-23 0 -34 -18 -34 -55h-70v26c0 29 9 54 27 74s41 30 70 30c24 0 53 -11 88 -33l21 -13c21 -13 37 -19 49 -19c11 0 19 5 25 14s9 23 9 41h70v-26c0 -29 -9 -54 -26 -74c-18 -20 -41 -30 -69 -30
c-14 0 -27 3 -41 9zM114 40c-29 32 -44 76 -44 130v330h95v-310c0 -80 34 -120 101 -120h8c22 0 42 6 62 20c18 12 34 31 46 56c12 24 18 52 18 84v270h95v-500h-95v95c-11 -30 -30 -55 -58 -75c-27 -20 -61 -30 -102 -30c-55 0 -97 16 -126 50z" />
    <glyph glyph-name="v" unicode="v" horiz-adv-x="517" 
d="M259 93l145 407h97l-185 -500h-115l-185 500h98z" />
    <glyph glyph-name="w" unicode="w" horiz-adv-x="780" 
d="M555 105l105 395h100l-155 -500h-105l-110 391l-110 -391h-105l-155 500h100l110 -395l110 395h100z" />
    <glyph glyph-name="wacute" unicode="&#x1e83;" horiz-adv-x="780" 
d="M412 700h100l-90 -135h-65zM555 105l105 395h100l-155 -500h-105l-110 391l-110 -391h-105l-155 500h100l110 -395l110 395h100z" />
    <glyph glyph-name="wcircumflex" unicode="&#x175;" horiz-adv-x="780" 
d="M490 565l-99 75l-101 -75h-70l120 135h100l120 -135h-70zM555 105l105 395h100l-155 -500h-105l-110 391l-110 -391h-105l-155 500h100l110 -395l110 395h100z" />
    <glyph glyph-name="wdieresis" unicode="&#x1e85;" horiz-adv-x="780" 
d="M245 695h100v-105h-100v105zM435 695h100v-105h-100v105zM555 105l105 395h100l-155 -500h-105l-110 391l-110 -391h-105l-155 500h100l110 -395l110 395h100z" />
    <glyph glyph-name="wgrave" unicode="&#x1e81;" horiz-adv-x="780" 
d="M367 700l55 -135h-65l-90 135h100zM555 105l105 395h100l-155 -500h-105l-110 391l-110 -391h-105l-155 500h100l110 -395l110 395h100z" />
    <glyph glyph-name="x" unicode="x" horiz-adv-x="514" 
d="M125 0h-108l185 252l-180 248h111l125 -172l126 172h108l-180 -246l185 -254h-111l-130 179z" />
    <glyph glyph-name="y" unicode="y" horiz-adv-x="536" 
d="M525 500l-205 -489v-91c0 -70 -35 -105 -105 -105h-165v85h140c15 0 26 3 32 8c5 6 8 17 8 32v70l-210 490h101l156 -369l150 369h98z" />
    <glyph glyph-name="yacute" unicode="&#xfd;" horiz-adv-x="536" 
d="M296 700h100l-90 -135h-65zM525 500l-205 -489v-91c0 -70 -35 -105 -105 -105h-165v85h140c15 0 26 3 32 8c5 6 8 17 8 32v70l-210 490h101l156 -369l150 369h98z" />
    <glyph glyph-name="ycircumflex" unicode="&#x177;" horiz-adv-x="536" 
d="M374 565l-99 75l-101 -75h-70l120 135h100l120 -135h-70zM525 500l-205 -489v-91c0 -70 -35 -105 -105 -105h-165v85h140c15 0 26 3 32 8c5 6 8 17 8 32v70l-210 490h101l156 -369l150 369h98z" />
    <glyph glyph-name="ydieresis" unicode="&#xff;" horiz-adv-x="536" 
d="M129 695h100v-105h-100v105zM319 695h100v-105h-100v105zM525 500l-205 -489v-91c0 -70 -35 -105 -105 -105h-165v85h140c15 0 26 3 32 8c5 6 8 17 8 32v70l-210 490h101l156 -369l150 369h98z" />
    <glyph glyph-name="ygrave" unicode="&#x1ef3;" horiz-adv-x="536" 
d="M251 700l55 -135h-65l-90 135h100zM525 500l-205 -489v-91c0 -70 -35 -105 -105 -105h-165v85h140c15 0 26 3 32 8c5 6 8 17 8 32v70l-210 490h101l156 -369l150 369h98z" />
    <glyph glyph-name="uni0233" unicode="&#x233;" horiz-adv-x="536" 
d="M131 665h285v-75h-285v75zM525 500l-205 -489v-91c0 -70 -35 -105 -105 -105h-165v85h140c15 0 26 3 32 8c5 6 8 17 8 32v70l-210 490h101l156 -369l150 369h98z" />
    <glyph glyph-name="y.ss04" horiz-adv-x="526" 
d="M415 500h98l-239 -605c-13 -31 -28 -53 -46 -63c-19 -12 -44 -17 -76 -17h-114v85h99c17 0 30 2 39 8c8 4 15 15 21 30l30 76l-219 486h101l165 -365z" />
    <glyph glyph-name="yacute.ss04" horiz-adv-x="526" 
d="M284 700h100l-90 -135h-65zM415 500h98l-239 -605c-13 -31 -28 -53 -46 -63c-19 -12 -44 -17 -76 -17h-114v85h99c17 0 30 2 39 8c8 4 15 15 21 30l30 76l-219 486h101l165 -365z" />
    <glyph glyph-name="ycircumflex.ss04" horiz-adv-x="526" 
d="M362 565l-99 75l-101 -75h-70l120 135h100l120 -135h-70zM415 500h98l-239 -605c-13 -31 -28 -53 -46 -63c-19 -12 -44 -17 -76 -17h-114v85h99c17 0 30 2 39 8c8 4 15 15 21 30l30 76l-219 486h101l165 -365z" />
    <glyph glyph-name="ydieresis.ss04" horiz-adv-x="526" 
d="M117 695h100v-105h-100v105zM307 695h100v-105h-100v105zM415 500h98l-239 -605c-13 -31 -28 -53 -46 -63c-19 -12 -44 -17 -76 -17h-114v85h99c17 0 30 2 39 8c8 4 15 15 21 30l30 76l-219 486h101l165 -365z" />
    <glyph glyph-name="ygrave.ss04" horiz-adv-x="526" 
d="M239 700l55 -135h-65l-90 135h100zM415 500h98l-239 -605c-13 -31 -28 -53 -46 -63c-19 -12 -44 -17 -76 -17h-114v85h99c17 0 30 2 39 8c8 4 15 15 21 30l30 76l-219 486h101l165 -365z" />
    <glyph glyph-name="uni0233.ss04" horiz-adv-x="526" 
d="M119 665h285v-75h-285v75zM415 500h98l-239 -605c-13 -31 -28 -53 -46 -63c-19 -12 -44 -17 -76 -17h-114v85h99c17 0 30 2 39 8c8 4 15 15 21 30l30 76l-219 486h101l165 -365z" />
    <glyph glyph-name="z" unicode="z" horiz-adv-x="494" 
d="M442 415l-288 -333h303v-82h-415v85l288 333h-283v82h395v-85z" />
    <glyph glyph-name="zacute" unicode="&#x17a;" horiz-adv-x="494" 
d="M271 700h100l-90 -135h-65zM442 415l-288 -333h303v-82h-415v85l288 333h-283v82h395v-85z" />
    <glyph glyph-name="zcaron" unicode="&#x17e;" horiz-adv-x="494" 
d="M419 700l-120 -135h-100l-120 135h70l101 -75l99 75h70zM442 415l-288 -333h303v-82h-415v85l288 333h-283v82h395v-85z" />
    <glyph glyph-name="zdotaccent" unicode="&#x17c;" horiz-adv-x="494" 
d="M196 700h105v-110h-105v110zM442 415l-288 -333h303v-82h-415v85l288 333h-283v82h395v-85z" />
    <glyph glyph-name="I_S_B_N" horiz-adv-x="2234" 
d="M1620 450c0 79 23 142 68 190c46 46 112 70 197 70c87 0 153 -23 198 -70s67 -110 67 -190v-450h-100v440c0 58 -14 102 -41 134c-27 30 -67 46 -119 46h-10c-52 0 -92 -16 -119 -46c-27 -32 -41 -76 -41 -134v-440h-100v450zM90 0v700h100v-610h410c49 0 85 9 109 26
c24 18 36 43 36 74s-11 55 -31 72c-22 17 -51 30 -89 38l-100 20c-57 11 -101 31 -133 60c-31 29 -47 72 -47 130c0 38 10 71 31 100s50 51 88 66c38 16 82 24 131 24h675c37 0 70 -8 101 -22c31 -16 55 -37 73 -65c17 -28 26 -61 26 -98c0 -39 -10 -72 -31 -99
s-48 -48 -83 -61c40 -7 72 -25 94 -53c24 -30 35 -67 35 -112c0 -37 -9 -70 -28 -100c-19 -28 -44 -51 -75 -66c-31 -16 -65 -24 -102 -24h-315v400h290c35 0 63 9 84 28s31 44 31 77s-10 58 -31 77s-49 28 -84 28h-665c-45 0 -81 -8 -106 -25c-26 -17 -39 -40 -39 -70
c0 -31 9 -54 27 -69c19 -15 45 -26 78 -31l100 -20c57 -11 103 -33 140 -65c37 -31 55 -75 55 -130c0 -61 -22 -109 -65 -146c-43 -36 -108 -54 -195 -54h-495zM1260 90c38 0 68 10 91 29s34 46 34 81s-11 62 -34 81s-53 29 -91 29h-195v-220h195z" />
    <glyph glyph-name="f_f" unicode="&#xfb00;" horiz-adv-x="712" 
d="M133 0v418h-110v82h110v95c0 70 35 105 105 105h140v-83h-110c-15 0 -25 -3 -31 -9c-6 -5 -9 -16 -9 -31v-77h240v95c0 70 35 105 105 105h140v-83h-110c-15 0 -25 -3 -31 -9c-6 -5 -9 -16 -9 -31v-77h125v-82h-125v-418h-95v418h-240v-418h-95z" />
    <glyph glyph-name="f_f_i" unicode="&#xfb03;" horiz-adv-x="973" 
d="M133 0v418h-110v82h110v95c0 70 35 105 105 105h140v-83h-110c-15 0 -25 -3 -31 -9c-6 -5 -9 -16 -9 -31v-77h240v95c0 70 35 105 105 105h140v-83h-110c-15 0 -25 -3 -31 -9c-6 -5 -9 -16 -9 -31v-77h335v-500h-95v418h-240v-418h-95v418h-240v-418h-95zM903 590h-105
v110h105v-110z" />
    <glyph glyph-name="f_f_l" unicode="&#xfb04;" horiz-adv-x="973" 
d="M133 0v418h-110v82h110v95c0 70 35 105 105 105h140v-83h-110c-15 0 -25 -3 -31 -9c-6 -5 -9 -16 -9 -31v-77h240v95c0 70 35 105 105 105h325v-700h-95v617h-200c-15 0 -25 -3 -31 -9c-6 -5 -9 -16 -9 -31v-77h125v-82h-125v-418h-95v418h-240v-418h-95z" />
    <glyph glyph-name="fi" unicode="&#xfb01;" horiz-adv-x="638" 
d="M133 0v418h-110v82h110v95c0 70 35 105 105 105h140v-83h-110c-15 0 -25 -3 -31 -9c-6 -5 -9 -16 -9 -31v-77h335v-500h-95v418h-240v-418h-95zM568 590h-105v110h105v-110z" />
    <glyph glyph-name="fl" unicode="&#xfb02;" horiz-adv-x="638" 
d="M133 0v418h-110v82h110v95c0 70 35 105 105 105h325v-700h-95v617h-200c-15 0 -25 -3 -31 -9c-6 -5 -9 -16 -9 -31v-77h125v-82h-125v-418h-95z" />
    <glyph glyph-name="w_w_w.liga" horiz-adv-x="2060" 
d="M280 0h-105l-155 500h100l110 -395l110 395h100l115 -395l105 395h100l110 -395l110 395h100l115 -395l105 395h100l110 -395l110 395h100l115 -395l105 395h100l-155 -500h-105l-110 391l-110 -391h-105l-105 339l-105 -339h-105l-110 391l-110 -391h-105l-105 339
l-105 -339h-105l-110 391z" />
    <glyph glyph-name="ordfeminine" unicode="&#xaa;" horiz-adv-x="369" 
d="M78 433c-17 15 -26 36 -26 62s9 46 26 61c17 14 41 23 70 26l85 10v8c0 31 -18 47 -54 47h-3c-13 0 -24 -3 -32 -9c-10 -6 -15 -15 -16 -27h-71c1 30 14 53 37 69c23 17 52 25 85 25c34 0 63 -9 87 -27c24 -19 36 -44 36 -75v-125c0 -28 1 -49 3 -63h-63
c-3 17 -5 33 -5 49c-6 -17 -17 -31 -35 -40c-16 -9 -35 -14 -56 -14c-27 0 -50 8 -68 23zM164 468c19 0 35 5 48 16c14 10 21 24 21 43v18l-69 -8c-11 -1 -20 -5 -28 -13c-7 -6 -11 -15 -11 -25c0 -9 3 -17 11 -23c6 -5 15 -8 25 -8h3z" />
    <glyph glyph-name="ordfeminine.ss01" horiz-adv-x="369" 
d="M71 452c-21 29 -31 64 -31 106s11 77 33 105s52 42 90 42c20 0 37 -5 53 -15c14 -9 25 -20 30 -31v41h73v-285h-73v39c-23 -29 -52 -44 -87 -44c-38 0 -67 14 -88 42zM228 494c11 16 17 37 17 62c0 26 -6 47 -17 64c-11 16 -27 24 -48 24s-37 -8 -48 -24
c-11 -15 -17 -36 -17 -62s6 -47 17 -63s27 -24 48 -24s37 8 48 23z" />
    <glyph glyph-name="ordmasculine" unicode="&#xba;" horiz-adv-x="374" 
d="M85 450c-25 27 -38 62 -38 107s13 81 38 107c25 28 59 41 102 41s77 -13 102 -41c25 -26 38 -62 38 -107s-13 -80 -38 -107s-59 -40 -102 -40s-77 13 -102 40zM191 471c19 0 34 8 45 24s16 37 16 62s-6 46 -16 63c-12 16 -27 24 -46 24h-6c-19 0 -34 -8 -46 -24
c-10 -17 -16 -38 -16 -63s6 -46 16 -62c12 -16 27 -24 46 -24h7z" />
    <glyph glyph-name="a.sups" horiz-adv-x="330" 
d="M58 433c-17 15 -26 36 -26 62s9 46 26 61c17 14 41 23 70 26l85 10v8c0 31 -18 47 -54 47h-3c-13 0 -24 -3 -32 -9c-10 -6 -15 -15 -16 -27h-71c1 30 14 53 37 69c23 17 52 25 85 25c34 0 63 -9 87 -27c24 -19 36 -44 36 -75v-125c0 -28 1 -49 3 -63h-63
c-3 17 -5 33 -5 49c-6 -17 -17 -31 -35 -40c-16 -9 -35 -14 -56 -14c-27 0 -50 8 -68 23zM144 468c19 0 35 5 48 16c14 10 21 24 21 43v18l-69 -8c-11 -1 -20 -5 -28 -13c-7 -6 -11 -15 -11 -25c0 -9 3 -17 11 -23c6 -5 15 -8 25 -8h3z" />
    <glyph glyph-name="a.sups.ss01" horiz-adv-x="362" 
d="M71 452c-21 29 -31 64 -31 106s11 77 33 105s52 42 90 42c20 0 37 -5 53 -15c14 -9 25 -20 30 -31v41h73v-285h-73v39c-23 -29 -52 -44 -87 -44c-38 0 -67 14 -88 42zM228 494c11 16 17 37 17 62c0 26 -6 47 -17 64c-11 16 -27 24 -48 24s-37 -8 -48 -24
c-11 -15 -17 -36 -17 -62s6 -47 17 -63s27 -24 48 -24s37 8 48 23z" />
    <glyph glyph-name="b.sups" horiz-adv-x="362" 
d="M124 455v-40h-73v395h73v-150c5 11 16 22 30 31c16 9 33 14 53 14c38 0 68 -14 90 -42s33 -63 33 -105s-10 -77 -31 -106c-21 -28 -50 -42 -88 -42c-35 0 -64 15 -87 45zM238 495c11 16 17 37 17 63s-6 47 -17 62c-11 16 -27 24 -48 24s-37 -8 -48 -24
c-11 -15 -17 -36 -17 -62s6 -47 17 -63s27 -24 48 -24s37 8 48 24z" />
    <glyph glyph-name="c.sups" horiz-adv-x="328" 
d="M70 452c-25 27 -38 62 -38 105c0 47 14 83 40 109c28 26 63 39 106 39c33 0 60 -9 83 -27c23 -17 35 -41 38 -72h-73c-1 12 -6 21 -16 28c-8 7 -19 10 -32 10h-3c-23 0 -40 -8 -52 -25s-18 -37 -18 -62c0 -24 5 -44 17 -61c10 -17 27 -25 48 -25h3c13 0 24 3 33 10
s15 16 18 27h73c-3 -31 -16 -56 -41 -72c-24 -18 -53 -26 -87 -26c-41 0 -74 14 -99 42z" />
    <glyph glyph-name="d.sups" horiz-adv-x="362" 
d="M63 452c-21 29 -31 64 -31 106s11 77 33 105s52 42 90 42c20 0 37 -5 53 -14c14 -9 25 -20 30 -31v150h73v-395h-73v40c-23 -30 -52 -45 -87 -45c-38 0 -67 14 -88 42zM220 495c11 16 17 37 17 63s-6 47 -17 62c-11 16 -27 24 -48 24s-37 -8 -48 -24
c-11 -15 -17 -36 -17 -62s6 -47 17 -63s27 -24 48 -24s37 8 48 24z" />
    <glyph glyph-name="e.sups" horiz-adv-x="336" 
d="M71 451c-27 27 -40 61 -40 102c0 45 13 82 37 110c26 28 59 42 101 42c41 0 74 -14 99 -41s37 -62 37 -105c0 -9 0 -15 -1 -20h-204c1 -20 9 -36 22 -49s30 -19 50 -19h5c11 0 21 3 29 8c9 5 15 13 20 23h72c-4 -30 -18 -53 -41 -68c-23 -16 -52 -24 -85 -24
c-41 0 -74 14 -101 41zM232 591c-1 15 -7 28 -18 38s-25 15 -43 15h-4c-18 0 -33 -5 -45 -15s-19 -23 -20 -38h130z" />
    <glyph glyph-name="f.sups" horiz-adv-x="230" 
d="M71 415v223h-56v62h56v38c0 21 6 39 19 52c12 13 29 20 51 20h96v-60h-68c-10 0 -17 -2 -20 -8c-3 -4 -5 -12 -5 -23v-19h71v-62h-71v-223h-73z" />
    <glyph glyph-name="g.sups" horiz-adv-x="360" 
d="M71 320c-23 17 -35 39 -36 68h74c7 -21 27 -32 61 -32h3c21 0 36 5 47 14c11 10 16 27 16 50v35c-7 -12 -17 -23 -31 -31c-14 -10 -31 -14 -50 -14c-37 0 -67 14 -89 42c-23 29 -34 64 -34 105c0 42 10 77 32 105c20 29 50 43 87 43c20 0 37 -5 51 -14
c15 -9 26 -20 34 -31v40h73v-288c0 -37 -12 -65 -36 -86s-60 -31 -109 -31c-39 0 -70 8 -93 25zM220 495c11 16 17 37 17 63s-6 47 -17 62c-11 16 -27 24 -48 24s-37 -8 -49 -24s-18 -37 -18 -63c0 -25 6 -46 17 -62c12 -16 29 -24 50 -24s37 8 48 24z" />
    <glyph glyph-name="h.sups" horiz-adv-x="361" 
d="M51 415v395h73v-167c7 17 18 31 34 43c16 13 36 19 61 19c30 0 53 -10 70 -30s25 -46 25 -78v-182h-73v172c0 18 -5 32 -13 42c-10 10 -21 15 -36 15h-6c-17 0 -32 -7 -44 -21s-18 -31 -18 -51v-157h-73z" />
    <glyph glyph-name="i.sups" horiz-adv-x="175" 
d="M127 737h-79v73h79v-73zM124 415h-73v285h73v-285z" />
    <glyph glyph-name="j.sups" horiz-adv-x="175" 
d="M127 737h-79v73h79v-73zM-34 300v64h54c12 0 20 2 24 8c5 4 7 12 7 22v306h73v-330c0 -20 -6 -37 -19 -50s-30 -20 -53 -20h-86z" />
    <glyph glyph-name="k.sups" horiz-adv-x="343" 
d="M327 415h-87l-77 118l-39 -42v-76h-73v395h73v-227l103 117h92l-107 -115z" />
    <glyph glyph-name="l.sups" horiz-adv-x="175" 
d="M124 415h-73v395h73v-395z" />
    <glyph glyph-name="m.sups" horiz-adv-x="539" 
d="M51 415v285h73v-50c7 15 18 28 32 39c16 11 33 16 52 16c43 0 73 -18 89 -53c23 35 55 53 96 53c32 0 57 -10 73 -31c18 -20 26 -47 26 -82v-177h-73v172c0 38 -15 57 -46 57h-3c-17 0 -32 -7 -44 -22c-12 -14 -18 -31 -18 -50v-157h-73v172c0 19 -4 33 -12 43
c-8 9 -19 14 -34 14h-3c-19 0 -34 -7 -45 -22c-11 -14 -17 -31 -17 -52v-155h-73z" />
    <glyph glyph-name="n.sups" horiz-adv-x="361" 
d="M51 415v285h73v-57c7 17 18 31 34 43c16 13 36 19 61 19c30 0 53 -10 70 -30s25 -46 25 -78v-182h-73v172c0 18 -5 32 -13 42c-10 10 -21 15 -36 15h-6c-17 0 -32 -7 -44 -21s-18 -31 -18 -51v-157h-73z" />
    <glyph glyph-name="o.sups" horiz-adv-x="344" 
d="M70 450c-25 27 -38 62 -38 107s13 81 38 107c25 28 59 41 102 41s77 -13 102 -41c25 -26 38 -62 38 -107s-13 -80 -38 -107s-59 -40 -102 -40s-77 13 -102 40zM176 471c19 0 34 8 45 24s16 37 16 62s-5 46 -17 63c-10 16 -26 24 -45 24h-6c-19 0 -35 -8 -45 -24
c-12 -17 -17 -38 -17 -63s5 -46 17 -62c10 -16 26 -24 45 -24h7z" />
    <glyph glyph-name="p.sups" horiz-adv-x="362" 
d="M51 305v395h73v-40c23 30 52 45 87 45c38 0 67 -14 88 -43c21 -28 31 -63 31 -105s-11 -77 -33 -105s-52 -42 -90 -42c-20 0 -37 5 -53 14c-14 9 -25 20 -30 31v-150h-73zM238 494c11 16 17 37 17 63s-6 47 -17 63s-27 24 -48 24s-37 -8 -48 -24s-17 -37 -17 -63
s6 -47 17 -63c11 -15 27 -23 48 -23s37 8 48 23z" />
    <glyph glyph-name="q.sups" horiz-adv-x="362" 
d="M238 455c-5 -11 -16 -22 -30 -31c-16 -9 -33 -14 -53 -14c-38 0 -68 14 -90 42s-33 63 -33 105s10 77 31 105c21 29 50 43 88 43c35 0 64 -15 87 -45v40h73v-395h-73v150zM220 494c11 16 17 37 17 63s-6 47 -17 63s-27 24 -48 24s-37 -8 -48 -24s-17 -37 -17 -63
s6 -47 17 -63c11 -15 27 -23 48 -23s37 8 48 23z" />
    <glyph glyph-name="r.sups" horiz-adv-x="238" 
d="M51 415v285h73v-57c5 19 15 34 30 45c14 11 31 17 52 17h17v-67h-25c-25 0 -44 -8 -56 -26c-12 -16 -18 -38 -18 -65v-132h-73z" />
    <glyph glyph-name="s.sups" horiz-adv-x="318" 
d="M68 436c-25 16 -37 41 -37 72h73c0 -13 5 -24 16 -30c10 -8 23 -11 38 -11h6c33 0 49 10 49 29c0 15 -12 25 -36 29l-48 7c-27 4 -49 13 -65 26c-18 14 -26 33 -26 57c0 28 12 50 35 66s52 24 85 24c35 0 64 -8 86 -25c22 -16 35 -40 38 -71h-72c-1 12 -6 21 -14 29
c-10 6 -21 10 -34 10h-6c-13 0 -23 -2 -32 -6c-9 -5 -13 -12 -13 -22c0 -16 13 -26 40 -30l40 -6c29 -4 53 -13 69 -28c18 -14 26 -33 26 -58c0 -29 -12 -50 -37 -66c-25 -14 -54 -22 -89 -22c-37 0 -67 8 -92 26z" />
    <glyph glyph-name="t.sups" horiz-adv-x="253" 
d="M139 415c-23 0 -40 7 -53 20s-19 30 -19 50v153h-54v62h54v90h73v-90h79v-62h-79v-129c0 -10 2 -17 6 -23c5 -4 13 -7 25 -7h54v-64h-86z" />
    <glyph glyph-name="u.sups" horiz-adv-x="359" 
d="M73 440c-17 20 -25 46 -25 78v182h73v-172c0 -18 4 -32 13 -42c8 -10 19 -15 33 -15h6c17 0 32 7 44 21s18 31 18 51v157h73v-285h-73v57c-7 -17 -18 -31 -33 -44c-16 -12 -36 -18 -59 -18c-30 0 -53 10 -70 30z" />
    <glyph glyph-name="v.sups" horiz-adv-x="318" 
d="M160 496l74 204h71l-104 -285h-84l-104 285h73z" />
    <glyph glyph-name="w.sups" horiz-adv-x="476" 
d="M328 511l57 189h70l-90 -285h-67l-60 197l-57 -197h-67l-96 285h73l56 -190l57 190h73z" />
    <glyph glyph-name="x.sups" horiz-adv-x="325" 
d="M100 415h-79l101 142l-100 143h81l60 -86l61 86h79l-101 -141l101 -144h-81l-61 86z" />
    <glyph glyph-name="y.sups" horiz-adv-x="321" 
d="M32 300v64h60c21 0 31 10 31 31v42l-118 263h75l82 -186l82 186h73l-121 -262v-68c0 -20 -6 -37 -19 -50s-30 -20 -52 -20h-93z" />
    <glyph glyph-name="y.sups.ss04" horiz-adv-x="320" 
d="M11 302v64h62c11 0 19 4 24 12c5 7 11 18 16 33l9 23l-118 266h75l82 -188l82 188h73l-147 -326c-9 -21 -17 -35 -21 -44c-6 -8 -12 -15 -20 -20c-9 -5 -20 -8 -34 -8h-83z" />
    <glyph glyph-name="z.sups" horiz-adv-x="316" 
d="M283 415h-248v49l148 172h-145v64h235v-57l-145 -164h155v-64z" />
    <glyph glyph-name="uni0394" unicode="&#x394;" horiz-adv-x="696" 
d="M290 700h120l269 -656v-44h-662v44zM556 90l-208 507l-210 -507h418z" />
    <glyph glyph-name="uni03A9" unicode="&#x3a9;" horiz-adv-x="778" 
d="M65 0v90h128c-89 71 -133 163 -133 277c0 63 14 120 41 173c27 52 66 93 116 124s107 46 172 46s122 -15 171 -46c50 -30 89 -71 116 -123c28 -52 42 -109 42 -172c0 -117 -44 -210 -133 -279h128v-90h-253v89c51 33 90 72 117 116s41 96 41 157c0 49 -10 94 -28 132
c-20 40 -46 70 -80 92c-34 23 -73 34 -116 34h-10c-44 0 -83 -11 -117 -34c-34 -22 -60 -53 -79 -92s-28 -84 -28 -134c0 -60 14 -112 41 -156c27 -43 66 -82 117 -115v-89h-253z" />
    <glyph glyph-name="uni03BC" unicode="&#x3bc;" horiz-adv-x="594" 
d="M563 80v-80h-54c-31 0 -56 7 -73 21s-26 34 -26 61v5c-14 -33 -33 -57 -58 -73c-24 -16 -52 -24 -84 -24c-20 0 -39 4 -57 12c-18 7 -32 18 -41 32v-234h-95v700h95v-308c0 -39 8 -70 25 -90c17 -22 41 -32 74 -32h9c22 0 42 7 62 20c18 13 34 32 46 56
c11 23 17 50 17 80v274h95v-370c0 -19 3 -32 10 -39s19 -11 37 -11h18z" />
    <glyph glyph-name="pi" unicode="&#x3c0;" horiz-adv-x="598" 
d="M102 0v420h-65v80h513v-80h-65v-292c0 -17 3 -29 9 -34c6 -6 17 -9 34 -9h17v-85h-43c-39 0 -67 10 -85 30c-18 21 -27 48 -27 83v307h-193v-420h-95z" />
    <glyph glyph-name="zero" unicode="0" horiz-adv-x="662" 
d="M128 82c-48 62 -72 151 -72 268s24 206 72 268c48 61 116 92 203 92s155 -31 203 -92c48 -62 72 -151 72 -268s-24 -206 -72 -268c-48 -61 -116 -92 -203 -92s-155 31 -203 92zM336 75c28 0 55 9 81 25c26 18 48 46 65 88c17 40 26 95 26 162s-9 122 -26 162
c-17 42 -39 70 -65 88c-26 16 -53 25 -81 25h-10c-28 0 -55 -9 -81 -25c-26 -18 -48 -46 -65 -88c-17 -40 -26 -95 -26 -162s9 -122 26 -162c17 -42 39 -70 65 -88c26 -16 53 -25 81 -25h10z" />
    <glyph glyph-name="one" unicode="1" horiz-adv-x="380" 
d="M33 525l180 175h75v-700h-96v559l-159 -154v120z" />
    <glyph glyph-name="two" unicode="2" horiz-adv-x="574" 
d="M162 90h361v-90h-473v106l226 215c-1 -1 10 9 32 29c24 22 43 40 57 55s26 31 35 51c10 18 15 39 15 62c0 32 -11 58 -33 78c-23 19 -51 29 -85 29h-10c-38 0 -69 -13 -93 -38c-25 -25 -37 -57 -37 -96h-100c0 44 10 83 31 115c21 34 49 59 84 77s75 27 120 27
c41 0 78 -7 112 -22c33 -15 60 -36 80 -64c19 -29 29 -62 29 -101c0 -35 -7 -67 -23 -96c-14 -29 -32 -55 -52 -77c-21 -21 -50 -50 -89 -87z" />
    <glyph glyph-name="three" unicode="3" horiz-adv-x="585" 
d="M122 42c-44 35 -69 82 -76 141h97c7 -34 23 -61 47 -79c26 -20 57 -29 94 -29h9c38 0 70 11 96 32s39 49 39 83c0 36 -12 65 -36 86c-23 21 -54 32 -91 32h-60v84h60c36 0 65 12 88 34c23 24 34 51 34 84c0 35 -12 63 -37 84c-24 21 -55 31 -93 31h-9
c-34 0 -64 -11 -88 -31c-26 -22 -39 -48 -42 -79h-95c2 37 13 70 35 99c20 30 48 54 84 70c34 18 73 26 116 26c41 0 78 -8 114 -25c34 -17 62 -39 82 -67c21 -29 31 -60 31 -93c0 -43 -11 -80 -33 -110c-23 -30 -52 -51 -88 -62c37 -9 67 -28 90 -57c24 -29 36 -66 36 -111
c0 -37 -10 -70 -30 -99c-21 -30 -49 -54 -85 -70c-36 -18 -77 -26 -122 -26c-68 0 -124 17 -167 52z" />
    <glyph glyph-name="four" unicode="4" horiz-adv-x="611" 
d="M469 0h-96v159h-344v96l345 445h95v-456h110v-85h-110v-159zM373 566l-250 -322h250v322z" />
    <glyph glyph-name="five" unicode="5" horiz-adv-x="581" 
d="M164 12c-37 16 -66 38 -89 67s-36 65 -39 106h98c5 -35 20 -62 47 -81s59 -29 97 -29h10c42 0 76 14 102 41c27 27 40 62 40 104c0 38 -13 70 -40 95c-26 25 -58 38 -97 38h-10c-24 0 -47 -6 -71 -18c-22 -12 -41 -29 -54 -50h-97l85 415h375v-90h-302l-49 -227
c19 18 40 32 64 41c25 9 50 14 76 14c43 0 80 -9 114 -28c32 -19 58 -44 76 -76c19 -33 28 -69 28 -109c0 -45 -11 -86 -32 -121c-22 -36 -52 -64 -89 -84s-79 -30 -124 -30c-43 0 -83 8 -119 22z" />
    <glyph glyph-name="six" unicode="6" horiz-adv-x="619" 
d="M446 432c35 -20 62 -46 82 -82c20 -34 30 -75 30 -120c0 -47 -11 -89 -32 -126c-21 -36 -50 -64 -88 -84c-36 -20 -78 -30 -125 -30c-52 0 -97 13 -137 40c-38 26 -69 64 -90 115s-32 111 -32 182c0 73 13 139 40 197c27 59 63 104 108 137s95 49 148 49
c60 0 110 -16 149 -48c39 -31 64 -75 74 -132h-98c-8 29 -22 52 -43 68c-20 18 -45 26 -75 26h-12c-36 0 -69 -12 -99 -35c-29 -23 -53 -56 -72 -98c-18 -42 -29 -91 -33 -146c17 35 43 63 78 84s72 31 113 31c42 0 80 -10 114 -28zM320 76c25 0 49 6 70 19s38 30 51 53
s19 48 19 77s-6 55 -19 78s-30 40 -51 53s-45 19 -70 19h-10c-25 0 -48 -7 -70 -19c-23 -14 -41 -32 -54 -54c-13 -24 -20 -49 -20 -76s7 -52 20 -76c13 -22 31 -41 54 -54c22 -13 45 -20 70 -20h10z" />
    <glyph glyph-name="seven" unicode="7" horiz-adv-x="539" 
d="M24 700h485v-95c-90 -55 -157 -129 -199 -223c-44 -94 -65 -215 -65 -362v-20h-98v29c0 139 23 258 69 357c45 98 109 173 191 224h-383v90z" />
    <glyph glyph-name="eight" unicode="8" horiz-adv-x="576" 
d="M174 14c-32 15 -58 37 -77 65s-28 60 -28 96c0 39 11 73 33 102c21 29 50 50 85 63c-37 9 -68 30 -93 62c-26 32 -39 69 -39 110c0 39 10 73 29 103c20 30 48 53 83 70s76 25 121 25s86 -8 121 -25s63 -40 83 -70c19 -30 29 -64 29 -103c0 -41 -13 -78 -39 -110
c-25 -32 -56 -53 -93 -62c35 -13 64 -34 85 -63c22 -29 33 -63 33 -102c0 -36 -9 -68 -28 -96s-45 -50 -77 -65c-34 -16 -71 -24 -114 -24s-80 8 -114 24zM293 386c37 0 68 11 93 34s37 52 37 87s-12 63 -37 85c-24 22 -55 33 -93 33h-10c-38 0 -69 -11 -93 -33
c-25 -22 -37 -50 -37 -85s12 -64 37 -87s56 -34 93 -34h10zM293 75c35 0 63 10 85 31c21 20 32 46 32 79s-11 61 -32 83c-22 22 -50 33 -85 33h-10c-35 0 -63 -11 -85 -33c-21 -22 -32 -50 -32 -83s11 -59 32 -79c22 -21 50 -31 85 -31h10z" />
    <glyph glyph-name="nine" unicode="9" horiz-adv-x="619" 
d="M442 670c40 -26 70 -64 91 -115s32 -111 32 -182c0 -73 -13 -139 -40 -197c-27 -59 -63 -104 -108 -137s-95 -49 -148 -49c-60 0 -110 16 -149 48c-39 31 -64 75 -74 132h98c8 -29 22 -52 42 -68c21 -18 46 -26 76 -26h12c36 0 69 12 98 35c30 23 54 56 72 98
c19 42 30 91 34 146c-17 -35 -43 -63 -78 -84s-72 -31 -113 -31c-42 0 -80 10 -115 28c-34 20 -61 46 -81 82c-20 34 -30 75 -30 120c0 47 11 89 32 126c21 36 51 64 87 84c38 20 79 30 126 30c52 0 98 -13 136 -40zM309 325c25 0 48 7 71 19c22 14 40 32 53 54
c13 24 20 49 20 76s-7 52 -20 76c-13 22 -31 41 -53 54c-23 13 -46 20 -71 20h-10c-25 0 -49 -6 -70 -19s-38 -30 -51 -53s-19 -48 -19 -77s6 -55 19 -78s30 -40 51 -53s45 -19 70 -19h10z" />
    <glyph glyph-name="zero.zero" horiz-adv-x="662" 
d="M534 618c48 -62 72 -151 72 -268s-24 -206 -72 -268c-48 -61 -116 -92 -203 -92s-155 31 -203 92c-48 62 -72 151 -72 268s24 206 72 268c48 61 116 92 203 92s155 -31 203 -92zM326 625c-28 0 -55 -9 -81 -25c-26 -18 -48 -46 -65 -88c-17 -40 -26 -95 -26 -162
c0 -45 4 -84 12 -116l294 322c-17 24 -36 42 -58 52c-21 12 -43 17 -66 17h-10zM336 75c28 0 55 9 81 25c26 18 48 46 65 88c17 40 26 95 26 162c0 45 -4 84 -12 116l-294 -322c17 -24 36 -42 58 -52c21 -12 43 -17 66 -17h10z" />
    <glyph glyph-name="uni24FF" unicode="&#x24ff;" horiz-adv-x="880" 
d="M246 13c-60 35 -108 83 -143 143c-35 59 -53 124 -53 194c0 71 18 136 52 196c36 59 83 106 143 142c60 34 125 52 195 52c71 0 136 -18 196 -52c59 -36 106 -83 142 -142c34 -60 52 -125 52 -196c0 -70 -18 -135 -52 -195c-36 -60 -83 -107 -142 -143
c-60 -34 -125 -52 -196 -52c-70 0 -135 18 -194 53zM568 204c30 38 45 87 45 148s-15 110 -45 147c-31 37 -72 55 -124 55s-93 -18 -124 -55c-30 -37 -45 -86 -45 -147s15 -110 45 -148c31 -36 72 -55 124 -55s93 19 124 55zM442 213c-29 0 -52 14 -68 41
c-16 28 -24 61 -24 98s8 70 24 97s39 41 68 41h4c29 0 52 -14 68 -41s24 -60 24 -97s-8 -70 -24 -98c-16 -27 -39 -41 -68 -41h-4z" />
    <glyph glyph-name="uni2776" unicode="&#x2776;" horiz-adv-x="880" 
d="M246 13c-60 35 -108 83 -143 143c-35 59 -53 124 -53 194c0 71 18 136 52 196c36 59 83 106 143 142c60 34 125 52 195 52c71 0 136 -18 196 -52c59 -36 106 -83 142 -142c34 -60 52 -125 52 -196c0 -70 -18 -135 -52 -195c-36 -60 -83 -107 -142 -143
c-60 -34 -125 -52 -196 -52c-70 0 -135 18 -194 53zM430 453v-298h73v395h-56l-132 -109v-84z" />
    <glyph glyph-name="uni2777" unicode="&#x2777;" horiz-adv-x="880" 
d="M246 13c-60 35 -108 83 -143 143c-35 59 -53 124 -53 194c0 71 18 136 52 196c36 59 83 106 143 142c60 34 125 52 195 52c71 0 136 -18 196 -52c59 -36 106 -83 142 -142c34 -60 52 -125 52 -196c0 -70 -18 -135 -52 -195c-36 -60 -83 -107 -142 -143
c-60 -34 -125 -52 -196 -52c-70 0 -135 18 -194 53zM305 155h280v67h-197l102 85c31 26 54 48 68 67c16 19 23 41 23 66c0 35 -13 63 -39 84c-25 21 -57 31 -95 31c-39 0 -72 -11 -99 -33c-27 -23 -41 -53 -42 -91h75c1 18 8 32 19 42c12 10 26 15 42 15h5
c17 0 31 -4 43 -12c10 -9 16 -20 16 -35s-6 -28 -16 -41c-12 -12 -29 -28 -53 -49l-132 -115v-81z" />
    <glyph glyph-name="uni2778" unicode="&#x2778;" horiz-adv-x="880" 
d="M246 13c-60 35 -108 83 -143 143c-35 59 -53 124 -53 194c0 71 18 136 52 196c36 59 83 106 143 142c60 34 125 52 195 52c71 0 136 -18 196 -52c59 -36 106 -83 142 -142c34 -60 52 -125 52 -196c0 -70 -18 -135 -52 -195c-36 -60 -83 -107 -142 -143
c-60 -34 -125 -52 -196 -52c-70 0 -135 18 -194 53zM542 179c28 19 42 47 42 82c0 23 -6 43 -19 58s-28 27 -47 36c19 7 35 19 46 35s17 34 17 55c0 35 -13 62 -40 81s-59 29 -98 29c-40 0 -73 -10 -100 -30s-40 -48 -40 -85h75c0 15 6 28 17 37s26 14 43 14h5
c18 0 33 -5 45 -15c12 -9 18 -22 18 -37s-5 -27 -16 -37c-10 -8 -23 -13 -39 -13h-41v-67h39c17 0 32 -5 43 -14s17 -22 17 -39s-7 -31 -20 -41c-13 -9 -30 -14 -49 -14h-5c-18 0 -33 5 -45 15s-18 23 -18 40h-75c0 -37 14 -66 41 -87s61 -32 100 -32c41 0 75 10 104 29z
" />
    <glyph glyph-name="uni2779" unicode="&#x2779;" horiz-adv-x="880" 
d="M246 13c-60 35 -108 83 -143 143c-35 59 -53 124 -53 194c0 71 18 136 52 196c36 59 83 106 143 142c60 34 125 52 195 52c71 0 136 -18 196 -52c59 -36 106 -83 142 -142c34 -60 52 -125 52 -196c0 -70 -18 -135 -52 -195c-36 -60 -83 -107 -142 -143
c-60 -34 -125 -52 -196 -52c-70 0 -135 18 -194 53zM457 243v-88h72v88h56v63h-56v244h-78l-181 -243v-64h187zM457 306h-116l116 157v-157z" />
    <glyph glyph-name="uni277A" unicode="&#x277a;" horiz-adv-x="880" 
d="M246 13c-60 35 -108 83 -143 143c-35 59 -53 124 -53 194c0 71 18 136 52 196c36 59 83 106 143 142c60 34 125 52 195 52c71 0 136 -18 196 -52c59 -36 106 -83 142 -142c34 -60 52 -125 52 -196c0 -70 -18 -135 -52 -195c-36 -60 -83 -107 -142 -143
c-60 -34 -125 -52 -196 -52c-70 0 -135 18 -194 53zM536 186c28 25 42 57 42 97c0 34 -11 63 -33 85c-22 24 -50 35 -84 35c-14 0 -28 -3 -43 -8c-14 -5 -26 -12 -36 -21l23 112h170v64h-226l-45 -235h70c20 17 40 25 61 25h3c19 0 34 -6 46 -16c13 -12 19 -26 19 -43
c0 -20 -7 -36 -19 -49c-14 -12 -30 -18 -50 -18h-4c-18 0 -33 4 -46 13c-12 9 -19 21 -21 37h-79c5 -36 21 -64 48 -84s60 -30 99 -30c42 0 77 12 105 36z" />
    <glyph glyph-name="uni277B" unicode="&#x277b;" horiz-adv-x="880" 
d="M246 13c-60 35 -108 83 -143 143c-35 59 -53 124 -53 194c0 71 18 136 52 196c36 59 83 106 143 142c60 34 125 52 195 52c71 0 136 -18 196 -52c59 -36 106 -83 142 -142c34 -60 52 -125 52 -196c0 -70 -18 -135 -52 -195c-36 -60 -83 -107 -142 -143
c-60 -34 -125 -52 -196 -52c-70 0 -135 18 -194 53zM511 169c23 13 40 29 52 51c12 20 18 43 18 68c0 39 -13 71 -38 96c-25 24 -56 36 -92 36c-23 0 -45 -5 -63 -16c-20 -11 -33 -24 -41 -40c3 38 14 69 33 92c20 23 43 35 69 35h6c15 0 28 -4 39 -13c10 -9 17 -20 20 -35
h73c0 31 -11 57 -34 79s-55 33 -97 33c-53 0 -96 -19 -128 -58c-33 -39 -49 -91 -49 -156c0 -59 14 -106 41 -140s64 -51 111 -51c31 0 57 6 80 19zM431 214c-20 0 -37 7 -51 20c-13 14 -20 31 -20 51c0 21 7 38 22 51s32 20 51 20h3c21 0 38 -7 52 -20
c13 -14 20 -31 20 -51c0 -21 -7 -38 -21 -51s-32 -20 -53 -20h-3z" />
    <glyph glyph-name="uni277C" unicode="&#x277c;" horiz-adv-x="880" 
d="M246 13c-60 35 -108 83 -143 143c-35 59 -53 124 -53 194c0 71 18 136 52 196c36 59 83 106 143 142c60 34 125 52 195 52c71 0 136 -18 196 -52c59 -36 106 -83 142 -142c34 -60 52 -125 52 -196c0 -70 -18 -135 -52 -195c-36 -60 -83 -107 -142 -143
c-60 -34 -125 -52 -196 -52c-70 0 -135 18 -194 53zM374 155h75v36c0 70 13 128 39 174s58 85 97 118v67h-276v-64h204c-39 -29 -71 -66 -99 -112c-26 -45 -40 -106 -40 -183v-36z" />
    <glyph glyph-name="uni277D" unicode="&#x277d;" horiz-adv-x="880" 
d="M246 13c-60 35 -108 83 -143 143c-35 59 -53 124 -53 194c0 71 18 136 52 196c36 59 83 106 143 142c60 34 125 52 195 52c71 0 136 -18 196 -52c59 -36 106 -83 142 -142c34 -60 52 -125 52 -196c0 -70 -18 -135 -52 -195c-36 -60 -83 -107 -142 -143
c-60 -34 -125 -52 -196 -52c-70 0 -135 18 -194 53zM538 178c26 18 40 44 40 78c0 21 -6 40 -18 56c-13 16 -29 28 -50 37c23 9 41 22 55 39c14 16 21 35 21 57c0 34 -14 61 -41 81c-27 19 -63 29 -106 29s-79 -10 -105 -29c-28 -20 -41 -47 -41 -81c0 -23 7 -42 22 -58
s34 -29 58 -38c-22 -9 -39 -22 -53 -37c-12 -15 -19 -34 -19 -56c0 -34 13 -60 40 -78c27 -19 59 -28 98 -28s71 9 99 28zM437 388c-19 0 -36 4 -50 14c-14 8 -21 21 -21 38c0 16 7 28 20 38c14 8 31 13 51 13h5c20 0 37 -5 50 -13c14 -10 21 -22 21 -38
c0 -17 -7 -30 -21 -38c-14 -10 -31 -14 -50 -14h-5zM437 214c-18 0 -33 4 -45 14c-12 8 -18 21 -18 37c0 15 6 28 18 38c13 10 28 15 45 15h5c17 0 32 -5 44 -15c13 -10 19 -23 19 -38c0 -16 -6 -29 -18 -37c-12 -10 -27 -14 -45 -14h-5z" />
    <glyph glyph-name="uni277E" unicode="&#x277e;" horiz-adv-x="880" 
d="M246 13c-60 35 -108 83 -143 143c-35 59 -53 124 -53 194c0 71 18 136 52 196c36 59 83 106 143 142c60 34 125 52 195 52c71 0 136 -18 196 -52c59 -36 106 -83 142 -142c34 -60 52 -125 52 -196c0 -70 -18 -135 -52 -195c-36 -60 -83 -107 -142 -143
c-60 -34 -125 -52 -196 -52c-70 0 -135 18 -194 53zM554 208c32 39 48 91 48 156c0 59 -14 106 -41 140s-64 51 -111 51c-31 0 -57 -6 -80 -19s-40 -30 -52 -50c-12 -22 -18 -44 -18 -69c0 -39 13 -71 38 -95c25 -25 56 -37 92 -37c23 0 44 5 64 16c18 11 32 24 40 40
c-3 -38 -14 -69 -34 -92c-19 -23 -42 -35 -68 -35h-6c-15 0 -28 4 -38 13c-11 9 -18 20 -21 35h-73c0 -31 11 -57 34 -79s55 -33 97 -33c53 0 96 19 129 58zM445 349c-21 0 -38 7 -51 21c-14 13 -21 30 -21 50c0 21 7 38 21 51s32 20 53 20h3c20 0 37 -7 50 -21
c14 -13 21 -30 21 -50c0 -21 -7 -38 -22 -51s-32 -20 -51 -20h-3z" />
    <glyph glyph-name="uni24EA" unicode="&#x24ea;" horiz-adv-x="880" 
d="M246 13c-60 35 -108 83 -143 143c-35 59 -53 124 -53 194c0 71 18 136 52 196c36 59 83 106 143 142c60 34 125 52 195 52c71 0 136 -18 196 -52c59 -36 106 -83 142 -142c34 -60 52 -125 52 -196c0 -70 -18 -135 -52 -195c-36 -60 -83 -107 -142 -143
c-60 -34 -125 -52 -196 -52c-70 0 -135 18 -194 53zM598 78c48 28 86 66 114 114c29 49 43 101 43 158s-14 109 -43 158c-28 48 -66 86 -114 114c-49 29 -101 43 -158 43s-109 -14 -158 -43c-48 -28 -86 -66 -114 -114c-29 -49 -43 -101 -43 -158s14 -109 43 -158
c28 -48 66 -86 114 -114c49 -29 101 -43 158 -43s109 14 158 43zM320 204c-30 38 -45 87 -45 148s15 110 45 147c31 37 72 55 124 55s93 -18 124 -55c30 -37 45 -86 45 -147s-15 -110 -45 -148c-31 -36 -72 -55 -124 -55s-93 19 -124 55zM446 213c29 0 52 14 68 41
c16 28 24 61 24 98s-8 70 -24 97s-39 41 -68 41h-4c-29 0 -52 -14 -68 -41s-24 -60 -24 -97s8 -70 24 -98c16 -27 39 -41 68 -41h4z" />
    <glyph glyph-name="uni2460" unicode="&#x2460;" horiz-adv-x="880" 
d="M246 13c-60 35 -108 83 -143 143c-35 59 -53 124 -53 194c0 71 18 136 52 196c36 59 83 106 143 142c60 34 125 52 195 52c71 0 136 -18 196 -52c59 -36 106 -83 142 -142c34 -60 52 -125 52 -196c0 -70 -18 -135 -52 -195c-36 -60 -83 -107 -142 -143
c-60 -34 -125 -52 -196 -52c-70 0 -135 18 -194 53zM598 78c48 28 86 66 114 114c29 49 43 101 43 158s-14 109 -43 158c-28 48 -66 86 -114 114c-49 29 -101 43 -158 43s-109 -14 -158 -43c-48 -28 -86 -66 -114 -114c-29 -49 -43 -101 -43 -158s14 -109 43 -158
c28 -48 66 -86 114 -114c49 -29 101 -43 158 -43s109 14 158 43zM503 155h-73v298l-115 -96v84l132 109h56v-395z" />
    <glyph glyph-name="uni2461" unicode="&#x2461;" horiz-adv-x="880" 
d="M246 13c-60 35 -108 83 -143 143c-35 59 -53 124 -53 194c0 71 18 136 52 196c36 59 83 106 143 142c60 34 125 52 195 52c71 0 136 -18 196 -52c59 -36 106 -83 142 -142c34 -60 52 -125 52 -196c0 -70 -18 -135 -52 -195c-36 -60 -83 -107 -142 -143
c-60 -34 -125 -52 -196 -52c-70 0 -135 18 -194 53zM598 78c48 28 86 66 114 114c29 49 43 101 43 158s-14 109 -43 158c-28 48 -66 86 -114 114c-49 29 -101 43 -158 43s-109 -14 -158 -43c-48 -28 -86 -66 -114 -114c-29 -49 -43 -101 -43 -158s14 -109 43 -158
c28 -48 66 -86 114 -114c49 -29 101 -43 158 -43s109 14 158 43zM305 155v81l132 115c24 21 41 37 53 49c10 13 16 26 16 41s-6 26 -16 35c-12 8 -26 12 -43 12h-5c-16 0 -30 -5 -42 -15c-11 -10 -18 -24 -19 -42h-75c1 38 15 68 42 91c27 22 60 33 99 33
c38 0 70 -10 95 -31c26 -21 39 -49 39 -84c0 -25 -7 -47 -23 -66c-14 -19 -37 -41 -68 -67l-102 -85h197v-67h-280z" />
    <glyph glyph-name="uni2462" unicode="&#x2462;" horiz-adv-x="880" 
d="M246 13c-60 35 -108 83 -143 143c-35 59 -53 124 -53 194c0 71 18 136 52 196c36 59 83 106 143 142c60 34 125 52 195 52c71 0 136 -18 196 -52c59 -36 106 -83 142 -142c34 -60 52 -125 52 -196c0 -70 -18 -135 -52 -195c-36 -60 -83 -107 -142 -143
c-60 -34 -125 -52 -196 -52c-70 0 -135 18 -194 53zM598 78c48 28 86 66 114 114c29 49 43 101 43 158s-14 109 -43 158c-28 48 -66 86 -114 114c-49 29 -101 43 -158 43s-109 -14 -158 -43c-48 -28 -86 -66 -114 -114c-29 -49 -43 -101 -43 -158s14 -109 43 -158
c28 -48 66 -86 114 -114c49 -29 101 -43 158 -43s109 14 158 43zM338 182c-27 21 -41 50 -41 87h75c0 -17 6 -30 18 -40s27 -15 45 -15h5c19 0 36 5 49 14c13 10 20 24 20 41s-6 30 -17 39s-26 14 -43 14h-39v67h41c16 0 29 5 39 13c11 10 16 22 16 37s-6 28 -18 37
c-12 10 -27 15 -45 15h-5c-17 0 -32 -5 -43 -14s-17 -22 -17 -37h-75c0 37 13 65 40 85s60 30 100 30c39 0 71 -10 98 -29s40 -46 40 -81c0 -21 -6 -39 -17 -55s-27 -28 -46 -35c19 -9 34 -21 47 -36s19 -35 19 -58c0 -35 -14 -63 -42 -82c-29 -19 -63 -29 -104 -29
c-39 0 -73 11 -100 32z" />
    <glyph glyph-name="uni2463" unicode="&#x2463;" horiz-adv-x="880" 
d="M246 13c-60 35 -108 83 -143 143c-35 59 -53 124 -53 194c0 71 18 136 52 196c36 59 83 106 143 142c60 34 125 52 195 52c71 0 136 -18 196 -52c59 -36 106 -83 142 -142c34 -60 52 -125 52 -196c0 -70 -18 -135 -52 -195c-36 -60 -83 -107 -142 -143
c-60 -34 -125 -52 -196 -52c-70 0 -135 18 -194 53zM598 78c48 28 86 66 114 114c29 49 43 101 43 158s-14 109 -43 158c-28 48 -66 86 -114 114c-49 29 -101 43 -158 43s-109 -14 -158 -43c-48 -28 -86 -66 -114 -114c-29 -49 -43 -101 -43 -158s14 -109 43 -158
c28 -48 66 -86 114 -114c49 -29 101 -43 158 -43s109 14 158 43zM529 155h-72v88h-187v64l181 243h78v-244h56v-63h-56v-88zM457 463l-116 -157h116v157z" />
    <glyph glyph-name="uni2464" unicode="&#x2464;" horiz-adv-x="880" 
d="M246 13c-60 35 -108 83 -143 143c-35 59 -53 124 -53 194c0 71 18 136 52 196c36 59 83 106 143 142c60 34 125 52 195 52c71 0 136 -18 196 -52c59 -36 106 -83 142 -142c34 -60 52 -125 52 -196c0 -70 -18 -135 -52 -195c-36 -60 -83 -107 -142 -143
c-60 -34 -125 -52 -196 -52c-70 0 -135 18 -194 53zM598 78c48 28 86 66 114 114c29 49 43 101 43 158s-14 109 -43 158c-28 48 -66 86 -114 114c-49 29 -101 43 -158 43s-109 -14 -158 -43c-48 -28 -86 -66 -114 -114c-29 -49 -43 -101 -43 -158s14 -109 43 -158
c28 -48 66 -86 114 -114c49 -29 101 -43 158 -43s109 14 158 43zM332 180c-27 20 -43 48 -48 84h79c2 -16 9 -28 21 -37c13 -9 28 -13 46 -13h4c20 0 36 6 50 18c12 13 19 29 19 49c0 17 -6 31 -19 43c-12 10 -27 16 -46 16h-3c-21 0 -41 -8 -61 -25h-70l45 235h226v-64
h-170l-23 -112c10 9 22 16 36 21c15 5 29 8 43 8c34 0 62 -11 84 -35c22 -22 33 -51 33 -85c0 -40 -14 -72 -42 -97c-28 -24 -63 -36 -105 -36c-39 0 -72 10 -99 30z" />
    <glyph glyph-name="uni2465" unicode="&#x2465;" horiz-adv-x="880" 
d="M246 13c-60 35 -108 83 -143 143c-35 59 -53 124 -53 194c0 71 18 136 52 196c36 59 83 106 143 142c60 34 125 52 195 52c71 0 136 -18 196 -52c59 -36 106 -83 142 -142c34 -60 52 -125 52 -196c0 -70 -18 -135 -52 -195c-36 -60 -83 -107 -142 -143
c-60 -34 -125 -52 -196 -52c-70 0 -135 18 -194 53zM598 78c48 28 86 66 114 114c29 49 43 101 43 158s-14 109 -43 158c-28 48 -66 86 -114 114c-49 29 -101 43 -158 43s-109 -14 -158 -43c-48 -28 -86 -66 -114 -114c-29 -49 -43 -101 -43 -158s14 -109 43 -158
c28 -48 66 -86 114 -114c49 -29 101 -43 158 -43s109 14 158 43zM320 201c-27 34 -41 81 -41 140c0 65 16 117 49 156c32 39 75 58 128 58c42 0 74 -11 97 -33s34 -48 34 -79h-73c-3 15 -10 26 -20 35c-11 9 -24 13 -39 13h-6c-26 0 -49 -12 -69 -35
c-19 -23 -30 -54 -33 -92c8 16 21 29 41 40c18 11 40 16 63 16c36 0 67 -12 92 -36c25 -25 38 -57 38 -96c0 -25 -6 -48 -18 -68c-12 -22 -29 -38 -52 -51s-49 -19 -80 -19c-47 0 -84 17 -111 51zM434 214c21 0 39 7 53 20s21 30 21 51c0 20 -7 37 -20 51
c-14 13 -31 20 -52 20h-3c-19 0 -36 -7 -51 -20s-22 -30 -22 -51c0 -20 7 -37 20 -51c14 -13 31 -20 51 -20h3z" />
    <glyph glyph-name="uni2466" unicode="&#x2466;" horiz-adv-x="880" 
d="M246 13c-60 35 -108 83 -143 143c-35 59 -53 124 -53 194c0 71 18 136 52 196c36 59 83 106 143 142c60 34 125 52 195 52c71 0 136 -18 196 -52c59 -36 106 -83 142 -142c34 -60 52 -125 52 -196c0 -70 -18 -135 -52 -195c-36 -60 -83 -107 -142 -143
c-60 -34 -125 -52 -196 -52c-70 0 -135 18 -194 53zM598 78c48 28 86 66 114 114c29 49 43 101 43 158s-14 109 -43 158c-28 48 -66 86 -114 114c-49 29 -101 43 -158 43s-109 -14 -158 -43c-48 -28 -86 -66 -114 -114c-29 -49 -43 -101 -43 -158s14 -109 43 -158
c28 -48 66 -86 114 -114c49 -29 101 -43 158 -43s109 14 158 43zM374 191c0 77 14 138 40 183c28 46 60 83 99 112h-204v64h276v-67c-39 -33 -71 -72 -97 -118s-39 -104 -39 -174v-36h-75v36z" />
    <glyph glyph-name="uni2467" unicode="&#x2467;" horiz-adv-x="880" 
d="M246 13c-60 35 -108 83 -143 143c-35 59 -53 124 -53 194c0 71 18 136 52 196c36 59 83 106 143 142c60 34 125 52 195 52c71 0 136 -18 196 -52c59 -36 106 -83 142 -142c34 -60 52 -125 52 -196c0 -70 -18 -135 -52 -195c-36 -60 -83 -107 -142 -143
c-60 -34 -125 -52 -196 -52c-70 0 -135 18 -194 53zM598 78c48 28 86 66 114 114c29 49 43 101 43 158s-14 109 -43 158c-28 48 -66 86 -114 114c-49 29 -101 43 -158 43s-109 -14 -158 -43c-48 -28 -86 -66 -114 -114c-29 -49 -43 -101 -43 -158s14 -109 43 -158
c28 -48 66 -86 114 -114c49 -29 101 -43 158 -43s109 14 158 43zM341 178c-27 18 -40 44 -40 78c0 22 7 41 19 56c14 15 31 28 53 37c-24 9 -43 22 -58 38s-22 35 -22 58c0 34 13 61 41 81c26 19 62 29 105 29s79 -10 106 -29c27 -20 41 -47 41 -81c0 -22 -7 -41 -21 -57
c-14 -17 -32 -30 -55 -39c21 -9 37 -21 50 -37c12 -16 18 -35 18 -56c0 -34 -14 -60 -40 -78c-28 -19 -60 -28 -99 -28s-71 9 -98 28zM442 388c19 0 36 4 50 14c14 8 21 21 21 38c0 16 -7 28 -21 38c-13 8 -30 13 -50 13h-5c-20 0 -37 -5 -51 -13c-13 -10 -20 -22 -20 -38
c0 -17 7 -30 21 -38c14 -10 31 -14 50 -14h5zM442 214c18 0 33 4 45 14c12 8 18 21 18 37c0 15 -6 28 -19 38c-12 10 -27 15 -44 15h-5c-17 0 -32 -5 -45 -15c-12 -10 -18 -23 -18 -38c0 -16 6 -29 18 -37c12 -10 27 -14 45 -14h5z" />
    <glyph glyph-name="uni2468" unicode="&#x2468;" horiz-adv-x="880" 
d="M246 13c-60 35 -108 83 -143 143c-35 59 -53 124 -53 194c0 71 18 136 52 196c36 59 83 106 143 142c60 34 125 52 195 52c71 0 136 -18 196 -52c59 -36 106 -83 142 -142c34 -60 52 -125 52 -196c0 -70 -18 -135 -52 -195c-36 -60 -83 -107 -142 -143
c-60 -34 -125 -52 -196 -52c-70 0 -135 18 -194 53zM598 78c48 28 86 66 114 114c29 49 43 101 43 158s-14 109 -43 158c-28 48 -66 86 -114 114c-49 29 -101 43 -158 43s-109 -14 -158 -43c-48 -28 -86 -66 -114 -114c-29 -49 -43 -101 -43 -158s14 -109 43 -158
c28 -48 66 -86 114 -114c49 -29 101 -43 158 -43s109 14 158 43zM328 183c-23 22 -34 48 -34 79h73c3 -15 10 -26 21 -35c10 -9 23 -13 38 -13h6c26 0 49 12 68 35c20 23 31 54 34 92c-8 -16 -22 -29 -40 -40c-20 -11 -41 -16 -64 -16c-36 0 -67 12 -92 37
c-25 24 -38 56 -38 95c0 25 6 47 18 69c12 20 29 37 52 50s49 19 80 19c47 0 84 -17 111 -51s41 -81 41 -140c0 -65 -16 -117 -48 -156c-33 -39 -76 -58 -129 -58c-42 0 -74 11 -97 33zM448 349c19 0 36 7 51 20s22 30 22 51c0 20 -7 37 -21 50c-13 14 -30 21 -50 21h-3
c-21 0 -39 -7 -53 -20s-21 -30 -21 -51c0 -20 7 -37 21 -50c13 -14 30 -21 51 -21h3z" />
    <glyph glyph-name="zero.osf" horiz-adv-x="612" 
d="M178 23c-38 22 -70 53 -92 93c-24 39 -35 84 -35 134s11 95 35 134c22 40 54 71 92 93c40 22 82 33 128 33s88 -11 128 -33c38 -22 70 -53 92 -93c24 -39 35 -84 35 -134s-11 -95 -35 -134c-22 -40 -54 -71 -92 -93c-40 -22 -82 -33 -128 -33s-88 11 -128 33zM311 70
c27 0 52 7 75 22c24 14 43 35 58 62s22 59 22 96s-7 69 -22 96s-34 48 -58 62c-23 15 -48 22 -75 22h-10c-27 0 -52 -7 -75 -22c-24 -14 -43 -35 -58 -62s-22 -59 -22 -96s8 -69 22 -96c16 -27 35 -48 60 -62c24 -15 49 -22 76 -22h7z" />
    <glyph glyph-name="one.osf" horiz-adv-x="381" 
d="M41 330l175 170h80v-500h-93v375l-162 -157v112z" />
    <glyph glyph-name="two.osf" horiz-adv-x="480" 
d="M165 83h252v-83h-359v108l202 153c25 20 44 37 55 49c11 14 17 30 17 49c0 22 -8 39 -24 52s-36 19 -61 19h-8c-23 0 -43 -8 -60 -26c-17 -16 -25 -38 -26 -63h-95c0 31 8 59 24 85c17 25 39 46 68 61c28 15 59 23 93 23c35 0 67 -6 95 -18c27 -13 49 -30 65 -52
c16 -23 24 -48 24 -76c0 -33 -8 -61 -25 -86s-42 -50 -76 -75z" />
    <glyph glyph-name="three.osf" horiz-adv-x="579" 
d="M116 -158c-43 36 -69 82 -76 141h95c7 -36 23 -64 48 -83c25 -20 58 -30 97 -30h10c39 0 72 11 99 34c27 22 41 51 41 86c0 37 -12 67 -36 88c-24 22 -55 33 -94 33h-60v80h60c37 0 67 11 90 35c23 22 35 51 35 84c0 37 -13 66 -39 88c-25 21 -57 32 -96 32h-10
c-35 0 -64 -11 -90 -32c-24 -22 -39 -50 -42 -83h-95c2 35 13 68 35 97c20 30 48 54 83 72c35 17 73 26 114 26c43 0 83 -8 119 -24s64 -39 85 -68s31 -63 31 -100c0 -36 -11 -69 -32 -100c-21 -30 -49 -52 -84 -66c37 -11 67 -32 88 -60c22 -30 33 -65 33 -106
c0 -39 -11 -73 -33 -103c-23 -30 -52 -53 -90 -69c-36 -16 -76 -24 -119 -24c-67 0 -123 18 -167 52z" />
    <glyph glyph-name="four.osf" horiz-adv-x="621" 
d="M481 -200h-92v200h-353v96l350 404h95v-417h110v-83h-110v-200zM389 375l-256 -292h256v292z" />
    <glyph glyph-name="five.osf" horiz-adv-x="571" 
d="M422 210c32 -19 57 -44 74 -76c18 -33 27 -69 27 -109c0 -45 -11 -86 -33 -121c-21 -36 -51 -64 -88 -84s-79 -30 -124 -30c-43 0 -83 8 -120 22c-36 16 -65 38 -88 67s-36 65 -39 106h95c5 -36 21 -64 48 -85c27 -20 60 -30 99 -30h10c43 0 77 14 105 42
c26 29 40 65 40 108c0 40 -12 73 -38 99c-24 26 -57 39 -96 39h-10c-24 0 -48 -6 -73 -20c-25 -12 -44 -30 -58 -53h-97l85 415h375v-83h-301l-51 -239c19 19 42 33 68 44c27 11 53 16 78 16c43 0 80 -9 112 -28z" />
    <glyph glyph-name="six.osf" horiz-adv-x="619" 
d="M446 432c35 -19 62 -46 82 -82c20 -34 30 -75 30 -120c0 -47 -11 -89 -32 -126c-21 -36 -50 -64 -88 -84c-36 -20 -78 -30 -125 -30c-52 0 -97 13 -137 40c-38 26 -69 64 -90 115s-32 111 -32 182c0 73 13 139 40 197c27 59 63 104 108 137s95 49 148 49
c60 0 110 -16 149 -48c39 -31 64 -75 74 -132h-95c-8 31 -22 56 -44 74c-20 17 -47 26 -78 26h-10c-37 0 -70 -12 -100 -35s-54 -57 -72 -99c-19 -44 -30 -93 -34 -149c17 35 44 63 78 83c36 21 73 31 114 31c42 0 80 -10 114 -29zM320 70c26 0 50 6 72 20
c21 12 38 31 52 54c12 24 19 51 19 81c0 31 -7 58 -19 81c-14 24 -31 42 -52 56c-22 12 -46 19 -72 19h-10c-25 0 -49 -7 -72 -21c-23 -13 -41 -32 -54 -56c-14 -23 -21 -49 -21 -78s7 -55 21 -78c13 -24 31 -43 54 -57s47 -21 72 -21h10z" />
    <glyph glyph-name="seven.osf" horiz-adv-x="531" 
d="M19 500h485v-95c-91 -55 -158 -130 -201 -224s-65 -214 -65 -361v-20h-95v29c0 143 24 264 71 363c48 99 115 174 200 225h-395v83z" />
    <glyph glyph-name="eight.osf" horiz-adv-x="576" 
d="M476 270c21 -29 31 -61 31 -95c0 -36 -9 -68 -28 -96s-45 -50 -77 -65c-34 -16 -71 -24 -114 -24s-80 8 -114 24c-32 15 -58 37 -77 65s-28 60 -28 96c0 34 10 65 31 95c21 28 48 51 82 66c-39 17 -70 41 -92 72c-24 32 -35 67 -35 104c0 39 10 73 29 103
c20 30 48 53 83 70s76 25 121 25s86 -8 121 -25s63 -40 83 -70c19 -30 29 -64 29 -103c0 -36 -12 -70 -35 -102s-54 -57 -92 -74c34 -15 61 -37 82 -66zM283 630c-39 0 -71 -11 -96 -34s-37 -52 -37 -89s12 -67 37 -89c25 -24 57 -35 96 -35h10c39 0 71 11 96 35
c25 22 37 52 37 89s-12 66 -37 89s-57 34 -96 34h-10zM293 70c35 0 64 11 86 32s33 49 33 83c0 35 -11 63 -34 85c-22 22 -50 33 -85 33h-10c-35 0 -63 -11 -85 -33c-23 -22 -34 -50 -34 -85c0 -34 11 -62 33 -83s51 -32 86 -32h10z" />
    <glyph glyph-name="nine.osf" horiz-adv-x="606" 
d="M434 470c40 -26 70 -64 91 -115s32 -111 32 -182c0 -73 -13 -139 -40 -197c-27 -59 -63 -104 -108 -137s-95 -49 -148 -49c-60 0 -110 16 -149 48c-39 31 -64 75 -74 132h95c8 -31 23 -56 43 -74c22 -17 48 -26 79 -26h10c37 0 70 12 100 35s54 57 73 99
c18 44 29 93 33 149c-17 -35 -43 -63 -79 -83c-34 -21 -72 -31 -113 -31c-42 0 -80 10 -115 29c-34 19 -61 46 -81 82c-20 34 -30 75 -30 120c0 47 11 89 32 126c21 36 51 64 87 84c38 20 79 30 126 30c52 0 98 -13 136 -40zM301 119c25 0 49 7 72 21c23 13 41 32 55 56
c13 23 20 49 20 78s-7 55 -20 78c-14 24 -32 43 -55 57s-47 21 -72 21h-10c-26 0 -50 -6 -71 -20c-22 -12 -40 -31 -52 -54c-14 -24 -20 -51 -20 -81c0 -31 6 -58 20 -81c12 -24 30 -42 52 -56c21 -12 45 -19 71 -19h10z" />
    <glyph glyph-name="zero.osf.zero" horiz-adv-x="612" 
d="M434 477c38 -22 70 -53 92 -93c24 -39 35 -84 35 -134s-11 -95 -35 -134c-22 -40 -54 -71 -92 -93c-40 -22 -82 -33 -128 -33s-88 11 -128 33c-38 22 -70 53 -92 93c-24 39 -35 84 -35 134s11 95 35 134c22 40 54 71 92 93c40 22 82 33 128 33s88 -11 128 -33zM301 430
c-27 0 -52 -7 -75 -22c-24 -14 -43 -35 -58 -62s-22 -59 -22 -96c0 -34 7 -65 21 -93l229 245c-26 19 -54 28 -85 28h-10zM311 70c27 0 52 7 75 22c24 14 43 35 58 62s22 59 22 96c0 32 -6 62 -18 89l-227 -243c25 -17 53 -26 83 -26h7z" />
    <glyph glyph-name="zero.tf" 
d="M103 82c-47 62 -71 151 -71 268s24 206 71 268c47 61 113 92 197 92s150 -31 197 -92c47 -62 71 -151 71 -268s-24 -206 -71 -268c-47 -61 -113 -92 -197 -92s-150 31 -197 92zM305 75c27 0 53 9 79 27c24 17 45 47 62 88c16 41 24 95 24 160s-8 119 -24 160
c-17 41 -38 71 -62 88c-26 18 -52 27 -79 27h-10c-27 0 -53 -9 -79 -27c-24 -17 -45 -47 -62 -88c-16 -41 -24 -95 -24 -160s8 -119 24 -160c17 -41 38 -71 62 -88c26 -18 52 -27 79 -27h10z" />
    <glyph glyph-name="one.tf" 
d="M359 700v-610h205v-90h-510v90h209v469l-159 -154v120l180 175h75z" />
    <glyph glyph-name="two.tf" 
d="M175 90h361v-90h-473v106l226 215c-1 -1 10 9 32 29c24 22 43 40 57 55s26 31 36 51c9 18 14 39 14 62c0 32 -11 58 -34 78c-22 19 -50 29 -84 29h-10c-38 0 -69 -13 -94 -38c-24 -25 -36 -57 -36 -96h-100c0 44 10 83 31 115c21 34 49 59 84 77s75 27 120 27
c41 0 78 -7 111 -22c34 -15 61 -36 80 -64c20 -29 30 -62 30 -101c0 -35 -8 -67 -22 -96c-16 -29 -33 -55 -54 -77c-20 -21 -49 -50 -88 -87z" />
    <glyph glyph-name="three.tf" 
d="M130 42c-44 35 -69 82 -76 141h97c7 -34 23 -61 47 -79c26 -20 57 -29 94 -29h9c38 0 70 11 96 32s39 49 39 83c0 36 -12 65 -36 86c-23 21 -54 32 -91 32h-60v84h60c36 0 65 12 88 34c23 24 34 51 34 84c0 35 -12 63 -37 84c-24 21 -55 31 -93 31h-9
c-34 0 -64 -11 -88 -31c-26 -22 -39 -48 -42 -79h-95c2 37 13 70 35 99c20 30 48 54 84 70c34 18 73 26 116 26c41 0 78 -8 114 -25c34 -17 62 -39 82 -67c21 -29 31 -60 31 -93c0 -43 -11 -80 -33 -110c-23 -30 -52 -51 -88 -62c37 -9 67 -28 90 -57c24 -29 36 -66 36 -111
c0 -37 -10 -70 -30 -99c-21 -30 -49 -54 -85 -70c-36 -18 -77 -26 -122 -26c-68 0 -124 17 -167 52z" />
    <glyph glyph-name="four.tf" 
d="M467 0h-96v159h-344v96l345 445h95v-456h100v-85h-100v-159zM371 566l-250 -322h250v322z" />
    <glyph glyph-name="five.tf" 
d="M172 12c-36 16 -65 38 -88 67s-36 65 -39 106h98c5 -35 20 -62 47 -81s59 -29 97 -29h10c42 0 76 14 103 41c26 27 39 62 39 104c0 38 -13 70 -39 95c-27 25 -59 38 -98 38h-10c-24 0 -48 -6 -70 -18c-24 -12 -42 -29 -55 -50h-97l85 415h375v-90h-302l-49 -227
c19 18 40 32 65 41c24 9 49 14 75 14c43 0 81 -9 113 -28c34 -19 59 -44 78 -76c18 -33 27 -69 27 -109c0 -45 -11 -86 -33 -121c-21 -36 -51 -64 -88 -84s-79 -30 -124 -30c-43 0 -83 8 -120 22z" />
    <glyph glyph-name="six.tf" 
d="M437 430c33 -19 59 -46 78 -80c19 -35 28 -73 28 -116c0 -49 -10 -92 -31 -128c-21 -38 -49 -66 -86 -86c-36 -20 -76 -30 -121 -30c-51 0 -96 14 -135 42c-38 27 -68 67 -89 118c-21 52 -32 113 -32 182c0 66 13 128 37 186c26 58 60 104 106 140c44 34 95 52 150 52
c57 0 105 -16 143 -48c38 -31 62 -75 73 -132h-98c-7 29 -21 52 -41 69s-44 26 -71 26h-10c-36 0 -68 -12 -98 -35c-28 -23 -52 -56 -70 -98c-18 -43 -29 -91 -33 -146c17 33 43 61 79 82c35 21 71 32 108 32c42 0 80 -10 113 -30zM310 75c41 0 73 14 98 41s37 64 37 109
s-12 82 -35 109s-55 41 -94 41h-10c-28 0 -53 -7 -75 -20s-39 -31 -51 -54c-13 -23 -19 -48 -19 -75c0 -43 13 -78 38 -108c25 -28 59 -43 101 -43h10z" />
    <glyph glyph-name="seven.tf" 
d="M44 700h505v-95c-90 -55 -157 -129 -199 -223c-44 -94 -65 -215 -65 -362v-20h-98v29c0 139 23 258 69 356c45 98 109 173 192 225h-404v90z" />
    <glyph glyph-name="eight.tf" 
d="M186 14c-32 15 -58 37 -77 65s-28 60 -28 96c0 39 11 73 33 102c21 29 50 50 85 63c-37 9 -68 30 -93 62c-26 32 -39 69 -39 110c0 39 10 73 29 103c20 30 48 53 83 70s76 25 121 25s86 -8 121 -25s63 -40 83 -70c19 -30 29 -64 29 -103c0 -41 -13 -78 -39 -110
c-25 -32 -56 -53 -93 -62c35 -13 64 -34 85 -63c22 -29 33 -63 33 -102c0 -36 -9 -68 -28 -96s-45 -50 -77 -65c-34 -16 -71 -24 -114 -24s-80 8 -114 24zM305 386c37 0 68 11 93 34s37 52 37 87s-12 63 -37 85c-24 22 -55 33 -93 33h-10c-38 0 -69 -11 -93 -33
c-25 -22 -37 -50 -37 -85s12 -64 37 -87s56 -34 93 -34h10zM305 75c35 0 63 10 85 31c21 20 32 46 32 79s-11 61 -32 83c-22 22 -50 33 -85 33h-10c-35 0 -63 -11 -85 -33c-21 -22 -32 -50 -32 -83s11 -59 32 -79c22 -21 50 -31 85 -31h10z" />
    <glyph glyph-name="nine.tf" 
d="M430 668c38 -27 68 -67 89 -118c21 -52 32 -113 32 -182c0 -66 -13 -128 -37 -186c-26 -58 -60 -104 -106 -140c-44 -34 -95 -52 -150 -52c-57 0 -105 16 -143 48c-38 31 -62 75 -73 132h98c7 -29 21 -52 41 -69s44 -26 71 -26h10c36 0 68 12 98 35c28 23 52 56 70 98
c18 43 29 91 33 146c-17 -33 -43 -61 -79 -82c-35 -21 -71 -32 -108 -32c-42 0 -80 10 -113 30c-33 19 -59 46 -78 80c-19 35 -28 73 -28 116c0 49 10 92 31 128c21 38 49 66 86 86c36 20 76 30 121 30c51 0 96 -14 135 -42zM294 325c28 0 53 7 75 20s39 31 51 54
c13 23 19 48 19 75c0 43 -13 78 -38 108c-25 28 -59 43 -101 43h-10c-41 0 -73 -14 -98 -41s-37 -64 -37 -109s12 -82 35 -109s55 -41 94 -41h10z" />
    <glyph glyph-name="zero.tf.zero" 
d="M497 618c47 -62 71 -151 71 -268s-24 -206 -71 -268c-47 -61 -113 -92 -197 -92s-150 31 -197 92c-47 62 -71 151 -71 268s24 206 71 268c47 61 113 92 197 92s150 -31 197 -92zM295 625c-27 0 -53 -9 -79 -27c-24 -17 -45 -47 -62 -88c-16 -41 -24 -95 -24 -160
c0 -39 3 -75 10 -110l286 311c-15 25 -34 44 -55 56s-43 18 -66 18h-10zM305 75c27 0 53 9 79 27c24 17 45 47 62 88c16 41 24 95 24 160c0 37 -3 73 -10 108l-285 -310c15 -25 34 -44 55 -56c21 -11 43 -17 65 -17h10z" />
    <glyph glyph-name="zero.subs" horiz-adv-x="408" 
d="M80 -64c-30 36 -45 86 -45 147s15 110 45 147c31 37 72 55 124 55s93 -18 124 -55c30 -37 45 -86 45 -147s-15 -111 -45 -147c-31 -38 -72 -56 -124 -56s-93 18 -124 56zM206 -56c29 0 52 14 68 42c16 27 24 60 24 97s-8 70 -24 97s-39 41 -68 41h-4
c-29 0 -52 -14 -68 -41s-24 -60 -24 -97s8 -70 24 -97c16 -28 39 -42 68 -42h4z" />
    <glyph glyph-name="one.subs" horiz-adv-x="269" 
d="M212 -115h-73v298l-115 -96v84l132 109h56v-395z" />
    <glyph glyph-name="two.subs" horiz-adv-x="354" 
d="M37 -115v81l132 115c24 21 41 37 53 49c10 13 16 26 16 41s-6 26 -16 35c-12 8 -26 12 -43 12h-5c-16 0 -30 -5 -42 -15c-11 -10 -18 -24 -19 -42h-75c1 38 15 68 42 91c27 22 60 33 99 33c38 0 70 -10 95 -31c26 -21 39 -49 39 -84c0 -25 -7 -47 -23 -66
c-14 -19 -37 -41 -68 -67l-102 -85h197v-67h-280z" />
    <glyph glyph-name="three.subs" horiz-adv-x="357" 
d="M73 -88c-27 21 -41 50 -41 87h75c0 -17 6 -30 18 -40s27 -15 45 -15h5c19 0 36 5 49 14c13 10 20 24 20 41s-6 30 -17 39s-26 14 -43 14h-39v67h41c16 0 29 5 40 13c10 10 15 22 15 37s-6 28 -18 37c-12 10 -27 15 -45 15h-5c-17 0 -32 -5 -43 -14s-17 -22 -17 -37h-75
c0 37 13 65 40 85s60 30 100 30c39 0 71 -10 98 -29s40 -46 40 -81c0 -21 -6 -39 -17 -55s-27 -28 -46 -35c19 -9 34 -21 47 -36s19 -35 19 -58c0 -35 -14 -63 -43 -82c-28 -19 -62 -29 -103 -29c-39 0 -73 11 -100 32z" />
    <glyph glyph-name="four.subs" horiz-adv-x="365" 
d="M281 -115h-72v88h-187v64l181 243h78v-244h56v-63h-56v-88zM209 193l-116 -157h116v157z" />
    <glyph glyph-name="five.subs" horiz-adv-x="353" 
d="M70 -90c-27 20 -43 48 -48 84h79c2 -16 9 -28 21 -37c13 -9 28 -13 46 -13h4c20 0 36 6 50 18c12 13 19 29 19 49c0 17 -6 31 -19 43c-12 10 -27 16 -46 16h-3c-21 0 -41 -8 -61 -25h-70l45 235h226v-64h-170l-23 -112c10 9 22 16 36 21c15 5 29 8 43 8
c34 0 62 -11 84 -35c22 -22 33 -51 33 -85c0 -40 -14 -72 -42 -97c-28 -24 -63 -36 -105 -36c-39 0 -72 10 -99 30z" />
    <glyph glyph-name="six.subs" horiz-adv-x="379" 
d="M77 -69c-27 34 -41 81 -41 140c0 65 16 117 48 156c33 39 76 58 129 58c42 0 74 -11 97 -33s34 -48 34 -79h-73c-3 15 -10 26 -21 35c-10 9 -23 13 -38 13h-6c-26 0 -49 -12 -68 -35c-20 -23 -31 -54 -34 -92c8 16 22 29 40 40c20 11 41 16 64 16c36 0 67 -12 92 -36
c25 -25 38 -57 38 -96c0 -25 -6 -48 -18 -68c-12 -22 -29 -38 -52 -51s-49 -19 -80 -19c-47 0 -84 17 -111 51zM191 -56c21 0 39 7 53 20s21 30 21 51c0 20 -7 37 -21 51c-13 13 -30 20 -51 20h-3c-19 0 -36 -7 -51 -20s-22 -30 -22 -51c0 -20 7 -37 21 -51
c13 -13 30 -20 50 -20h3z" />
    <glyph glyph-name="seven.subs" horiz-adv-x="311" 
d="M84 -79c0 77 14 138 40 183c28 46 60 83 99 112h-204v64h276v-67c-39 -33 -71 -72 -97 -118s-39 -104 -39 -174v-36h-75v36z" />
    <glyph glyph-name="eight.subs" horiz-adv-x="365" 
d="M84 -92c-27 18 -40 44 -40 78c0 22 6 41 20 56c12 15 30 28 52 37c-24 9 -43 22 -58 38s-22 35 -22 58c0 34 14 61 40 81c28 19 63 29 106 29s79 -10 106 -29c27 -20 41 -47 41 -81c0 -22 -7 -41 -21 -57c-14 -17 -32 -30 -55 -39c21 -9 37 -21 49 -37
c13 -16 19 -35 19 -56c0 -34 -13 -60 -41 -78c-26 -19 -59 -28 -98 -28s-71 9 -98 28zM185 118c19 0 36 4 50 14c14 8 21 21 21 38c0 16 -7 28 -20 38c-14 8 -31 13 -51 13h-5c-20 0 -37 -5 -50 -13c-14 -10 -21 -22 -21 -38c0 -17 7 -30 21 -38c14 -10 31 -14 50 -14h5z
M185 -56c18 0 33 4 45 14c12 8 18 21 18 37c0 15 -6 28 -18 38c-13 10 -28 15 -45 15h-5c-17 0 -32 -5 -44 -15c-13 -10 -19 -23 -19 -38c0 -16 6 -29 18 -37c12 -10 27 -14 45 -14h5z" />
    <glyph glyph-name="nine.subs" horiz-adv-x="378" 
d="M69 -87c-23 22 -34 48 -34 79h73c3 -15 10 -26 20 -35c11 -9 24 -13 39 -13h6c26 0 49 12 69 35c19 23 30 54 33 92c-8 -16 -21 -29 -41 -40c-18 -11 -40 -16 -63 -16c-36 0 -67 12 -92 37c-25 24 -38 56 -38 95c0 25 6 47 18 69c12 20 29 37 52 50s49 19 80 19
c47 0 84 -17 111 -51s41 -81 41 -140c0 -65 -16 -117 -49 -156c-32 -39 -75 -58 -128 -58c-42 0 -74 11 -97 33zM189 79c19 0 36 7 51 20s22 30 22 51c0 20 -7 37 -20 50c-14 14 -31 21 -51 21h-3c-21 0 -39 -7 -53 -20s-21 -30 -21 -51c0 -20 7 -37 20 -50
c14 -14 31 -21 52 -21h3z" />
    <glyph glyph-name="zero.subs.zero" horiz-adv-x="408" 
d="M328 230c30 -37 45 -86 45 -147s-15 -111 -45 -147c-31 -38 -72 -56 -124 -56s-93 18 -124 56c-30 36 -45 86 -45 147s15 110 45 147c31 37 72 55 124 55s93 -18 124 -55zM202 221c-29 0 -52 -14 -68 -41s-24 -60 -24 -97c0 -15 2 -30 5 -47l147 159
c-15 17 -34 26 -56 26h-4zM206 -56c29 0 52 14 68 42c16 27 24 60 24 97c0 15 -2 30 -5 47l-148 -160c16 -17 35 -26 57 -26h4z" />
    <glyph glyph-name="zero.dnom" horiz-adv-x="408" 
d="M80 50c-30 38 -45 87 -45 148s15 110 45 147c31 37 72 55 124 55s93 -18 124 -55c30 -37 45 -86 45 -147s-15 -110 -45 -148c-31 -36 -72 -55 -124 -55s-93 19 -124 55zM206 59c29 0 52 14 68 41c16 28 24 61 24 98s-8 70 -24 97s-39 41 -68 41h-4c-29 0 -52 -14 -68 -41
s-24 -60 -24 -97s8 -70 24 -98c16 -27 39 -41 68 -41h4z" />
    <glyph glyph-name="one.dnom" horiz-adv-x="269" 
d="M211 0h-73v298l-115 -96v84l132 109h56v-395z" />
    <glyph glyph-name="two.dnom" horiz-adv-x="354" 
d="M37 0v81l132 115c24 21 41 37 53 50c10 12 16 25 16 40s-6 26 -16 34c-12 9 -26 13 -43 13h-5c-16 0 -30 -5 -42 -15c-11 -10 -18 -24 -19 -42h-75c1 38 15 68 42 90c27 23 60 34 99 34c38 0 70 -10 95 -31c26 -21 39 -49 39 -84c0 -25 -7 -47 -23 -66
c-14 -19 -37 -41 -68 -67l-102 -85h197v-67h-280z" />
    <glyph glyph-name="three.dnom" horiz-adv-x="357" 
d="M73 27c-27 21 -41 50 -41 87h75c0 -17 6 -30 18 -40s27 -15 45 -15h5c19 0 36 5 49 15c13 9 20 23 20 40s-6 30 -17 39s-26 14 -43 14h-39v67h41c16 0 29 4 40 14c10 8 15 21 15 36s-6 28 -18 38c-12 9 -27 14 -45 14h-5c-17 0 -32 -5 -43 -14s-17 -22 -17 -37h-75
c0 37 13 65 40 85s60 30 100 30c39 0 71 -10 98 -29s40 -46 40 -81c0 -21 -6 -39 -17 -55s-27 -28 -46 -35c19 -9 34 -21 47 -36s19 -35 19 -58c0 -35 -14 -63 -43 -82c-28 -19 -62 -29 -103 -29c-39 0 -73 11 -100 32z" />
    <glyph glyph-name="four.dnom" horiz-adv-x="365" 
d="M281 0h-72v88h-187v64l181 243h78v-244h56v-63h-56v-88zM209 308l-116 -157h116v157z" />
    <glyph glyph-name="five.dnom" horiz-adv-x="353" 
d="M71 25c-27 20 -43 48 -48 84h79c2 -16 9 -28 22 -37c12 -9 27 -13 45 -13h4c20 0 37 6 49 19c14 12 20 28 20 48c0 17 -6 32 -18 42c-13 12 -28 17 -47 17h-3c-21 0 -41 -8 -61 -25h-70l45 235h226v-64h-170l-23 -112c10 9 22 16 37 21c14 5 28 8 42 8
c34 0 62 -12 84 -34c22 -24 33 -52 33 -86c0 -40 -14 -72 -42 -96c-28 -25 -63 -37 -105 -37c-39 0 -72 10 -99 30z" />
    <glyph glyph-name="six.dnom" horiz-adv-x="379" 
d="M77 46c-27 34 -41 81 -41 140c0 65 16 117 48 156c33 39 76 58 129 58c42 0 74 -11 97 -33s34 -48 34 -79h-73c-3 15 -10 26 -21 35c-10 9 -23 13 -38 13h-6c-26 0 -49 -12 -68 -35c-20 -23 -31 -54 -34 -92c8 16 22 29 40 40c20 11 41 16 64 16c36 0 67 -12 92 -37
c25 -24 38 -56 38 -95c0 -25 -6 -47 -18 -69c-12 -20 -29 -37 -52 -50s-49 -19 -80 -19c-47 0 -84 17 -111 51zM191 59c21 0 39 7 53 20s21 30 21 51c0 20 -7 37 -21 50c-13 14 -30 21 -51 21h-3c-19 0 -36 -7 -51 -20s-22 -30 -22 -51c0 -20 7 -37 21 -50
c13 -14 30 -21 50 -21h3z" />
    <glyph glyph-name="seven.dnom" horiz-adv-x="311" 
d="M83 36c0 77 13 138 41 184c26 45 59 82 98 111h-204v64h276v-67c-39 -33 -71 -72 -97 -118s-39 -104 -39 -174v-36h-75v36z" />
    <glyph glyph-name="eight.dnom" horiz-adv-x="365" 
d="M84 22c-27 19 -40 45 -40 79c0 22 6 41 20 56c12 15 30 28 52 37c-24 9 -43 22 -58 38s-22 35 -22 58c0 34 14 61 40 80c28 20 63 30 106 30s79 -10 106 -30c27 -19 41 -46 41 -80c0 -22 -7 -41 -21 -58c-14 -16 -32 -29 -55 -38c21 -9 37 -21 49 -37
c13 -16 19 -35 19 -56c0 -34 -13 -60 -41 -79c-26 -18 -59 -27 -98 -27s-71 9 -98 27zM185 233c19 0 36 5 50 13c14 10 21 22 21 39c0 16 -7 29 -20 37c-14 10 -31 14 -51 14h-5c-20 0 -37 -4 -50 -14c-14 -8 -21 -21 -21 -37c0 -17 7 -29 21 -39c14 -8 31 -13 50 -13h5z
M185 59c18 0 33 5 45 13c12 10 18 22 18 38c0 15 -6 28 -18 38c-13 10 -28 15 -45 15h-5c-17 0 -32 -5 -44 -15c-13 -10 -19 -23 -19 -38c0 -16 6 -28 18 -38c12 -8 27 -13 45 -13h5z" />
    <glyph glyph-name="nine.dnom" horiz-adv-x="378" 
d="M68 28c-23 22 -34 48 -34 79h73c3 -15 10 -26 21 -35c10 -9 23 -13 38 -13h6c26 0 49 12 68 35c20 23 31 54 34 92c-8 -16 -22 -29 -40 -40c-20 -11 -41 -16 -64 -16c-36 0 -67 12 -92 36c-25 25 -38 57 -38 96c0 25 6 48 18 68c12 22 29 38 52 51s49 19 80 19
c47 0 84 -17 111 -51s41 -81 41 -140c0 -65 -16 -117 -48 -156c-33 -39 -76 -58 -129 -58c-42 0 -74 11 -97 33zM188 194c19 0 36 7 51 20s22 30 22 51c0 20 -7 37 -21 51c-13 13 -30 20 -50 20h-3c-21 0 -39 -7 -53 -20s-21 -30 -21 -51c0 -20 7 -37 21 -51
c13 -13 30 -20 51 -20h3z" />
    <glyph glyph-name="zero.dnom.zero" horiz-adv-x="408" 
d="M328 345c30 -37 45 -86 45 -147s-15 -110 -45 -148c-31 -36 -72 -55 -124 -55s-93 19 -124 55c-30 38 -45 87 -45 148s15 110 45 147c31 37 72 55 124 55s93 -18 124 -55zM202 336c-29 0 -52 -14 -68 -41s-24 -60 -24 -97c0 -15 2 -30 5 -47l147 159
c-15 17 -34 26 -56 26h-4zM206 59c29 0 52 14 68 41c16 28 24 61 24 98c0 15 -2 30 -5 47l-148 -160c16 -17 35 -26 57 -26h4z" />
    <glyph glyph-name="zero.numr" horiz-adv-x="408" 
d="M80 356c-30 36 -45 86 -45 147s15 110 45 147c31 37 72 55 124 55s93 -18 124 -55c30 -37 45 -86 45 -147s-15 -111 -45 -147c-31 -38 -72 -56 -124 -56s-93 18 -124 56zM206 364c29 0 52 14 68 42c16 27 24 60 24 97s-8 70 -24 97s-39 41 -68 41h-4
c-29 0 -52 -14 -68 -41s-24 -60 -24 -97s8 -70 24 -97c16 -28 39 -42 68 -42h4z" />
    <glyph glyph-name="one.numr" horiz-adv-x="269" 
d="M211 305h-73v298l-115 -96v84l132 109h56v-395z" />
    <glyph glyph-name="two.numr" horiz-adv-x="354" 
d="M37 305v81l132 115c24 21 41 37 53 49c10 13 16 26 16 41s-6 26 -16 35c-12 8 -26 12 -43 12h-5c-16 0 -30 -5 -42 -15c-11 -10 -18 -24 -19 -42h-75c1 38 15 68 42 91c27 22 60 33 99 33c38 0 70 -10 95 -31c26 -21 39 -49 39 -84c0 -25 -7 -47 -23 -66
c-14 -19 -37 -41 -68 -67l-102 -85h197v-67h-280z" />
    <glyph glyph-name="three.numr" horiz-adv-x="357" 
d="M73 332c-27 21 -41 50 -41 87h75c0 -17 6 -30 18 -40s27 -15 45 -15h5c19 0 36 5 49 14c13 10 20 24 20 41s-6 30 -17 39s-26 14 -43 14h-39v67h41c16 0 29 5 40 13c10 10 15 22 15 37s-6 28 -18 37c-12 10 -27 15 -45 15h-5c-17 0 -32 -5 -43 -14s-17 -22 -17 -37h-75
c0 37 13 65 40 85s60 30 100 30c39 0 71 -10 98 -29s40 -46 40 -81c0 -21 -6 -39 -17 -55s-27 -28 -46 -35c19 -9 34 -21 47 -36s19 -35 19 -58c0 -35 -14 -63 -43 -82c-28 -19 -62 -29 -103 -29c-39 0 -73 11 -100 32z" />
    <glyph glyph-name="four.numr" horiz-adv-x="365" 
d="M280 305h-72v88h-187v64l181 243h78v-244h56v-63h-56v-88zM208 613l-116 -157h116v157z" />
    <glyph glyph-name="five.numr" horiz-adv-x="353" 
d="M70 330c-27 20 -43 48 -48 84h79c2 -16 9 -28 21 -37c13 -9 28 -13 46 -13h4c20 0 36 6 50 18c12 13 19 29 19 49c0 17 -6 31 -19 43c-12 10 -27 16 -46 16h-3c-21 0 -41 -8 -61 -25h-70l45 235h226v-64h-170l-23 -112c10 9 22 16 36 21c15 5 29 8 43 8
c34 0 62 -11 84 -35c22 -22 33 -51 33 -85c0 -40 -14 -72 -42 -97c-28 -24 -63 -36 -105 -36c-39 0 -72 10 -99 30z" />
    <glyph glyph-name="six.numr" horiz-adv-x="379" 
d="M77 351c-27 34 -41 81 -41 140c0 65 16 117 48 156c33 39 76 58 129 58c42 0 74 -11 97 -33s34 -48 34 -79h-73c-3 15 -10 26 -21 35c-10 9 -23 13 -38 13h-6c-26 0 -49 -12 -68 -35c-20 -23 -31 -54 -34 -92c8 16 22 29 40 40c20 11 41 16 64 16c36 0 67 -12 92 -36
c25 -25 38 -57 38 -96c0 -25 -6 -48 -18 -68c-12 -22 -29 -38 -52 -51s-49 -19 -80 -19c-47 0 -84 17 -111 51zM191 364c21 0 39 7 53 20s21 30 21 51c0 20 -7 37 -21 51c-13 13 -30 20 -51 20h-3c-19 0 -36 -7 -51 -20s-22 -30 -22 -51c0 -20 7 -37 21 -51
c13 -13 30 -20 50 -20h3z" />
    <glyph glyph-name="seven.numr" horiz-adv-x="311" 
d="M83 341c0 77 13 138 41 183c26 46 59 83 98 112h-204v64h276v-67c-39 -33 -71 -72 -97 -118s-39 -104 -39 -174v-36h-75v36z" />
    <glyph glyph-name="eight.numr" horiz-adv-x="365" 
d="M84 328c-27 18 -40 44 -40 78c0 22 6 41 20 56c12 15 30 28 52 37c-24 9 -43 22 -58 38s-22 35 -22 58c0 34 14 61 40 81c28 19 63 29 106 29s79 -10 106 -29c27 -20 41 -47 41 -81c0 -22 -7 -41 -21 -57c-14 -17 -32 -30 -55 -39c21 -9 37 -21 49 -37
c13 -16 19 -35 19 -56c0 -34 -13 -60 -41 -78c-26 -19 -59 -28 -98 -28s-71 9 -98 28zM185 538c19 0 36 4 50 14c14 8 21 21 21 38c0 16 -7 28 -20 38c-14 8 -31 13 -51 13h-5c-20 0 -37 -5 -50 -13c-14 -10 -21 -22 -21 -38c0 -17 7 -30 21 -38c14 -10 31 -14 50 -14h5z
M185 364c18 0 33 4 45 14c12 8 18 21 18 37c0 15 -6 28 -18 38c-13 10 -28 15 -45 15h-5c-17 0 -32 -5 -44 -15c-13 -10 -19 -23 -19 -38c0 -16 6 -29 18 -37c12 -10 27 -14 45 -14h5z" />
    <glyph glyph-name="nine.numr" horiz-adv-x="378" 
d="M69 333c-23 22 -34 48 -34 79h73c3 -15 10 -26 20 -35c11 -9 24 -13 39 -13h6c26 0 49 12 69 35c19 23 30 54 33 92c-8 -16 -21 -29 -41 -40c-18 -11 -40 -16 -63 -16c-36 0 -67 12 -92 37c-25 24 -38 56 -38 95c0 25 6 47 18 69c12 20 29 37 52 50s49 19 80 19
c47 0 84 -17 111 -51s41 -81 41 -140c0 -65 -16 -117 -49 -156c-32 -39 -75 -58 -128 -58c-42 0 -74 11 -97 33zM189 499c19 0 36 7 51 20s22 30 22 51c0 20 -7 37 -20 50c-14 14 -31 21 -51 21h-3c-21 0 -39 -7 -53 -20s-21 -30 -21 -51c0 -20 7 -37 20 -50
c14 -14 31 -21 52 -21h3z" />
    <glyph glyph-name="zero.numr.zero" horiz-adv-x="408" 
d="M328 650c30 -37 45 -86 45 -147s-15 -111 -45 -147c-31 -38 -72 -56 -124 -56s-93 18 -124 56c-30 36 -45 86 -45 147s15 110 45 147c31 37 72 55 124 55s93 -18 124 -55zM202 641c-29 0 -52 -14 -68 -41s-24 -60 -24 -97c0 -15 2 -30 5 -47l147 159
c-15 17 -34 26 -56 26h-4zM206 364c29 0 52 14 68 42c16 27 24 60 24 97c0 15 -2 30 -5 47l-148 -160c16 -17 35 -26 57 -26h4z" />
    <glyph glyph-name="uni2070" unicode="&#x2070;" horiz-adv-x="408" 
d="M80 466c-30 36 -45 86 -45 147s15 110 45 147c31 37 72 55 124 55s93 -18 124 -55c30 -37 45 -86 45 -147s-15 -111 -45 -147c-31 -38 -72 -56 -124 -56s-93 18 -124 56zM206 474c29 0 52 14 68 42c16 27 24 60 24 97s-8 70 -24 97s-39 41 -68 41h-4
c-29 0 -52 -14 -68 -41s-24 -60 -24 -97s8 -70 24 -97c16 -28 39 -42 68 -42h4z" />
    <glyph glyph-name="uni00B9" unicode="&#xb9;" horiz-adv-x="269" 
d="M211 415h-73v298l-115 -96v84l132 109h56v-395z" />
    <glyph glyph-name="uni00B2" unicode="&#xb2;" horiz-adv-x="354" 
d="M37 415v81l132 115c24 21 41 37 53 49c10 13 16 26 16 41s-6 26 -16 35c-12 8 -26 12 -43 12h-5c-16 0 -30 -5 -42 -15c-11 -10 -18 -24 -19 -42h-75c1 38 15 68 42 91c27 22 60 33 99 33c38 0 70 -10 95 -31c26 -21 39 -49 39 -84c0 -25 -7 -47 -23 -66
c-14 -19 -37 -41 -68 -67l-102 -85h197v-67h-280z" />
    <glyph glyph-name="uni00B3" unicode="&#xb3;" horiz-adv-x="357" 
d="M73 442c-27 21 -41 50 -41 87h75c0 -17 6 -30 18 -40s27 -15 45 -15h5c19 0 36 5 49 14c13 10 20 24 20 41s-6 30 -17 39s-26 14 -43 14h-39v67h41c16 0 29 5 40 13c10 10 15 22 15 37s-6 28 -18 37c-12 10 -27 15 -45 15h-5c-17 0 -32 -5 -43 -14s-17 -22 -17 -37h-75
c0 37 13 65 40 85s60 30 100 30c39 0 71 -10 98 -29s40 -46 40 -81c0 -21 -6 -39 -17 -55s-27 -28 -46 -35c19 -9 34 -21 47 -36s19 -35 19 -58c0 -35 -14 -63 -43 -82c-28 -19 -62 -29 -103 -29c-39 0 -73 11 -100 32z" />
    <glyph glyph-name="uni2074" unicode="&#x2074;" horiz-adv-x="365" 
d="M281 415h-72v88h-187v64l181 243h78v-244h56v-63h-56v-88zM209 723l-116 -157h116v157z" />
    <glyph glyph-name="uni2075" unicode="&#x2075;" horiz-adv-x="353" 
d="M71 440c-27 20 -43 48 -48 84h79c2 -16 9 -28 22 -37c12 -9 27 -13 45 -13h4c20 0 37 6 49 18c14 13 20 29 20 49c0 17 -6 31 -18 43c-13 10 -28 16 -47 16h-3c-21 0 -41 -8 -61 -25h-70l45 235h226v-64h-170l-23 -112c10 9 22 16 37 21c14 5 28 8 42 8
c34 0 62 -11 84 -35c22 -22 33 -51 33 -85c0 -40 -14 -72 -42 -97c-28 -24 -63 -36 -105 -36c-39 0 -72 10 -99 30z" />
    <glyph glyph-name="uni2076" unicode="&#x2076;" horiz-adv-x="379" 
d="M77 461c-27 34 -41 81 -41 140c0 65 16 117 48 156c33 39 76 58 129 58c42 0 74 -11 97 -33s34 -48 34 -79h-73c-3 15 -10 26 -21 35c-10 9 -23 13 -38 13h-6c-26 0 -49 -12 -68 -35c-20 -23 -31 -54 -34 -92c8 16 22 29 40 40c20 11 41 16 64 16c36 0 67 -12 92 -36
c25 -25 38 -57 38 -96c0 -25 -6 -48 -18 -68c-12 -22 -29 -38 -52 -51s-49 -19 -80 -19c-47 0 -84 17 -111 51zM191 474c21 0 39 7 53 20s21 30 21 51c0 20 -7 37 -21 51c-13 13 -30 20 -51 20h-3c-19 0 -36 -7 -51 -20s-22 -30 -22 -51c0 -20 7 -37 21 -51
c13 -13 30 -20 50 -20h3z" />
    <glyph glyph-name="uni2077" unicode="&#x2077;" horiz-adv-x="311" 
d="M83 451c0 77 13 138 41 183c26 46 59 83 98 112h-204v64h276v-67c-39 -33 -71 -72 -97 -118s-39 -104 -39 -174v-36h-75v36z" />
    <glyph glyph-name="uni2078" unicode="&#x2078;" horiz-adv-x="365" 
d="M84 438c-27 18 -40 44 -40 78c0 22 6 41 20 56c12 15 30 28 52 37c-24 9 -43 22 -58 38s-22 35 -22 58c0 34 14 61 40 81c28 19 63 29 106 29s79 -10 106 -29c27 -20 41 -47 41 -81c0 -22 -7 -41 -21 -57c-14 -17 -32 -30 -55 -39c21 -9 37 -21 49 -37
c13 -16 19 -35 19 -56c0 -34 -13 -60 -41 -78c-26 -19 -59 -28 -98 -28s-71 9 -98 28zM185 648c19 0 36 4 50 14c14 8 21 21 21 38c0 16 -7 28 -20 38c-14 8 -31 13 -51 13h-5c-20 0 -37 -5 -50 -13c-14 -10 -21 -22 -21 -38c0 -17 7 -30 21 -38c14 -10 31 -14 50 -14h5z
M185 474c18 0 33 4 45 14c12 8 18 21 18 37c0 15 -6 28 -18 38c-13 10 -28 15 -45 15h-5c-17 0 -32 -5 -44 -15c-13 -10 -19 -23 -19 -38c0 -16 6 -29 18 -37c12 -10 27 -14 45 -14h5z" />
    <glyph glyph-name="uni2079" unicode="&#x2079;" horiz-adv-x="378" 
d="M68 443c-23 22 -34 48 -34 79h73c3 -15 10 -26 21 -35c10 -9 23 -13 38 -13h6c26 0 49 12 68 35c20 23 31 54 34 92c-8 -16 -22 -29 -40 -40c-20 -11 -41 -16 -64 -16c-36 0 -67 12 -92 37c-25 24 -38 56 -38 95c0 25 6 47 18 69c12 20 29 37 52 50s49 19 80 19
c47 0 84 -17 111 -51s41 -81 41 -140c0 -65 -16 -117 -48 -156c-33 -39 -76 -58 -129 -58c-42 0 -74 11 -97 33zM188 609c19 0 36 7 51 20s22 30 22 51c0 20 -7 37 -21 50c-13 14 -30 21 -50 21h-3c-21 0 -39 -7 -53 -20s-21 -30 -21 -51c0 -20 7 -37 21 -50
c13 -14 30 -21 51 -21h3z" />
    <glyph glyph-name="uni2070.zero" horiz-adv-x="408" 
d="M328 760c30 -37 45 -86 45 -147s-15 -111 -45 -147c-31 -38 -72 -56 -124 -56s-93 18 -124 56c-30 36 -45 86 -45 147s15 110 45 147c31 37 72 55 124 55s93 -18 124 -55zM202 751c-29 0 -52 -14 -68 -41s-24 -60 -24 -97c0 -15 2 -30 5 -47l147 159
c-15 17 -34 26 -56 26h-4zM206 474c29 0 52 14 68 42c16 27 24 60 24 97c0 15 -2 30 -5 47l-148 -160c16 -17 35 -26 57 -26h4z" />
    <glyph glyph-name="fraction" unicode="&#x2044;" horiz-adv-x="179" 
d="M-80 0h-85l420 700h85z" />
    <glyph glyph-name="uni215F" unicode="&#x215f;" horiz-adv-x="648" 
d="M229 0h-85l420 700h85zM210 305h-73v298l-115 -96v84l132 109h56v-395z" />
    <glyph glyph-name="onehalf" unicode="&#xbd;" horiz-adv-x="876" 
d="M239 0h-85l420 700h85zM220 305h-73v298l-115 -96v84l132 109h56v-395zM554 0v81l132 115c24 21 42 37 52 50c12 12 17 25 17 40s-5 26 -17 34c-10 9 -25 13 -42 13h-5c-16 0 -30 -5 -41 -15c-12 -10 -19 -24 -20 -42h-75c1 38 15 68 42 90c27 23 60 34 99 34
c38 0 70 -10 96 -31c25 -21 38 -49 38 -84c0 -25 -8 -47 -22 -66c-16 -19 -38 -41 -69 -67l-102 -85h197v-67h-280z" />
    <glyph glyph-name="uni2153" unicode="&#x2153;" horiz-adv-x="879" 
d="M239 0h-85l420 700h85zM591 27c-27 21 -41 50 -41 87h75c0 -17 6 -30 18 -40s27 -15 45 -15h5c19 0 36 5 49 15c13 9 20 23 20 40s-6 30 -17 39s-26 14 -43 14h-39v67h41c16 0 29 4 40 14c10 8 15 21 15 36s-6 28 -18 38c-12 9 -27 14 -45 14h-5c-17 0 -32 -5 -43 -14
s-17 -22 -17 -37h-75c0 37 13 65 40 85s60 30 100 30c39 0 71 -10 98 -29s40 -46 40 -81c0 -21 -6 -39 -17 -55s-27 -28 -46 -35c19 -9 34 -21 47 -36s19 -35 19 -58c0 -35 -14 -63 -43 -82c-28 -19 -62 -29 -103 -29c-39 0 -73 11 -100 32zM220 305h-73v298l-115 -96v84
l132 109h56v-395z" />
    <glyph glyph-name="uni2154" unicode="&#x2154;" horiz-adv-x="927" 
d="M307 0h-85l420 700h85zM47 305v81l132 115c24 21 41 37 53 49c10 13 16 26 16 41s-6 26 -16 35c-12 8 -26 12 -43 12h-5c-16 0 -30 -5 -42 -15c-11 -10 -18 -24 -19 -42h-75c1 38 15 68 42 91c27 22 60 33 99 33c38 0 70 -10 95 -31c26 -21 39 -49 39 -84
c0 -25 -7 -47 -23 -66c-14 -19 -37 -41 -68 -67l-102 -85h197v-67h-280zM640 27c-27 21 -41 50 -41 87h75c0 -17 6 -30 18 -40s27 -15 45 -15h5c19 0 36 5 49 15c13 9 20 23 20 40s-6 30 -17 39s-26 14 -43 14h-39v67h41c16 0 29 4 39 14c11 8 16 21 16 36s-6 28 -18 38
c-12 9 -27 14 -45 14h-5c-17 0 -32 -5 -43 -14s-17 -22 -17 -37h-75c0 37 13 65 40 85s60 30 100 30c39 0 71 -10 98 -29s40 -46 40 -81c0 -21 -6 -39 -17 -55s-27 -28 -46 -35c19 -9 34 -21 47 -36s19 -35 19 -58c0 -35 -14 -63 -42 -82c-29 -19 -63 -29 -104 -29
c-39 0 -73 11 -100 32z" />
    <glyph glyph-name="onequarter" unicode="&#xbc;" horiz-adv-x="838" 
d="M244 0h-85l420 700h85zM220 305h-73v298l-115 -96v84l132 109h56v-395zM749 0h-72v88h-187v64l181 243h78v-244h56v-63h-56v-88zM677 308l-116 -157h116v157z" />
    <glyph glyph-name="threequarters" unicode="&#xbe;" horiz-adv-x="914" 
d="M315 0h-85l420 700h85zM81 332c-27 21 -41 50 -41 87h75c0 -17 6 -30 18 -40s27 -15 45 -15h5c19 0 36 5 49 14c13 10 20 24 20 41s-6 30 -17 39s-26 14 -43 14h-39v67h41c16 0 29 5 40 13c10 10 15 22 15 37s-6 28 -18 37c-12 10 -27 15 -45 15h-5c-17 0 -32 -5 -43 -14
s-17 -22 -17 -37h-75c0 37 13 65 40 85s60 30 100 30c39 0 71 -10 98 -29s40 -46 40 -81c0 -21 -6 -39 -17 -55s-27 -28 -46 -35c19 -9 34 -21 47 -36s19 -35 19 -58c0 -35 -14 -63 -43 -82c-28 -19 -62 -29 -103 -29c-39 0 -73 11 -100 32zM825 0h-72v88h-187v64l181 243
h78v-244h56v-63h-56v-88zM753 308l-116 -157h116v157z" />
    <glyph glyph-name="uni2155" unicode="&#x2155;" horiz-adv-x="875" 
d="M239 0h-85l420 700h85zM220 305h-73v298l-115 -96v84l132 109h56v-395zM580 25c-27 20 -43 48 -48 84h79c2 -16 9 -28 21 -37c13 -9 28 -13 46 -13h4c20 0 36 6 50 19c12 12 19 28 19 48c0 17 -6 32 -19 42c-12 12 -27 17 -46 17h-3c-21 0 -41 -8 -61 -25h-70l45 235h226
v-64h-170l-23 -112c10 9 22 16 36 21c15 5 29 8 43 8c34 0 62 -12 84 -34c22 -24 33 -52 33 -86c0 -40 -14 -72 -42 -96c-28 -25 -63 -37 -105 -37c-39 0 -72 10 -99 30z" />
    <glyph glyph-name="uni2156" unicode="&#x2156;" horiz-adv-x="941" 
d="M307 0h-85l420 700h85zM47 305v81l132 115c24 21 41 37 53 49c10 13 16 26 16 41s-6 26 -16 35c-12 8 -26 12 -43 12h-5c-16 0 -30 -5 -42 -15c-11 -10 -18 -24 -19 -42h-75c1 38 15 68 42 91c27 22 60 33 99 33c38 0 70 -10 95 -31c26 -21 39 -49 39 -84
c0 -25 -7 -47 -23 -66c-14 -19 -37 -41 -68 -67l-102 -85h197v-67h-280zM648 25c-27 20 -43 48 -48 84h79c2 -16 9 -28 21 -37c13 -9 28 -13 46 -13h4c20 0 36 6 50 19c12 12 19 28 19 48c0 17 -6 32 -19 42c-12 12 -27 17 -46 17h-3c-21 0 -41 -8 -61 -25h-70l45 235h226
v-64h-170l-23 -112c10 9 22 16 36 21c15 5 29 8 43 8c34 0 62 -12 84 -34c22 -24 33 -52 33 -86c0 -40 -14 -72 -42 -96c-28 -25 -63 -37 -105 -37c-39 0 -72 10 -99 30z" />
    <glyph glyph-name="uni2157" unicode="&#x2157;" horiz-adv-x="947" 
d="M313 0h-85l420 700h85zM80 332c-27 21 -41 50 -41 87h75c0 -17 6 -30 18 -40s27 -15 45 -15h5c19 0 36 5 49 14c13 10 20 24 20 41s-6 30 -17 39s-26 14 -43 14h-39v67h41c16 0 29 5 39 13c11 10 16 22 16 37s-6 28 -18 37c-12 10 -27 15 -45 15h-5c-17 0 -32 -5 -43 -14
s-17 -22 -17 -37h-75c0 37 13 65 40 85s60 30 100 30c39 0 71 -10 98 -29s40 -46 40 -81c0 -21 -6 -39 -17 -55s-27 -28 -46 -35c19 -9 34 -21 47 -36s19 -35 19 -58c0 -35 -14 -63 -42 -82c-29 -19 -63 -29 -104 -29c-39 0 -73 11 -100 32zM654 25c-27 20 -43 48 -48 84h79
c2 -16 9 -28 21 -37c13 -9 28 -13 46 -13h4c20 0 36 6 50 19c12 12 19 28 19 48c0 17 -6 32 -19 42c-12 12 -27 17 -46 17h-3c-21 0 -41 -8 -61 -25h-70l45 235h226v-64h-170l-23 -112c10 9 22 16 36 21c15 5 29 8 43 8c34 0 62 -12 84 -34c22 -24 33 -52 33 -86
c0 -40 -14 -72 -42 -96c-28 -25 -63 -37 -105 -37c-39 0 -72 10 -99 30z" />
    <glyph glyph-name="uni2158" unicode="&#x2158;" horiz-adv-x="966" 
d="M328 0h-85l420 700h85zM290 305h-72v88h-187v64l181 243h78v-244h56v-63h-56v-88zM218 613l-116 -157h116v157zM669 25c-27 20 -43 48 -48 84h79c2 -16 9 -28 22 -37c12 -9 27 -13 45 -13h4c20 0 37 6 49 19c14 12 20 28 20 48c0 17 -6 32 -18 42c-13 12 -28 17 -47 17
h-3c-21 0 -41 -8 -61 -25h-70l45 235h226v-64h-170l-23 -112c10 9 22 16 37 21c14 5 28 8 42 8c34 0 62 -12 84 -34c22 -24 33 -52 33 -86c0 -40 -14 -72 -42 -96c-28 -25 -63 -37 -105 -37c-39 0 -72 10 -99 30z" />
    <glyph glyph-name="uni2159" unicode="&#x2159;" horiz-adv-x="877" 
d="M239 0h-85l420 700h85zM220 305h-73v298l-115 -96v84l132 109h56v-395zM570 46c-27 34 -41 81 -41 140c0 65 16 117 49 156c32 39 75 58 128 58c42 0 74 -11 97 -33s34 -48 34 -79h-73c-3 15 -10 26 -20 35c-11 9 -24 13 -39 13h-6c-26 0 -49 -12 -69 -35
c-19 -23 -30 -54 -33 -92c8 16 21 29 41 40c18 11 40 16 63 16c36 0 67 -12 92 -37c25 -24 38 -56 38 -95c0 -25 -6 -47 -18 -69c-12 -20 -29 -37 -52 -50s-49 -19 -80 -19c-47 0 -84 17 -111 51zM684 59c21 0 39 7 53 20s21 30 21 51c0 20 -7 37 -20 50
c-14 14 -31 21 -52 21h-3c-19 0 -36 -7 -51 -20s-22 -30 -22 -51c0 -20 7 -37 20 -50c14 -14 31 -21 51 -21h3z" />
    <glyph glyph-name="uni215A" unicode="&#x215a;" horiz-adv-x="951" 
d="M311 0h-85l420 700h85zM80 330c-27 20 -43 48 -48 84h79c2 -16 9 -28 21 -37c13 -9 28 -13 46 -13h4c20 0 36 6 50 18c12 13 19 29 19 49c0 17 -6 31 -19 43c-12 10 -27 16 -46 16h-3c-21 0 -41 -8 -61 -25h-70l45 235h226v-64h-170l-23 -112c10 9 22 16 36 21
c15 5 29 8 43 8c34 0 62 -11 84 -35c22 -22 33 -51 33 -85c0 -40 -14 -72 -42 -97c-28 -24 -63 -36 -105 -36c-39 0 -72 10 -99 30zM643 46c-27 34 -41 81 -41 140c0 65 16 117 48 156c33 39 76 58 129 58c42 0 74 -11 97 -33s34 -48 34 -79h-73c-3 15 -10 26 -21 35
c-10 9 -23 13 -38 13h-6c-26 0 -49 -12 -68 -35c-20 -23 -31 -54 -34 -92c8 16 22 29 40 40c20 11 41 16 64 16c36 0 67 -12 92 -37c25 -24 38 -56 38 -95c0 -25 -6 -47 -18 -69c-12 -20 -29 -37 -52 -50s-49 -19 -80 -19c-47 0 -84 17 -111 51zM757 59c21 0 39 7 53 20
s21 30 21 51c0 20 -7 37 -21 50c-13 14 -30 21 -51 21h-3c-19 0 -36 -7 -51 -20s-22 -30 -22 -51c0 -20 7 -37 21 -50c13 -14 30 -21 50 -21h3z" />
    <glyph glyph-name="oneeighth" unicode="&#x215b;" horiz-adv-x="889" 
d="M239 0h-85l420 700h85zM604 22c-27 19 -40 45 -40 79c0 22 6 41 20 56c12 15 30 28 52 37c-24 9 -43 22 -58 38s-22 35 -22 58c0 34 14 61 40 80c28 20 63 30 106 30s79 -10 106 -30c27 -19 41 -46 41 -80c0 -22 -7 -41 -21 -58c-14 -16 -32 -29 -55 -38
c21 -9 37 -21 49 -37c13 -16 19 -35 19 -56c0 -34 -13 -60 -41 -79c-26 -18 -59 -27 -98 -27s-71 9 -98 27zM705 233c19 0 36 5 50 13c14 10 21 22 21 39c0 16 -7 29 -20 37c-14 10 -31 14 -51 14h-5c-20 0 -37 -4 -50 -14c-14 -8 -21 -21 -21 -37c0 -17 7 -29 21 -39
c14 -8 31 -13 50 -13h5zM705 59c18 0 33 5 45 13c12 10 18 22 18 38c0 15 -6 28 -18 38c-13 10 -28 15 -45 15h-5c-17 0 -32 -5 -44 -15c-13 -10 -19 -23 -19 -38c0 -16 6 -28 18 -38c12 -8 27 -13 45 -13h5zM220 305h-73v298l-115 -96v84l132 109h56v-395z" />
    <glyph glyph-name="threeeighths" unicode="&#x215c;" horiz-adv-x="949" 
d="M296 -10h-85l420 700h85zM665 22c-27 19 -40 45 -40 79c0 22 7 41 19 56c14 15 31 28 53 37c-24 9 -43 22 -58 38s-22 35 -22 58c0 34 13 61 41 80c26 20 62 30 105 30s79 -10 106 -30c27 -19 41 -46 41 -80c0 -22 -7 -41 -21 -58c-14 -16 -32 -29 -55 -38
c21 -9 37 -21 50 -37c12 -16 18 -35 18 -56c0 -34 -14 -60 -40 -79c-28 -18 -60 -27 -99 -27s-71 9 -98 27zM766 233c19 0 36 5 50 13c14 10 21 22 21 39c0 16 -7 29 -21 37c-13 10 -30 14 -50 14h-5c-20 0 -37 -4 -51 -14c-13 -8 -20 -21 -20 -37c0 -17 7 -29 21 -39
c14 -8 31 -13 50 -13h5zM766 59c18 0 33 5 45 13c12 10 18 22 18 38c0 15 -6 28 -19 38c-12 10 -27 15 -44 15h-5c-17 0 -32 -5 -45 -15c-12 -10 -18 -23 -18 -38c0 -16 6 -28 18 -38c12 -8 27 -13 45 -13h5zM79 332c-27 21 -41 50 -41 87h75c0 -17 6 -30 18 -40
s27 -15 45 -15h5c19 0 36 5 49 14c13 10 20 24 20 41s-6 30 -17 39s-26 14 -43 14h-39v67h41c16 0 29 5 40 13c10 10 15 22 15 37s-6 28 -18 37c-12 10 -27 15 -45 15h-5c-17 0 -32 -5 -43 -14s-17 -22 -17 -37h-75c0 37 13 65 40 85s60 30 100 30c39 0 71 -10 98 -29
s40 -46 40 -81c0 -21 -6 -39 -17 -55s-27 -28 -46 -35c19 -9 34 -21 47 -36s19 -35 19 -58c0 -35 -14 -63 -43 -82c-28 -19 -62 -29 -103 -29c-39 0 -73 11 -100 32z" />
    <glyph glyph-name="fiveeighths" unicode="&#x215d;" horiz-adv-x="957" 
d="M306 0h-85l420 700h85zM671 22c-27 19 -40 45 -40 79c0 22 7 41 19 56c14 15 31 28 53 37c-24 9 -43 22 -58 38s-22 35 -22 58c0 34 13 61 41 80c26 20 62 30 105 30s79 -10 106 -30c27 -19 41 -46 41 -80c0 -22 -7 -41 -21 -58c-14 -16 -32 -29 -55 -38
c21 -9 37 -21 50 -37c12 -16 18 -35 18 -56c0 -34 -14 -60 -40 -79c-28 -18 -60 -27 -99 -27s-71 9 -98 27zM772 233c19 0 36 5 50 13c14 10 21 22 21 39c0 16 -7 29 -21 37c-13 10 -30 14 -50 14h-5c-20 0 -37 -4 -51 -14c-13 -8 -20 -21 -20 -37c0 -17 7 -29 21 -39
c14 -8 31 -13 50 -13h5zM772 59c18 0 33 5 45 13c12 10 18 22 18 38c0 15 -6 28 -19 38c-12 10 -27 15 -44 15h-5c-17 0 -32 -5 -45 -15c-12 -10 -18 -23 -18 -38c0 -16 6 -28 18 -38c12 -8 27 -13 45 -13h5zM80 330c-27 20 -43 48 -48 84h79c2 -16 9 -28 21 -37
c13 -9 28 -13 46 -13h4c20 0 36 6 50 18c12 13 19 29 19 49c0 17 -6 31 -19 43c-12 10 -27 16 -46 16h-3c-21 0 -41 -8 -61 -25h-70l45 235h226v-64h-170l-23 -112c10 9 22 16 36 21c15 5 29 8 43 8c34 0 62 -11 84 -35c22 -22 33 -51 33 -85c0 -40 -14 -72 -42 -97
c-28 -24 -63 -36 -105 -36c-39 0 -72 10 -99 30z" />
    <glyph glyph-name="seveneighths" unicode="&#x215e;" horiz-adv-x="857" 
d="M208 0h-85l420 700h85zM572 22c-27 19 -40 45 -40 79c0 22 6 41 20 56c12 15 30 28 52 37c-24 9 -43 22 -58 38s-22 35 -22 58c0 34 14 61 40 80c28 20 63 30 106 30s79 -10 106 -30c27 -19 41 -46 41 -80c0 -22 -7 -41 -21 -58c-14 -16 -32 -29 -55 -38
c21 -9 37 -21 49 -37c13 -16 19 -35 19 -56c0 -34 -13 -60 -41 -79c-26 -18 -59 -27 -98 -27s-71 9 -98 27zM673 233c19 0 36 5 50 13c14 10 21 22 21 39c0 16 -7 29 -20 37c-14 10 -31 14 -51 14h-5c-20 0 -37 -4 -50 -14c-14 -8 -21 -21 -21 -37c0 -17 7 -29 21 -39
c14 -8 31 -13 50 -13h5zM673 59c18 0 33 5 45 13c12 10 18 22 18 38c0 15 -6 28 -18 38c-13 10 -28 15 -45 15h-5c-17 0 -32 -5 -44 -15c-13 -10 -19 -23 -19 -38c0 -16 6 -28 18 -38c12 -8 27 -13 45 -13h5zM97 341c0 77 13 138 41 183c26 46 59 83 98 112h-204v64h276v-67
c-39 -33 -71 -72 -97 -118s-39 -104 -39 -174v-36h-75v36z" />
    <glyph glyph-name="uni2160" unicode="&#x2160;" horiz-adv-x="481" 
d="M433 0h-385v80h145v540h-145v80h385v-80h-145v-540h145v-80z" />
    <glyph glyph-name="uni2161" unicode="&#x2161;" horiz-adv-x="766" 
d="M718 0h-670v80h145v540h-145v80h670v-80h-145v-540h145v-80zM288 620v-540h190v540h-190z" />
    <glyph glyph-name="uni2162" unicode="&#x2162;" horiz-adv-x="1051" 
d="M1003 0h-955v80h145v540h-145v80h955v-80h-145v-540h145v-80zM288 620v-540h190v540h-190zM573 620v-540h190v540h-190z" />
    <glyph glyph-name="uni2163" unicode="&#x2163;" horiz-adv-x="1071" 
d="M908 0h-860v80h145v540h-145v80h565v-80h-100l163 -527l167 527h-105v80h300v-80h-100l-180 -540h150v-80zM288 620v-540h295l-170 540h-125z" />
    <glyph glyph-name="uni2164" unicode="&#x2164;" horiz-adv-x="792" 
d="M629 0h-475v80h150l-170 540h-100v80h300v-80h-100l163 -527l167 527h-105v80h300v-80h-100l-180 -540h150v-80z" />
    <glyph glyph-name="uni2165" unicode="&#x2165;" horiz-adv-x="1062" 
d="M1014 0h-860v80h150l-170 540h-100v80h300v-80h-100l163 -527l167 527h-105v80h555v-80h-145v-540h145v-80zM659 620l-180 -540h295v540h-115z" />
    <glyph glyph-name="uni2166" unicode="&#x2166;" horiz-adv-x="1347" 
d="M1299 0h-1145v80h150l-170 540h-100v80h300v-80h-100l163 -527l167 527h-105v80h840v-80h-145v-540h145v-80zM659 620l-180 -540h295v540h-115zM869 620v-540h190v540h-190z" />
    <glyph glyph-name="uni2167" unicode="&#x2167;" horiz-adv-x="1632" 
d="M1584 0h-1430v80h150l-170 540h-100v80h300v-80h-100l163 -527l167 527h-105v80h1125v-80h-145v-540h145v-80zM659 620l-180 -540h295v540h-115zM869 620v-540h190v540h-190zM1154 620v-540h190v540h-190z" />
    <glyph glyph-name="uni2168" unicode="&#x2168;" horiz-adv-x="1022" 
d="M978 0h-930v80h145v540h-145v80h920v-80h-100l-181 -264l186 -276h105v-80zM288 620v-540h105l186 272l-181 268h-110zM508 620l127 -187l128 187h-255zM631 275l-133 -195h265z" />
    <glyph glyph-name="uni2169" unicode="&#x2169;" horiz-adv-x="778" 
d="M734 0h-690v80h105l186 272l-181 268h-100v80h670v-80h-100l-181 -264l186 -276h105v-80zM264 620l127 -187l128 187h-255zM387 275l-133 -195h265z" />
    <glyph glyph-name="uni216C" unicode="&#x216c;" horiz-adv-x="698" 
d="M657 0h-610v80h135v540h-135v80h365v-80h-135v-540h285v180h95v-260z" />
    <glyph glyph-name="uni216D" unicode="&#x216d;" horiz-adv-x="737" 
d="M206 38c-49 32 -86 75 -114 130c-26 55 -40 115 -40 182s14 127 40 182c28 55 65 98 114 130s104 48 166 48c36 0 68 -6 98 -17c28 -11 52 -24 69 -38s28 -26 33 -35v80h95v-220h-95c-11 44 -33 80 -66 108s-74 42 -124 42h-10c-45 0 -84 -12 -118 -36
c-34 -23 -60 -56 -79 -98c-19 -43 -28 -91 -28 -146s9 -103 28 -146c19 -42 45 -75 79 -98c34 -24 73 -36 118 -36h10c49 0 90 14 123 42c33 29 56 65 67 108h95v-220h-100v80c-5 -9 -15 -21 -32 -35s-39 -27 -67 -38s-60 -17 -96 -17c-62 0 -117 16 -166 48z" />
    <glyph glyph-name="uni216E" unicode="&#x216e;" horiz-adv-x="785" 
d="M47 0v80h135v540h-135v80h360c65 0 121 -14 171 -42c48 -28 86 -68 114 -121c26 -53 40 -115 40 -187s-14 -134 -40 -187c-28 -53 -66 -93 -114 -121c-50 -28 -106 -42 -171 -42h-360zM397 80c75 0 134 24 177 70c42 48 63 114 63 200s-21 152 -63 200
c-43 46 -102 70 -177 70h-120v-540h120z" />
    <glyph glyph-name="uni216F" unicode="&#x216f;" horiz-adv-x="1064" 
d="M347 0h-300v80h135v540h-135v80h295l195 -610l185 610h295v-80h-135v-540h135v-80h-300v80h70v530l-192 -610h-121l-197 615v-535h70v-80z" />
    <glyph glyph-name="period" unicode="." horiz-adv-x="252" 
d="M186 0h-120v120h120v-120z" />
    <glyph glyph-name="comma" unicode="," horiz-adv-x="256" 
d="M33 -140v65h35c40 0 60 20 60 60v15h-60v120h120v-140c0 -39 -10 -69 -32 -90c-20 -20 -50 -30 -88 -30h-35z" />
    <glyph glyph-name="colon" unicode=":" horiz-adv-x="254" 
d="M187 0h-120v120h120v-120zM187 380h-120v120h120v-120z" />
    <glyph glyph-name="semicolon" unicode=";" horiz-adv-x="281" 
d="M50 -140v65h35c40 0 60 20 60 60v15h-60v120h120v-140c0 -39 -11 -69 -31 -90c-22 -20 -51 -30 -89 -30h-35zM205 380h-120v120h120v-120z" />
    <glyph glyph-name="ellipsis" unicode="&#x2026;" horiz-adv-x="762" 
d="M186 0h-120v120h120v-120zM441 0h-120v120h120v-120zM696 0h-120v120h120v-120z" />
    <glyph glyph-name="exclam" unicode="!" horiz-adv-x="260" 
d="M155 190h-50l-25 285v225h99v-225zM182 0h-105v110h105v-110z" />
    <glyph glyph-name="exclamdown" unicode="&#xa1;" horiz-adv-x="249" 
d="M72 500h105v-110h-105v110zM99 310h50l25 -285v-225h-99v225z" />
    <glyph glyph-name="exclamdown.case" horiz-adv-x="271" 
d="M83 700h105v-110h-105v110zM110 510h50l25 -285v-225h-99v225z" />
    <glyph glyph-name="question" unicode="?" horiz-adv-x="474" 
d="M132 317c0 35 8 59 24 73c15 15 41 22 76 22h11c30 0 54 9 72 27s27 42 27 72c0 31 -10 55 -28 73c-20 17 -46 26 -81 26h-198v90h213c58 0 104 -17 140 -52c34 -34 52 -80 52 -137c0 -37 -9 -69 -26 -97s-40 -50 -67 -64c-27 -16 -56 -23 -85 -23c-13 0 -22 -3 -27 -8
s-8 -14 -8 -27v-92h-95v117zM232 0h-105v110h105v-110z" />
    <glyph glyph-name="questiondown" unicode="&#xbf;" horiz-adv-x="465" 
d="M238 500h105v-110h-105v110zM338 183c0 -35 -8 -59 -24 -73c-15 -15 -41 -22 -76 -22h-11c-30 0 -54 -9 -72 -27s-27 -42 -27 -72c0 -31 10 -55 28 -73c20 -17 46 -26 81 -26h198v-90h-213c-58 0 -104 17 -140 52c-34 34 -52 80 -52 137c0 37 9 69 26 97s40 50 67 64
c27 16 56 23 85 23c13 0 22 3 27 8s8 14 8 27v92h95v-117z" />
    <glyph glyph-name="questiondown.case" horiz-adv-x="473" 
d="M242 701h105v-110h-105v110zM342 384c0 -35 -8 -59 -24 -74c-15 -14 -41 -21 -76 -21h-11c-30 0 -54 -9 -72 -27s-27 -42 -27 -72c0 -31 10 -55 28 -72c20 -18 46 -27 81 -27h198v-90h-213c-58 0 -104 17 -140 51c-34 35 -52 81 -52 138c0 37 9 69 26 97s40 49 67 65
c27 14 56 22 85 22c13 0 22 3 27 8s8 14 8 27v92h95v-117z" />
    <glyph glyph-name="question.ss06" horiz-adv-x="502" 
d="M159 306c0 19 3 34 10 45s18 19 34 26l51 21c26 11 47 20 62 30c15 8 28 20 38 34c10 15 15 33 15 55c0 32 -10 58 -30 78s-49 30 -87 30c-35 0 -62 -9 -83 -27c-21 -19 -34 -45 -39 -78h-98c1 39 12 72 34 101c20 29 48 51 82 66s70 23 109 23c40 0 76 -8 107 -23
c32 -15 57 -37 76 -65c18 -27 27 -59 27 -95c0 -89 -45 -152 -135 -190l-29 -12c-20 -8 -33 -15 -38 -19c-5 -6 -8 -15 -8 -28v-78h-98v106zM260 0h-105v110h105v-110z" />
    <glyph glyph-name="questiondown.ss06" horiz-adv-x="495" 
d="M238 500h105v-110h-105v110zM339 194c0 -19 -3 -34 -10 -45s-18 -19 -34 -26l-51 -21c-26 -11 -47 -20 -62 -30c-15 -8 -28 -20 -38 -34c-10 -15 -15 -33 -15 -55c0 -32 10 -58 30 -78s49 -30 87 -30c35 0 62 9 83 27c21 19 34 45 39 78h98c-1 -39 -12 -72 -34 -101
c-20 -29 -48 -51 -82 -66s-70 -23 -109 -23c-40 0 -76 8 -107 23c-32 15 -57 37 -76 65c-18 27 -27 59 -27 95c0 89 45 152 135 190l29 12c20 8 33 15 38 19c5 6 8 15 8 28v78h98v-106z" />
    <glyph glyph-name="questiondown.ss06.case" horiz-adv-x="501" 
d="M241 700h105v-110h-105v110zM342 394c0 -19 -3 -34 -10 -45s-18 -19 -34 -26l-51 -21c-26 -11 -47 -20 -62 -30c-15 -8 -28 -20 -38 -34c-10 -15 -15 -33 -15 -55c0 -32 10 -58 30 -78s49 -30 87 -30c35 0 62 9 83 27c21 19 34 45 39 78h98c-1 -39 -13 -72 -33 -101
c-22 -29 -49 -51 -83 -66s-70 -23 -109 -23c-40 0 -76 8 -108 23c-31 15 -56 37 -74 65c-19 27 -28 59 -28 95c0 89 45 152 135 190l29 12c20 8 33 15 38 19c5 6 8 15 8 28v78h98v-106z" />
    <glyph glyph-name="periodcentered" unicode="&#xb7;" horiz-adv-x="242" 
d="M175 290h-108v108h108v-108z" />
    <glyph glyph-name="bullet" unicode="&#x2022;" horiz-adv-x="512" 
d="M164 190c-28 18 -50 40 -68 68c-16 29 -25 59 -25 92s9 63 25 92c18 28 40 50 68 68c29 16 59 25 92 25c34 0 65 -8 94 -25c28 -17 50 -39 66 -68c17 -28 25 -59 25 -92s-8 -64 -25 -92c-16 -29 -38 -51 -66 -68c-29 -17 -60 -25 -94 -25c-33 0 -63 9 -92 25z" />
    <glyph glyph-name="asterisk" unicode="*" horiz-adv-x="431" 
d="M216 524l-59 -101l-52 30l58 101h-116v60h116l-58 101l52 30l59 -101l58 101l52 -30l-58 -101h116v-60h-116l58 -101l-52 -30z" />
    <glyph glyph-name="numbersign" unicode="#" horiz-adv-x="693" 
d="M652 525v-85h-123l-37 -180h118v-85h-136l-36 -175h-90l36 175h-148l-38 -175h-90l38 175h-105v85h123l38 180h-118v85h137l37 175h90l-37 -175h146l36 175h90l-36 -175h105zM254 260h148l37 180h-147z" />
    <glyph glyph-name="slash" unicode="/" horiz-adv-x="430" 
d="M130 0h-100l270 700h100z" />
    <glyph glyph-name="backslash" unicode="\" horiz-adv-x="430" 
d="M400 0h-100l-270 700h100z" />
    <glyph glyph-name="period.tf" 
d="M360 0h-120v120h120v-120z" />
    <glyph glyph-name="comma.tf" 
d="M205 -140v65h35c40 0 60 20 60 60v15h-60v120h120v-140c0 -39 -10 -69 -32 -90c-20 -20 -50 -30 -88 -30h-35z" />
    <glyph glyph-name="colon.tf" 
d="M360 0h-120v120h120v-120zM360 380h-120v120h120v-120z" />
    <glyph glyph-name="semicolon.tf" 
d="M209 -140v65h35c40 0 60 20 60 60v15h-60v120h120v-140c0 -39 -10 -69 -32 -90c-20 -20 -50 -30 -88 -30h-35zM364 380h-120v120h120v-120z" />
    <glyph glyph-name="numbersign.tf" 
d="M570 525v-85h-94l-37 -180h111v-85h-129l-36 -175h-85l36 175h-138l-38 -175h-85l38 175h-83v85h101l38 180h-119v85h138l37 175h85l-37 -175h136l36 175h85l-36 -175h76zM216 260h138l37 180h-137z" />
    <glyph glyph-name="parenleft" unicode="(" horiz-adv-x="363" 
d="M336 -145c-105 9 -178 60 -222 153c-42 92 -64 206 -64 342c0 134 22 247 65 338c43 92 117 144 221 157v-87c-75 -17 -125 -62 -150 -135s-38 -164 -38 -273s13 -200 38 -273s75 -118 150 -135v-87z" />
    <glyph glyph-name="parenright" unicode=")" horiz-adv-x="363" 
d="M27 845c105 -9 179 -60 221 -153c44 -92 65 -206 65 -342c0 -134 -22 -247 -65 -338c-43 -92 -117 -144 -221 -157v87c75 17 125 62 150 135s38 164 38 273s-13 200 -38 273s-75 118 -150 135v87z" />
    <glyph glyph-name="braceleft" unicode="{" horiz-adv-x="349" 
d="M241 -145c-44 0 -76 13 -95 37c-20 26 -30 65 -30 118v205c0 25 -3 43 -10 51c-7 10 -20 14 -40 14h-25v140h25c20 0 33 4 40 14c7 8 10 26 10 51v205c0 53 10 92 30 118c19 24 51 37 95 37h75v-85h-45c-24 0 -40 -5 -48 -16s-12 -30 -12 -59v-240c0 -57 -27 -85 -80 -85
v-20c53 0 80 -28 80 -85v-240c0 -29 4 -48 12 -59s24 -16 48 -16h45v-85h-75z" />
    <glyph glyph-name="braceright" unicode="}" horiz-adv-x="348" 
d="M107 846c44 0 76 -12 95 -38c20 -24 30 -64 30 -117v-205c0 -25 3 -42 10 -52c7 -8 20 -13 40 -13h25v-140h-25c-20 0 -33 -5 -40 -13c-7 -10 -10 -27 -10 -52v-205c0 -53 -10 -93 -30 -117c-19 -26 -51 -38 -95 -38h-75v85h45c24 0 40 5 48 16s12 30 12 59v240
c0 57 27 85 80 85v20c-53 0 -80 28 -80 85v240c0 29 -4 48 -12 59s-24 16 -48 16h-45v85h75z" />
    <glyph glyph-name="bracketleft" unicode="[" horiz-adv-x="338" 
d="M307 -145h-220v990h220v-85h-125v-820h125v-85z" />
    <glyph glyph-name="bracketright" unicode="]" horiz-adv-x="338" 
d="M31 845h220v-990h-220v85h125v820h-125v85z" />
    <glyph glyph-name="uniE00A" unicode="&#xe00a;" horiz-adv-x="372" 
d="M233 -145c-37 0 -68 11 -93 34s-37 51 -37 86c0 18 3 34 8 48s15 28 28 42c-31 7 -52 19 -63 39c-12 18 -18 44 -18 75v342c0 31 6 57 18 75c11 20 32 32 63 39c-13 14 -23 28 -28 42s-8 30 -8 48c0 35 12 63 37 86s56 34 93 34h105v-85h-93c-13 0 -25 -4 -33 -13
c-10 -9 -14 -20 -14 -33v-8c0 -13 4 -24 14 -33c8 -9 20 -13 33 -13h28v-85h-58c-20 0 -35 -6 -46 -17s-16 -28 -16 -51v-314c0 -23 5 -40 16 -51s26 -17 46 -17h58v-85h-28c-13 0 -25 -4 -33 -13c-10 -9 -14 -20 -14 -33v-8c0 -13 4 -24 14 -33c8 -9 20 -13 33 -13h93v-85
h-105z" />
    <glyph glyph-name="uniE00B" unicode="&#xe00b;" horiz-adv-x="381" 
d="M145 845c37 0 68 -11 93 -34s37 -51 37 -86c0 -18 -3 -34 -8 -48s-15 -28 -28 -42c31 -7 52 -19 63 -39c12 -18 18 -44 18 -75v-342c0 -31 -6 -57 -18 -75c-11 -20 -32 -32 -63 -39c13 -14 23 -28 28 -42s8 -30 8 -48c0 -35 -12 -63 -37 -86s-56 -34 -93 -34h-105v85h93
c13 0 25 4 33 13c10 9 14 20 14 33v8c0 13 -4 24 -14 33c-8 9 -20 13 -33 13h-28v85h58c20 0 35 6 46 17s16 28 16 51v314c0 23 -5 40 -16 51s-26 17 -46 17h-58v85h28c13 0 25 4 33 13c10 9 14 20 14 33v8c0 13 -4 24 -14 33c-8 9 -20 13 -33 13h-93v85h105z" />
    <glyph glyph-name="angleleft" unicode="&#x2329;" horiz-adv-x="386" 
d="M354 -85h-100l-228 435l228 435h100l-225 -433z" />
    <glyph glyph-name="angleright" unicode="&#x232a;" horiz-adv-x="386" 
d="M32 785h100l228 -435l-228 -435h-100l225 433z" />
    <glyph glyph-name="uni3010" unicode="&#x3010;" horiz-adv-x="379" 
d="M87 -145v990h287c-64 -69 -112 -146 -144 -231c-32 -86 -48 -174 -48 -263s16 -176 48 -262c31 -86 79 -164 144 -234h-287z" />
    <glyph glyph-name="uni3011" unicode="&#x3011;" horiz-adv-x="378" 
d="M291 846v-990h-287c64 69 112 146 144 232c32 85 48 173 48 262s-16 176 -48 262c-31 86 -79 164 -144 234h287z" />
    <glyph glyph-name="uni300C" unicode="&#x300c;" horiz-adv-x="322" 
d="M163 388h-93v457h230v-85h-137v-372z" />
    <glyph glyph-name="uni300D" unicode="&#x300d;" horiz-adv-x="321" 
d="M159 312h93v-457h-230v85h137v372z" />
    <glyph glyph-name="uni300A" unicode="&#x300a;" horiz-adv-x="588" 
d="M354 -85h-100l-228 435l228 435h100l-225 -433zM556 -85h-100l-228 435l228 435h100l-225 -433z" />
    <glyph glyph-name="uni300B" unicode="&#x300b;" horiz-adv-x="588" 
d="M32 785h100l228 -435l-228 -435h-100l225 433zM234 785h100l228 -435l-228 -435h-100l225 433z" />
    <glyph glyph-name="uni3014" unicode="&#x3014;" horiz-adv-x="326" 
d="M322 -145h-113l-144 162v666l144 162h112l-161 -182v-625z" />
    <glyph glyph-name="uni3015" unicode="&#x3015;" horiz-adv-x="326" 
d="M4 846h113l144 -162v-666l-144 -162h-112l161 182v625z" />
    <glyph glyph-name="uni300E" unicode="&#x300e;" horiz-adv-x="454" 
d="M281 317h-209v528h346v-181h-137v-347zM145 782v-402h63v347h137v55h-200z" />
    <glyph glyph-name="uni300F" unicode="&#x300f;" horiz-adv-x="456" 
d="M171 383h209v-528h-346v181h137v347zM307 -82v402h-63v-347h-137v-55h200z" />
    <glyph glyph-name="parenleft.case" horiz-adv-x="360" 
d="M313 -10c-51 7 -96 27 -135 58s-70 73 -92 125s-33 111 -33 177s11 125 33 177s53 94 92 125s84 51 135 58v-90c-51 -9 -92 -38 -121 -86c-29 -49 -44 -110 -44 -184s15 -135 44 -184c29 -48 70 -77 121 -86v-90z" />
    <glyph glyph-name="parenright.case" horiz-adv-x="360" 
d="M47 710c51 -7 96 -27 135 -58s70 -73 92 -125s33 -111 33 -177s-11 -125 -33 -177s-53 -94 -92 -125s-84 -51 -135 -58v90c51 9 92 38 121 86c29 49 44 110 44 184s-15 135 -44 184c-29 48 -70 77 -121 86v90z" />
    <glyph glyph-name="braceleft.case" horiz-adv-x="374" 
d="M250 0c-44 0 -76 12 -96 38c-19 24 -29 64 -29 117v60c0 25 -3 43 -10 51c-7 10 -20 14 -40 14h-25v140h25c20 0 33 4 40 14c7 8 10 26 10 51v60c0 53 10 93 29 117c20 26 52 38 96 38h75v-85h-50c-24 0 -40 -5 -48 -16s-12 -30 -12 -59v-95c0 -57 -27 -85 -80 -85v-20
c53 0 80 -28 80 -85v-95c0 -29 4 -48 12 -59s24 -16 48 -16h50v-85h-75z" />
    <glyph glyph-name="braceright.case" horiz-adv-x="374" 
d="M124 701c44 0 76 -13 96 -37c19 -26 29 -65 29 -118v-60c0 -25 3 -42 10 -52c7 -8 20 -13 40 -13h25v-140h-25c-20 0 -33 -5 -40 -13c-7 -10 -10 -27 -10 -52v-60c0 -53 -10 -92 -29 -118c-20 -24 -52 -37 -96 -37h-75v85h50c24 0 40 5 48 16s12 30 12 59v95
c0 57 27 85 80 85v20c-53 0 -80 28 -80 85v95c0 29 -4 48 -12 59s-24 16 -48 16h-50v85h75z" />
    <glyph glyph-name="bracketleft.case" horiz-adv-x="342" 
d="M292 0h-200v700h200v-85h-105v-530h105v-85z" />
    <glyph glyph-name="bracketright.case" horiz-adv-x="342" 
d="M50 700h200v-700h-200v85h105v530h-105v85z" />
    </font>
</defs>
</svg>
